<?xml version="1.0" standalone="no"?>
<!DOCTYPE svg PUBLIC "-//W3C//DTD SVG 1.1//EN" "http://www.w3.org/Graphics/SVG/1.1/DTD/svg11.dtd" >
<svg>
<metadata>
Created by FontForge 20090914 at Tue Oct 29 09:25:59 2013
 By www-data
Copyright (c) 2010 by The Fontry. All rights reserved.
</metadata>
<defs>
<font id="AmericanCaptain" horiz-adv-x="798" >
  <font-face 
    font-family="American Captain"
    font-weight="400"
    font-variant="small-caps"
    font-stretch="normal"
    units-per-em="1000"
    panose-1="0 0 0 0 0 0 0 0 0 0"
    ascent="750"
    descent="-250"
    x-height="725"
    cap-height="727"
    bbox="-130 -229 975 960.999"
    underline-thickness="50"
    underline-position="-50"
    unicode-range="U+0020-U+2122"
  />
<missing-glyph horiz-adv-x="125" 
 />
    <glyph glyph-name=".notdef" horiz-adv-x="125" 
 />
    <glyph glyph-name="space" unicode=" " horiz-adv-x="125" 
 />
    <glyph glyph-name="exclam" unicode="!" horiz-adv-x="201" 
d="M20 724h161l-36 -534h-91zM22 67c0 -21.333 7.66699 -39.5 23 -54.5s33.666 -22.5 54.999 -22.5s39.666 7.5 54.999 22.5s23 33.167 23 54.5s-7.66699 39.666 -23 54.999s-33.666 23 -54.999 23s-39.666 -7.66699 -54.999 -23s-23 -33.666 -23 -54.999z" />
    <glyph glyph-name="quotedbl" unicode="&#x22;" horiz-adv-x="319" 
d="M178 724h114l-23 -247h-69zM27 724h115l-22 -247h-70z" />
    <glyph glyph-name="numbersign" unicode="#" horiz-adv-x="460" 
d="M271 395h-61l-10 -63h60l11 63v0zM440 455l-11 -60h-89l-12 -63h89l-9 -60h-91l-48 -272h-69l49 272h-60l-49 -272h-69l48 272h-89l11 60h89l11 63h-90l13 60h89l48 272h69l-49 -272h60l50 272h67l-47 -272h89v0z" />
    <glyph glyph-name="dollar" unicode="$" horiz-adv-x="351" 
d="M190 260l-126 107.001c-17.333 14.667 -27.166 30 -29.499 46s-3.5 34.667 -3.5 56v90c0 23.333 6.66699 42.166 20 56.499s33 21.5 59 21.5h39v87h65v-87h75l28 -124h-165v-52l136 -121c13.333 -11.333 22.166 -23.5 26.499 -36.5s6.5 -28.167 6.5 -45.5v-103
c0 -44.667 -25.333 -67 -76 -67h-31v-88h-65v88h-78l-35 111h154v61z" />
    <glyph glyph-name="percent" unicode="%" horiz-adv-x="699" 
d="M517 178c0 -18.667 0.333008 -33.834 1 -45.501s2 -20.667 4 -27s4.66699 -10.5 8 -12.5s7.66602 -3 12.999 -3c4.66699 0 8.83398 1 12.501 3s6.5 6.16699 8.5 12.5s3.5 15.333 4.5 27s1.5 26.834 1.5 45.501s-0.5 33.834 -1.5 45.501s-2.5 20.667 -4.5 27
s-4.83301 10.5 -8.5 12.5s-7.83398 3 -12.501 3c-5.33301 0 -9.66602 -1 -12.999 -3s-6 -6.16699 -8 -12.5s-3.33301 -15.333 -4 -27s-1 -26.834 -1 -45.501zM672 178c0 -39.333 -3 -71.166 -9 -95.499s-14.667 -43.333 -26 -57s-24.833 -23 -40.5 -28
s-33.5 -7.5 -53.5 -7.5s-37.833 2.5 -53.5 7.5s-29.167 14.333 -40.5 28s-20 32.667 -26 57s-9 56.166 -9 95.499c0 38.667 3 70.334 9 95.001s14.667 43.834 26 57.501s24.833 23 40.5 28s33.5 7.5 53.5 7.5s37.833 -2.5 53.5 -7.5s29.167 -14.333 40.5 -28
s20 -32.834 26 -57.501s9 -56.334 9 -95.001zM132 549c0 -18.667 0.5 -33.834 1.5 -45.501s2.5 -20.667 4.5 -27s4.66699 -10.5 8 -12.5s7.66602 -3 12.999 -3c4.66699 0 8.66699 1 12 3s6 6.16699 8 12.5s3.5 15.333 4.5 27s1.5 26.834 1.5 45.501s-0.5 33.834 -1.5 45.501
s-2.5 20.667 -4.5 27s-4.66699 10.5 -8 12.5s-7.33301 3 -12 3c-5.33301 0 -9.66602 -1 -12.999 -3s-6 -6.16699 -8 -12.5s-3.5 -15.333 -4.5 -27s-1.5 -26.834 -1.5 -45.501zM288 549c0 -39.333 -3 -71.166 -9 -95.499s-14.667 -43.333 -26 -57s-24.833 -23 -40.5 -28
s-33.5 -7.5 -53.5 -7.5s-37.833 2.5 -53.5 7.5s-29.167 14.333 -40.5 28s-20 32.667 -26 57s-9 56.166 -9 95.499c0 38.667 3 70.334 9 95.001s14.667 43.834 26 57.501s24.833 23 40.5 28s33.5 7.5 53.5 7.5s37.833 -2.5 53.5 -7.5s29.167 -14.333 40.5 -28
s20 -32.834 26 -57.501s9 -56.334 9 -95.001zM546 732l-284 -737h-108l287 737h105z" />
    <glyph glyph-name="ampersand" unicode="&#x26;" horiz-adv-x="551" 
d="M181 363c-5.33301 -1.33301 -9.16699 -3.33301 -11.5 -6s-3.5 -10.667 -3.5 -24v-187c0 -10.667 2.5 -18 7.5 -22s12.5 -6 22.5 -6h36c9.33301 0 19 2.16699 29 6.5s17.333 12.5 22 24.5c-13.333 31.333 -28.833 63.5 -46.5 96.5s-36.167 72.167 -55.5 117.5z
M271.999 474c17.333 -0.666992 30.6689 2.33398 40.002 9.00098s14.666 15.667 15.999 27s2.16602 24.166 2.49902 38.499s-0.166992 27.833 -1.5 40.5c-1.33301 14.667 -5.33301 24.167 -12 28.5s-17.667 6.5 -33 6.5h-22c-22 0 -35 -6.5 -39 -19.5s-1.33301 -28.5 8 -46.5
zM530.002 0.000976562l-124.002 -0.00292969c-11.333 0 -22.5 3.33301 -33.5 10s-19.833 18.667 -26.5 36c-11.333 -13.333 -23.666 -23.5 -36.999 -30.5s-27.166 -12 -41.499 -15s-29.166 -4.83301 -44.499 -5.5s-30 -1 -44 -1c-28 0 -51.5 2.33301 -70.5 7
s-34.333 12.834 -46 24.501s-20 27.334 -25 47.001s-7.5 44.167 -7.5 73.5v219c0 25.333 9.33301 47.166 28 65.499s44 28.5 76 30.5l-36 69c-6 11.333 -10.167 24 -12.5 38s-2.83301 28.333 -1.5 43s4.66602 28.667 9.99902 42s13 25 23 35c27.333 28 79.333 42 156 42
c28.667 0 54 -2 76 -6s40.333 -11 55 -21s25.834 -23.667 33.501 -41s11.5 -39.666 11.5 -66.999v-56c0 -16 -1.33301 -32.5 -4 -49.5s-8.83398 -32.667 -18.501 -47s-23.667 -26.166 -42 -35.499s-42.833 -14.666 -73.5 -15.999l65 -139c6 10 12 25.5 18 46.5
s9 43.167 9 66.5h116c0 -14.667 -2 -31.834 -6 -51.501s-9.16699 -39.667 -15.5 -60s-13.833 -40 -22.5 -59s-17.667 -35.5 -27 -49.5c-1.33301 -2 -2 -4.16699 -2 -6.5s3.66699 -3.5 11 -3.5h46z" />
    <glyph glyph-name="quotesingle" unicode="'" horiz-adv-x="169" 
d="M27 724h115l-22 -247h-70z" />
    <glyph glyph-name="parenleft" unicode="(" horiz-adv-x="277" 
d="M267 -40l-101.999 -0.000976562c-41.333 54 -74.166 115.333 -98.499 184s-36.5 141.667 -36.5 219c0 78.667 12.167 151.834 36.5 219.501s57.166 129.167 98.499 184.5h102c-26.667 -62.667 -47.334 -127.667 -62.001 -195s-22 -137 -22 -209s7 -141.5 21 -208.5
s35 -131.833 63 -194.5z" />
    <glyph glyph-name="parenright" unicode=")" horiz-adv-x="277" 
d="M10 -40c28 62.667 49.001 127.501 63.001 194.501s21 136.5 21 208.5s-7.33301 141.667 -22 209s-35.334 132.333 -62.001 195h102c41.333 -55.333 74.166 -116.833 98.499 -184.5s36.5 -140.834 36.5 -219.501c0 -77.333 -12.167 -150.333 -36.5 -219
s-57.166 -130 -98.499 -184h-102v0z" />
    <glyph glyph-name="asterisk" unicode="*" horiz-adv-x="387" 
d="M355 555l-53 -92l-82 81l29 -112h-111l28 112l-81 -81l-53 92l121 29l-121 29l53 92l81 -84l-28 114h111l-30 -114l83 84l53 -92l-123 -29z" />
    <glyph glyph-name="plus" unicode="+" horiz-adv-x="494" 
d="M30 414h166v166h101v-166h167v-101h-167v-166h-101v166h-166v101z" />
    <glyph glyph-name="comma" unicode="," horiz-adv-x="216" 
d="M30 67c0 21.333 7.66895 39.665 23.002 54.998s33.666 23 54.999 23s39.666 -7.66699 54.999 -23s23 -33.666 23 -54.999c0 -11.333 -2.33301 -23.5 -7 -36.5s-10.834 -25.667 -18.501 -38s-16 -24 -25 -35s-17.833 -20.5 -26.5 -28.5h-52
c6.66699 10 12.834 20.333 18.501 31s10.167 21.667 13.5 33c-20 3.33301 -34.833 12.333 -44.5 27s-14.5 30.334 -14.5 47.001z" />
    <glyph glyph-name="hyphen" unicode="-" horiz-adv-x="283" 
d="M40 411h213l-10 -119h-213z" />
    <glyph glyph-name="period" unicode="." horiz-adv-x="216" 
d="M30 67c0 21.333 7.66699 39.666 23 54.999s33.666 23 54.999 23s39.666 -7.66699 54.999 -23s23 -33.666 23 -54.999s-7.66699 -39.5 -23 -54.5s-33.666 -22.5 -54.999 -22.5s-39.666 7.5 -54.999 22.5s-23 33.167 -23 54.5z" />
    <glyph glyph-name="slash" unicode="/" horiz-adv-x="363" 
d="M343 732l-219 -737h-104l218 737h105z" />
    <glyph glyph-name="zero" unicode="0" horiz-adv-x="434" 
d="M189 598c-8.66699 0 -13 -4.66699 -13 -14v-442c0 -5.33301 0.833008 -9.16602 2.5 -11.499s5.5 -3.5 11.5 -3.5h53c6 0 9.83301 1.16699 11.5 3.5s2.5 6.16602 2.5 11.499v442c0 9.33301 -4.33301 14 -13 14h-55zM30 625c0 28.667 8 52.5 24 71.5s40.667 28.5 74 28.5
h178c33.333 0 58 -9.5 74 -28.5s24 -42.833 24 -71.5v-525c0 -28.667 -8 -52.5 -24 -71.5s-40.667 -28.5 -74 -28.5h-178c-33.333 0 -58 9.5 -74 28.5s-24 42.833 -24 71.5v525z" />
    <glyph glyph-name="one" unicode="1" horiz-adv-x="292" 
d="M71 725h155v-590h49v-135h-245v135h47v455h-60z" />
    <glyph glyph-name="two" unicode="2" horiz-adv-x="393" 
d="M363 451c0 -18.667 -3.16699 -33.333 -9.5 -44s-17.833 -21.667 -34.5 -33l-137 -109c-4.66699 -3.33301 -7 -9 -7 -17v-113h175l-26 -135h-294v261c0 23.333 3.33301 43 10 59s19 29.667 37 41l137 105c4.66699 3.33301 7.5 6 8.5 8s1.5 4.66699 1.5 8v95
c0 8.66699 -4.66699 13 -14 13h-177l25 135h220c24 0 44.167 -7.66699 60.5 -23s24.5 -37.333 24.5 -66v-185z" />
    <glyph glyph-name="three" unicode="3" horiz-adv-x="362" 
d="M45 725h184.999c37.333 0 63 -7.5 77 -22.5s21 -39.167 21 -72.5v-201c0 -16.667 -3.5 -31 -10.5 -43s-22.167 -19 -45.5 -21c24.667 0 40.834 -7.16699 48.501 -21.5s11.5 -31.166 11.5 -50.499v-181c0 -40 -8.33301 -68.667 -25 -86s-46 -26 -88 -26h-173l-25 135h145
c6.66699 0 11.667 0.833008 15 2.5s5 6.83398 5 15.501v119c0 5.33301 -1 9.66602 -3 12.999s-7 5 -15 5h-111v125h109c8 0 13.333 1.33301 16 4s4 8 4 16v137c0 7.33301 -1.5 12.166 -4.5 14.499s-7.16699 3.5 -12.5 3.5h-149z" />
    <glyph glyph-name="four" unicode="4" horiz-adv-x="454" 
d="M187 725h202v-478h40v-115h-40v-132h-143v132h-221v164l162 404v25zM246 247v279l-82 -237v-42h82z" />
    <glyph glyph-name="five" unicode="5" horiz-adv-x="387" 
d="M62 0l-25 135h162c8 0 12 3.66699 12 11v163c0 6.66699 -3.33301 10 -10 10h-133l-38 43v362h287l25 -134h-170v-154h109c22 0 40.167 -6.83301 54.5 -20.5s21.5 -30.167 21.5 -49.5v-257c0 -40 -8.33301 -68.167 -25 -84.5s-45.667 -24.5 -87 -24.5h-183z" />
    <glyph glyph-name="six" unicode="6" horiz-adv-x="427" 
d="M176 139c0 -8 3.66699 -12 11 -12h59c7.33301 0 11 4 11 12v198c0 6.66699 -3 10 -9 10h-72v-208zM143 0c-42 0 -71.333 8.66699 -88 26s-25 46 -25 86v525c0 26 7.83301 47.167 23.5 63.5s36.5 24.5 62.5 24.5h224l25 -135h-177c-8 0 -12 -4.66699 -12 -14v-122h145
c24 0 42.667 -6.16699 56 -18.5s20 -31.833 20 -58.5v-265c0 -40 -8.33301 -68.667 -25 -86s-46 -26 -88 -26h-141z" />
    <glyph glyph-name="seven" unicode="7" horiz-adv-x="380" 
d="M35 725h335l-27 -90l-163 -635h-151l160 590h-179z" />
    <glyph glyph-name="eight" unicode="8" horiz-adv-x="451" 
d="M199 598c-11.333 0 -16.999 -5.33301 -16.999 -16v-134c0 -7.33301 1.66699 -12.166 5 -14.499s8.66602 -3.5 15.999 -3.5h46c7.33301 0 12.5 1.16699 15.5 3.5s4.5 7.16602 4.5 14.499v134c0 5.33301 -1 9.33301 -3 12s-6.66699 4 -14 4h-53zM249.001 126
c6 0 10.833 1 14.5 3s5.5 7.66699 5.5 17v157c0 5.33301 -1.33301 9.5 -4 12.5s-7.66699 4.5 -15 4.5h-49c-12.667 0 -19 -5.66699 -19 -17v-157c0 -9.33301 1.83301 -15 5.5 -17s8.5 -3 14.5 -3h47zM413.001 465c0 -18.667 -3.00098 -35.168 -9.00098 -49.501
s-19.333 -26.166 -40 -35.499c20.667 -4.66699 35.334 -15.167 44.001 -31.5s13 -33.166 13 -50.499v-184c0 -40 -8.83301 -69 -26.5 -87s-47.5 -27 -89.5 -27h-159c-42 0 -71.833 9 -89.5 27s-26.5 47 -26.5 87v184c0 8.66699 1.33301 17.5 4 26.5s6.5 17.333 11.5 25
s11.167 14.167 18.5 19.5s16 9 26 11c-19.333 6.66699 -32.333 18.167 -39 34.5s-10 33.166 -10 50.499v149c0 40 9.5 68.5 28.5 85.5s49.5 25.5 91.5 25.5h132c42 0 72.5 -8.5 91.5 -25.5s28.5 -45.5 28.5 -85.5v-149z" />
    <glyph glyph-name="nine" unicode="9" horiz-adv-x="428" 
d="M252 586c0 8 -3.66699 12 -11 12h-59c-7.33301 0 -11 -4 -11 -12v-214c0 -6.66699 3 -10 9 -10h72v224zM398 112c0 -40 -8.33301 -68.667 -25 -86s-46 -26 -88 -26h-208l-25 135h188c8 0 12 4.66699 12 14v103h-146c-22 0 -40.167 6.5 -54.5 19.5
s-21.5 32.833 -21.5 59.5v305c0 28.667 8.16699 50.667 24.5 66s36.5 23 60.5 23h198c24 0 44.167 -7.66699 60.5 -23s24.5 -37.333 24.5 -66v-524z" />
    <glyph glyph-name="colon" unicode=":" horiz-adv-x="216" 
d="M30 444c0 21.333 7.66699 39.666 23 54.999s33.666 23 54.999 23s39.666 -7.66699 54.999 -23s23 -33.666 23 -54.999s-7.66699 -39.5 -23 -54.5s-33.666 -22.5 -54.999 -22.5s-39.666 7.5 -54.999 22.5s-23 33.167 -23 54.5zM30 70c0 21.333 7.66699 39.666 23 54.999
s33.666 23 54.999 23s39.666 -7.66699 54.999 -23s23 -33.666 23 -54.999s-7.66699 -39.5 -23 -54.5s-33.666 -22.5 -54.999 -22.5s-39.666 7.5 -54.999 22.5s-23 33.167 -23 54.5z" />
    <glyph glyph-name="semicolon" unicode=";" horiz-adv-x="216" 
d="M30 444c0 21.333 7.66699 39.666 23 54.999s33.666 23 54.999 23s39.666 -7.66699 54.999 -23s23 -33.666 23 -54.999s-7.66699 -39.5 -23 -54.5s-33.666 -22.5 -54.999 -22.5s-39.666 7.5 -54.999 22.5s-23 33.167 -23 54.5zM30 67
c0 21.333 7.66895 39.665 23.002 54.998s33.666 23 54.999 23s39.666 -7.66699 54.999 -23s23 -33.666 23 -54.999c0 -11.333 -2.33301 -23.5 -7 -36.5s-10.834 -25.667 -18.501 -38s-16 -24 -25 -35s-17.833 -20.5 -26.5 -28.5h-52c6.66699 10 12.834 20.333 18.501 31
s10.167 21.667 13.5 33c-20 3.33301 -34.833 12.333 -44.5 27s-14.5 30.334 -14.5 47.001z" />
    <glyph glyph-name="less" unicode="&#x3c;" horiz-adv-x="421" 
d="M30 318v91l356 191v-119l-246 -117l246 -118v-119z" />
    <glyph glyph-name="equal" unicode="=" horiz-adv-x="427" 
d="M35 328h357v-97h-357v97zM35 496h357v-96h-357v96z" />
    <glyph glyph-name="greater" unicode="&#x3e;" horiz-adv-x="421" 
d="M35 127v119l246 118l-246 117v119l356 -191v-91z" />
    <glyph glyph-name="question" unicode="?" horiz-adv-x="364" 
d="M192 577c0 8.66699 -4.33301 13 -13 13h-169l25 135h215c25.333 0 45.666 -7.5 60.999 -22.5s23 -35.167 23 -60.5v-263c0 -21.333 -6.33301 -39.333 -19 -54s-32.667 -22 -60 -22h-77v-113h-120v192c0 11.333 4.33301 21 13 29s18.334 12 29.001 12h78
c6.66699 0 10.667 1 12 3s2 5.66699 2 11v140zM42 67c0 -21.333 7.66699 -39.5 23 -54.5s33.666 -22.5 54.999 -22.5s39.666 7.5 54.999 22.5s23 33.167 23 54.5s-7.66699 39.666 -23 54.999s-33.666 23 -54.999 23s-39.666 -7.66699 -54.999 -23s-23 -33.666 -23 -54.999z
" />
    <glyph glyph-name="at" unicode="@" horiz-adv-x="556" 
d="M526 172l-238.001 0.000976562c-18.667 0 -35 5.5 -49 16.5s-21 27.167 -21 48.5v259c0 18 5.83301 32.333 17.5 43s25.167 16 40.5 16h139v34c0 9.33301 -1.33301 15.666 -4 18.999s-9 5 -19 5h-204c-14 0 -21 -7.33301 -21 -22v-445c0 -12 5 -18 15 -18h291l-26 -128
h-328c-25.333 -0 -46.5 6.33301 -63.5 19s-25.5 35 -25.5 67v556c0 24 7.33301 43.833 22 59.5s35.334 23.5 62.001 23.5h341c22 0 39.333 -6.33301 52 -19s19 -28.667 19 -48v-486zM404.999 464.001h-51c-9.33301 0 -14 -4.66699 -14 -14v-172c0 -4 1.5 -7 4.5 -9
s6.16699 -3 9.5 -3h51v198z" />
    <glyph glyph-name="A" unicode="A" horiz-adv-x="437" 
d="M169 90l-13 -90h-146l131 725h155l131 -725h-146l-13 90h-99zM185 205h67l-33 257z" />
    <glyph glyph-name="B" unicode="B" horiz-adv-x="436" 
d="M174 598l0.000976562 -190h68c5.33301 0 9.66602 1.5 12.999 4.5s5 7.83301 5 14.5v157c0 9.33301 -4.33301 14 -13 14h-73zM262.001 277c0 8 -2 13.501 -6 16.501s-9.33301 4.5 -16 4.5h-66v-171h73c6 0 10 1.16699 12 3.5s3 6.16602 3 11.499v135zM399.001 438.001
c0 -18 -3.5 -33.5 -10.5 -46.5s-20.167 -22.167 -39.5 -27.5c20 -1.33301 34.5 -8.33301 43.5 -21s13.5 -27 13.5 -43v-188c0 -40 -8.33301 -68.667 -25 -86s-46 -26 -88 -26h-263v725h283c28.667 0 50.167 -8 64.5 -24s21.5 -37.333 21.5 -64v-199z" />
    <glyph glyph-name="C" unicode="C" horiz-adv-x="351" 
d="M143 0c-42 0 -71.333 8.66699 -88 26s-25 46 -25 86v524c0 28.667 8.16699 50.667 24.5 66s36.5 23 60.5 23h191l25 -135h-139c-8.66699 0 -13 -4.66699 -13 -14v-427c0 -9.33301 4.33301 -14 13 -14h139l-26 -135h-162z" />
    <glyph glyph-name="D" unicode="D" horiz-adv-x="430" 
d="M174 598v-470.999h68c6 0 9.83301 1.16699 11.5 3.5s2.5 6.16602 2.5 11.499v442c0 9.33301 -4.33301 14 -13 14h-69zM400 112.001c0 -40 -8.33301 -68.667 -25 -86s-46 -26 -88 -26h-257v725h284c28.667 0 50.167 -8 64.5 -24s21.5 -37.333 21.5 -64v-525z" />
    <glyph glyph-name="E" unicode="E" horiz-adv-x="357" 
d="M30 725h282l25 -135h-158v-172h120v-125h-120v-158h152l-25 -135h-276v725z" />
    <glyph glyph-name="F" unicode="F" horiz-adv-x="352" 
d="M30 725h282l25 -135h-158v-172h120v-125h-120v-293h-149v725z" />
    <glyph glyph-name="G" unicode="G" horiz-adv-x="423" 
d="M30 637c0 26.667 7.16699 48 21.5 64s35.833 24 64.5 24h207l25 -135h-159c-8.66699 0 -13 -4.66699 -13 -14v-430c0 -9.33301 4.33301 -14 13 -14h66v286h141v-418h-253c-42 0 -71.333 8.66699 -88 26s-25 46 -25 86v525z" />
    <glyph glyph-name="H" unicode="H" horiz-adv-x="435" 
d="M405 0h-148v290h-79v-290h-148v725h148v-310h79v310h148v-725z" />
    <glyph glyph-name="I" unicode="I" horiz-adv-x="205" 
d="M30 725h145v-725h-145v725z" />
    <glyph glyph-name="J" unicode="J" horiz-adv-x="423" 
d="M27 418l141.001 -0.000976562v-274c0 -9.33301 4.33301 -14 13 -14h53c8.66699 0 13 5 13 15v445h-157l25 135h278v-621c0 -28.667 -8.33301 -53.167 -25 -73.5s-41 -30.5 -73 -30.5h-172c-28.667 0 -51.834 8.33301 -69.501 25s-26.5 39.334 -26.5 68.001v325z" />
    <glyph glyph-name="K" unicode="K" horiz-adv-x="434" 
d="M178 414h22l74 311h150l-87 -334l86 -391h-159l-57 299h-29v-299h-148v725h148v-311v0z" />
    <glyph glyph-name="L" unicode="L" horiz-adv-x="340" 
d="M30 725h149v-590h146l-25 -135h-270v725z" />
    <glyph glyph-name="M" unicode="M" horiz-adv-x="525" 
d="M171 342v-342h-141v725h153l79 -306l79 306h154v-725h-141v342l-92 -290z" />
    <glyph glyph-name="N" unicode="N" horiz-adv-x="421" 
d="M30 725h138l74 -291v291h149v-725h-149l-78 303v-303h-134v725z" />
    <glyph glyph-name="O" unicode="O" horiz-adv-x="436" 
d="M189 598c-8.66699 0 -13 -4.66699 -13 -14v-442c0 -5.33301 0.833008 -9.16602 2.5 -11.499s5.5 -3.5 11.5 -3.5h55c6 0 9.83301 1.16699 11.5 3.5s2.5 6.16602 2.5 11.499v442c0 9.33301 -4.33301 14 -13 14h-57zM406 103c0 -14 -1.66699 -27.167 -5 -39.5
s-9 -23.166 -17 -32.499s-18.667 -16.833 -32 -22.5s-30 -8.5 -50 -8.5h-168c-20 0 -36.667 2.83301 -50 8.5s-24 13.167 -32 22.5s-13.667 20.166 -17 32.499s-5 25.5 -5 39.5v528c0 28.667 7.83301 51.5 23.5 68.5s40.5 25.5 74.5 25.5h180c34 0 58.833 -8.5 74.5 -25.5
s23.5 -39.833 23.5 -68.5v-528z" />
    <glyph glyph-name="P" unicode="P" horiz-adv-x="428" 
d="M174 598v-284.999h72c6 0 9.83301 1.16699 11.5 3.5s2.5 6.16602 2.5 11.499v256c0 9.33301 -4.33301 14 -13 14h-73zM315 725.001c28.667 0 50.167 -7.99902 64.5 -23.999s21.5 -37.333 21.5 -64v-347c0 -14 -1.5 -26.833 -4.5 -38.5s-8.5 -21.834 -16.5 -30.501
s-18.667 -15.5 -32 -20.5s-30 -7.5 -50 -7.5h-124v-193h-144v725h285z" />
    <glyph glyph-name="Q" unicode="Q" horiz-adv-x="439" 
d="M190 598c-9.33301 0 -14 -5 -14 -15v-441c0 -5.33301 0.833008 -9.16602 2.5 -11.499s5.5 -3.5 11.5 -3.5h58c6 0 9.83301 1.16699 11.5 3.5s2.5 6.16602 2.5 11.499v442c0 9.33301 -4.33301 14 -13 14h-59zM311 725c34 0 58.833 -8.5 74.5 -25.5
s23.5 -39.833 23.5 -68.5v-519c0 -40 -8.33301 -68.667 -25 -86s-46 -26 -88 -26h-19v-58h-116v58h-18c-42 0 -71.333 8.66699 -88 26s-25 46 -25 86v519c0 28.667 7.83301 51.5 23.5 68.5s40.5 25.5 74.5 25.5h183z" />
    <glyph glyph-name="R" unicode="R" horiz-adv-x="435" 
d="M175 598v-250h71c9.33301 0 14 5 14 15v220c0 10 -4.66699 15 -14 15h-71zM403 295c0 -16 -5.5 -30.667 -16.5 -44s-27.167 -20 -48.5 -20l76 -231h-150l-70 231h-19v-231h-145v725h275c34 0 58.833 -8.5 74.5 -25.5s23.5 -39.833 23.5 -68.5v-336z" />
    <glyph glyph-name="S" unicode="S" horiz-adv-x="386" 
d="M66 0l-25.998 135h156c11.333 0 17 5 17 15v132c0 10 -2 16 -6 18s-11 3 -21 3h-75c-10.667 0 -20.834 0.833008 -30.501 2.5s-18.334 5.5 -26.001 11.5s-13.667 14.333 -18 25s-6.5 25 -6.5 43v246c0 28.667 7.83301 51.5 23.5 68.5s40.5 25.5 74.5 25.5h200l25 -135
h-164c-12 0 -18 -5.33301 -18 -16v-132c0 -7.33301 1.83301 -12.333 5.5 -15s9.16699 -4 16.5 -4h91c23.333 0 41.166 -5.5 53.499 -16.5s18.5 -30.167 18.5 -57.5v-239c0 -40 -8.16699 -68.333 -24.5 -85s-45.166 -25 -86.499 -25h-179z" />
    <glyph glyph-name="T" unicode="T" horiz-adv-x="362" 
d="M316 725l36 -135h-97v-590h-148v590h-97l38 135h268z" />
    <glyph glyph-name="U" unicode="U" horiz-adv-x="435" 
d="M143 0c-42 0 -71.333 8.66699 -88 26s-25 46 -25 86v613h148v-582c0 -5.33301 0.833008 -9.33301 2.5 -12s5.5 -4 11.5 -4h51c6 0 9.83301 1.33301 11.5 4s2.5 6.66699 2.5 12v582h148v-613c0 -40 -8.33301 -68.667 -25 -86s-46 -26 -88 -26h-149z" />
    <glyph glyph-name="V" unicode="V" horiz-adv-x="439" 
d="M282 725h147l-134 -725h-151l-134 725h147l13 -93l49 -375l50 377z" />
    <glyph glyph-name="W" unicode="W" horiz-adv-x="631" 
d="M473 725h148l-114 -725h-132l-60 378l-59 -378h-132l-114 725h148l46 -422l59 422h105l58 -422z" />
    <glyph glyph-name="X" unicode="X" horiz-adv-x="425" 
d="M312 378l103 -378h-147l-56 255l-55 -255h-147l103 378l-99 347h144l54 -255l56 255h143z" />
    <glyph glyph-name="Y" unicode="Y" horiz-adv-x="451" 
d="M302 0h-153v184l-139 541h150l65 -342l66 342h150l-139 -541v-184z" />
    <glyph glyph-name="Z" unicode="Z" horiz-adv-x="371" 
d="M205 135h136l-25 -135h-306l163 590h-151l25 135h314z" />
    <glyph glyph-name="bracketleft" unicode="[" horiz-adv-x="199" 
d="M204 798v-43h-46v-781h46v-45h-174v869h174z" />
    <glyph glyph-name="backslash" unicode="\" horiz-adv-x="363" 
d="M125 732l218 -737h-104l-219 737h105z" />
    <glyph glyph-name="bracketright" unicode="]" horiz-adv-x="199" 
d="M169 798v-869h-174v45h46v781h-46v43h174z" />
    <glyph glyph-name="asciicircum" unicode="^" horiz-adv-x="700" 
d="M350 638l-171 -326h-139l251 435h118l251 -435h-139z" />
    <glyph glyph-name="underscore" unicode="_" horiz-adv-x="382" 
d="M30 -19h322v-114h-322v114z" />
    <glyph glyph-name="grave" unicode="`" horiz-adv-x="385" 
d="M50 911h155l130 -121h-106z" />
    <glyph glyph-name="a" unicode="a" horiz-adv-x="437" 
d="M169 90l-13 -90h-146l131 725h155l131 -725h-146l-13 90h-99zM185 205h67l-33 257z" />
    <glyph glyph-name="b" unicode="b" horiz-adv-x="436" 
d="M174 598l0.000976562 -190h68c5.33301 0 9.66602 1.5 12.999 4.5s5 7.83301 5 14.5v157c0 9.33301 -4.33301 14 -13 14h-73zM262.001 277c0 8 -2 13.501 -6 16.501s-9.33301 4.5 -16 4.5h-66v-171h73c6 0 10 1.16699 12 3.5s3 6.16602 3 11.499v135zM399.001 438.001
c0 -18 -3.5 -33.5 -10.5 -46.5s-20.167 -22.167 -39.5 -27.5c20 -1.33301 34.5 -8.33301 43.5 -21s13.5 -27 13.5 -43v-188c0 -40 -8.33301 -68.667 -25 -86s-46 -26 -88 -26h-263v725h283c28.667 0 50.167 -8 64.5 -24s21.5 -37.333 21.5 -64v-199z" />
    <glyph glyph-name="c" unicode="c" horiz-adv-x="351" 
d="M143 0c-42 0 -71.333 8.66699 -88 26s-25 46 -25 86v524c0 28.667 8.16699 50.667 24.5 66s36.5 23 60.5 23h191l25 -135h-139c-8.66699 0 -13 -4.66699 -13 -14v-427c0 -9.33301 4.33301 -14 13 -14h139l-26 -135h-162z" />
    <glyph glyph-name="d" unicode="d" horiz-adv-x="430" 
d="M174 598v-470.999h68c6 0 9.83301 1.16699 11.5 3.5s2.5 6.16602 2.5 11.499v442c0 9.33301 -4.33301 14 -13 14h-69zM400 112.001c0 -40 -8.33301 -68.667 -25 -86s-46 -26 -88 -26h-257v725h284c28.667 0 50.167 -8 64.5 -24s21.5 -37.333 21.5 -64v-525z" />
    <glyph glyph-name="e" unicode="e" horiz-adv-x="357" 
d="M30 725h282l25 -135h-158v-172h120v-125h-120v-158h152l-25 -135h-276v725z" />
    <glyph glyph-name="f" unicode="f" horiz-adv-x="352" 
d="M30 725h282l25 -135h-158v-172h120v-125h-120v-293h-149v725z" />
    <glyph glyph-name="g" unicode="g" horiz-adv-x="423" 
d="M30 637c0 26.667 7.16699 48 21.5 64s35.833 24 64.5 24h207l25 -135h-159c-8.66699 0 -13 -4.66699 -13 -14v-430c0 -9.33301 4.33301 -14 13 -14h66v286h141v-418h-253c-42 0 -71.333 8.66699 -88 26s-25 46 -25 86v525z" />
    <glyph glyph-name="h" unicode="h" horiz-adv-x="435" 
d="M405 0h-148v290h-79v-290h-148v725h148v-310h79v310h148v-725z" />
    <glyph glyph-name="i" unicode="i" horiz-adv-x="205" 
d="M30 725h145v-725h-145v725z" />
    <glyph glyph-name="j" unicode="j" horiz-adv-x="423" 
d="M27 418l141.001 -0.000976562v-274c0 -9.33301 4.33301 -14 13 -14h53c8.66699 0 13 5 13 15v445h-157l25 135h278v-621c0 -28.667 -8.33301 -53.167 -25 -73.5s-41 -30.5 -73 -30.5h-172c-28.667 0 -51.834 8.33301 -69.501 25s-26.5 39.334 -26.5 68.001v325z" />
    <glyph glyph-name="k" unicode="k" horiz-adv-x="434" 
d="M178 414h22l74 311h150l-87 -334l86 -391h-159l-57 299h-29v-299h-148v725h148v-311v0z" />
    <glyph glyph-name="l" unicode="l" horiz-adv-x="340" 
d="M30 725h149v-590h146l-25 -135h-270v725z" />
    <glyph glyph-name="m" unicode="m" horiz-adv-x="525" 
d="M171 342v-342h-141v725h153l79 -306l79 306h154v-725h-141v342l-92 -290z" />
    <glyph glyph-name="n" unicode="n" horiz-adv-x="421" 
d="M30 725h138l74 -291v291h149v-725h-149l-78 303v-303h-134v725z" />
    <glyph glyph-name="o" unicode="o" horiz-adv-x="436" 
d="M189 598c-8.66699 0 -13 -4.66699 -13 -14v-442c0 -5.33301 0.833008 -9.16602 2.5 -11.499s5.5 -3.5 11.5 -3.5h55c6 0 9.83301 1.16699 11.5 3.5s2.5 6.16602 2.5 11.499v442c0 9.33301 -4.33301 14 -13 14h-57zM406 103c0 -14 -1.66699 -27.167 -5 -39.5
s-9 -23.166 -17 -32.499s-18.667 -16.833 -32 -22.5s-30 -8.5 -50 -8.5h-168c-20 0 -36.667 2.83301 -50 8.5s-24 13.167 -32 22.5s-13.667 20.166 -17 32.499s-5 25.5 -5 39.5v528c0 28.667 7.83301 51.5 23.5 68.5s40.5 25.5 74.5 25.5h180c34 0 58.833 -8.5 74.5 -25.5
s23.5 -39.833 23.5 -68.5v-528z" />
    <glyph glyph-name="p" unicode="p" horiz-adv-x="428" 
d="M174 598v-284.999h72c6 0 9.83301 1.16699 11.5 3.5s2.5 6.16602 2.5 11.499v256c0 9.33301 -4.33301 14 -13 14h-73zM315 725.001c28.667 0 50.167 -7.99902 64.5 -23.999s21.5 -37.333 21.5 -64v-347c0 -14 -1.5 -26.833 -4.5 -38.5s-8.5 -21.834 -16.5 -30.501
s-18.667 -15.5 -32 -20.5s-30 -7.5 -50 -7.5h-124v-193h-144v725h285z" />
    <glyph glyph-name="q" unicode="q" horiz-adv-x="439" 
d="M190 598c-9.33301 0 -14 -5 -14 -15v-441c0 -5.33301 0.833008 -9.16602 2.5 -11.499s5.5 -3.5 11.5 -3.5h58c6 0 9.83301 1.16699 11.5 3.5s2.5 6.16602 2.5 11.499v442c0 9.33301 -4.33301 14 -13 14h-59zM311 725c34 0 58.833 -8.5 74.5 -25.5
s23.5 -39.833 23.5 -68.5v-519c0 -40 -8.33301 -68.667 -25 -86s-46 -26 -88 -26h-19v-58h-116v58h-18c-42 0 -71.333 8.66699 -88 26s-25 46 -25 86v519c0 28.667 7.83301 51.5 23.5 68.5s40.5 25.5 74.5 25.5h183z" />
    <glyph glyph-name="r" unicode="r" horiz-adv-x="435" 
d="M175 598v-250h71c9.33301 0 14 5 14 15v220c0 10 -4.66699 15 -14 15h-71zM403 295c0 -16 -5.5 -30.667 -16.5 -44s-27.167 -20 -48.5 -20l76 -231h-150l-70 231h-19v-231h-145v725h275c34 0 58.833 -8.5 74.5 -25.5s23.5 -39.833 23.5 -68.5v-336z" />
    <glyph glyph-name="s" unicode="s" horiz-adv-x="386" 
d="M66 0l-25.998 135h156c11.333 0 17 5 17 15v132c0 10 -2 16 -6 18s-11 3 -21 3h-75c-10.667 0 -20.834 0.833008 -30.501 2.5s-18.334 5.5 -26.001 11.5s-13.667 14.333 -18 25s-6.5 25 -6.5 43v246c0 28.667 7.83301 51.5 23.5 68.5s40.5 25.5 74.5 25.5h200l25 -135
h-164c-12 0 -18 -5.33301 -18 -16v-132c0 -7.33301 1.83301 -12.333 5.5 -15s9.16699 -4 16.5 -4h91c23.333 0 41.166 -5.5 53.499 -16.5s18.5 -30.167 18.5 -57.5v-239c0 -40 -8.16699 -68.333 -24.5 -85s-45.166 -25 -86.499 -25h-179z" />
    <glyph glyph-name="t" unicode="t" horiz-adv-x="362" 
d="M316 725l36 -135h-97v-590h-148v590h-97l38 135h268z" />
    <glyph glyph-name="u" unicode="u" horiz-adv-x="435" 
d="M143 0c-42 0 -71.333 8.66699 -88 26s-25 46 -25 86v613h148v-582c0 -5.33301 0.833008 -9.33301 2.5 -12s5.5 -4 11.5 -4h51c6 0 9.83301 1.33301 11.5 4s2.5 6.66699 2.5 12v582h148v-613c0 -40 -8.33301 -68.667 -25 -86s-46 -26 -88 -26h-149z" />
    <glyph glyph-name="v" unicode="v" horiz-adv-x="439" 
d="M282 725h147l-134 -725h-151l-134 725h147l13 -93l49 -375l50 377z" />
    <glyph glyph-name="w" unicode="w" horiz-adv-x="631" 
d="M473 725h148l-114 -725h-132l-60 378l-59 -378h-132l-114 725h148l46 -422l59 422h105l58 -422z" />
    <glyph glyph-name="x" unicode="x" horiz-adv-x="425" 
d="M312 378l103 -378h-147l-56 255l-55 -255h-147l103 378l-99 347h144l54 -255l56 255h143z" />
    <glyph glyph-name="y" unicode="y" horiz-adv-x="451" 
d="M302 0h-153v184l-139 541h150l65 -342l66 342h150l-139 -541v-184z" />
    <glyph glyph-name="z" unicode="z" horiz-adv-x="371" 
d="M205 135h136l-25 -135h-306l163 590h-151l25 135h314z" />
    <glyph glyph-name="braceleft" unicode="{" horiz-adv-x="261" 
d="M0 386c22 0.666992 38.499 5.49902 49.499 14.499s18.5 20.5 22.5 34.5s5.66699 29.167 5 45.5l-2 47.5c-1.33301 38 -3.33301 73.667 -6 107s-0.333984 62.333 6.99902 87s23.166 44 47.499 58s62.833 21 115.5 21h42v-46c-24 0.666992 -41.167 -7 -51.5 -23
s-16.5 -35.667 -18.5 -59s-1.83301 -47.666 0.5 -72.999s3.83301 -47 4.5 -65c0.666992 -17.333 0.166992 -35.333 -1.5 -54s-5.66699 -36.334 -12 -53.001s-15.333 -30.834 -27 -42.501s-27.167 -18.834 -46.5 -21.501c19.333 -3.33301 34.833 -10.833 46.5 -22.5
s20.667 -25.667 27 -42s10.333 -34 12 -53s2.16699 -36.833 1.5 -53.5c-0.666992 -18 -2.16699 -39.667 -4.5 -65s-2.5 -49.666 -0.5 -72.999s8.16699 -43.166 18.5 -59.499s27.5 -24.166 51.5 -23.499v-44h-42c-52.667 0 -91.167 7 -115.5 21s-40.166 33.167 -47.499 57.5
s-9.66602 53 -6.99902 86s4.66699 68.833 6 107.5c0.666992 14.667 1.33398 30.167 2.00098 46.5s-1 31.5 -5 45.5s-11.5 25.5 -22.5 34.5s-27.5 13.833 -49.5 14.5v45z" />
    <glyph glyph-name="bar" unicode="|" horiz-adv-x="205" 
d="M165 747v-976h-125v976h125z" />
    <glyph glyph-name="braceright" unicode="}" horiz-adv-x="261" 
d="M261 341c-22 -0.666992 -38.501 -5.49902 -49.501 -14.499s-18.5 -20.5 -22.5 -34.5s-5.66699 -29.167 -5 -45.5s1.33398 -31.833 2.00098 -46.5c1.33301 -38.667 3.33301 -74.5 6 -107.5s0 -61.667 -8 -86s-24.167 -43.5 -48.5 -57.5s-62.833 -21 -115.5 -21h-40v44
c24 -0.666992 41.167 7.16602 51.5 23.499s16.5 36.166 18.5 59.499s1.66699 47.666 -1 72.999s-4.33398 47 -5.00098 65c-0.666992 16.667 -0.166992 34.5 1.5 53.5s5.66699 36.667 12 53s15.333 30.333 27 42s27.167 19.167 46.5 22.5
c-19.333 2.66699 -34.833 9.83398 -46.5 21.501s-20.667 25.834 -27 42.501s-10.333 34.334 -12 53.001s-2.16699 36.667 -1.5 54c0.666992 18 2.33398 39.667 5.00098 65s3 49.666 1 72.999s-8.16699 43 -18.5 59s-27.5 23.667 -51.5 23v46h40
c52.667 0 91.167 -7 115.5 -21s40.5 -33.333 48.5 -58s10.667 -53.667 8 -87s-4.66699 -69 -6 -107l-2 -47.5c-0.666992 -16.333 1 -31.5 5 -45.5s11.5 -25.5 22.5 -34.5s27.5 -13.833 49.5 -14.5v-45z" />
    <glyph glyph-name="asciitilde" unicode="~" horiz-adv-x="426" 
d="M395 441c4 -48 -3.16895 -87.167 -21.502 -117.5s-48.166 -45.5 -89.499 -45.5c-21.333 0 -38.833 4.16699 -52.5 12.5l-40.5 25.5c-10 6 -20.167 10.333 -30.5 13s-20 2.83398 -29 0.500977s-16.5 -7.5 -22.5 -15.5s-9 -19.667 -9 -35h-69c-2 51.333 8 91.333 30 120
s50 43 84 43c14.667 0 28.334 -2.83301 41.001 -8.5s24.5 -11.834 35.5 -18.501l31.5 -18.5c10 -5.66699 19.667 -8.5 29 -8.5c12 0 22.667 3.5 32 10.5s13.333 21.167 12 42.5h69z" />
    <glyph glyph-name="Zcaron" horiz-adv-x="371" 
d="M205 135h136l-25 -135h-306l163 592h-151l25 135h314zM140 762l-112 131h116l54 -72l54 72h118l-113 -131h-117z" />
    <glyph glyph-name="Zcaron" unicode="&#x17d;" horiz-adv-x="371" 
d="M205 135h136l-25 -135h-306l163 592h-151l25 135h314zM140 762l-112 131h116l54 -72l54 72h118l-113 -131h-117z" />
    <glyph glyph-name="zcaron" 
d="M537 242c-102.667 -26 -206.001 -26 -310.001 0c6.66699 -11.333 14.834 -23 24.501 -35s21 -23.333 34 -34s27.5 -19.334 43.5 -26.001s33.667 -10 53 -10c18.667 0 36 3.33301 52 10s30.5 15.334 43.5 26.001s24.5 22 34.5 34s18.333 23.667 25 35zM599.999 340
h-435.998l53 -84c55.333 -13.333 110.166 -19.833 164.499 -19.5s109.166 6.83301 164.499 19.5zM323.001 453c-8.66699 18 -15.6709 36.666 -21.0039 55.999s-13.666 36.666 -24.999 51.999c-2 2.66699 -6.16699 2.66699 -12.5 0s-13 -6.16699 -20 -10.5
s-13 -8.66602 -18 -12.999s-6.83301 -7.16602 -5.5 -8.49902l72 -90c0.666992 -1.33301 2.83398 -1.5 6.50098 -0.5s7.33398 2.33301 11.001 4s6.83398 3.5 9.50098 5.5s3.66699 3.66699 3 5zM418.997 370.999l-37 89l-36 -89h73zM541.997 528.999
c0.666992 1.33301 -1.33203 4.16699 -5.99902 8.5s-10.334 8.66602 -17.001 12.999s-13.167 7.83301 -19.5 10.5s-10.5 2.66699 -12.5 0c-12 -15.333 -20.833 -32.666 -26.5 -51.999s-12.167 -38 -19.5 -56c-1.33301 -1.33301 -0.666016 -3 2.00098 -5s6 -3.83301 10 -5.5
s7.66699 -3 11 -4s5.66602 -0.833008 6.99902 0.5zM656.998 371c0 -38 -7.16699 -73.667 -21.5 -107s-34 -62.5 -59 -87.5s-54.167 -44.667 -87.5 -59s-69 -21.5 -107 -21.5s-73.667 7.16699 -107 21.5s-62.5 34 -87.5 59s-44.833 54.167 -59.5 87.5s-22 69 -22 107
s7.33301 73.667 22 107s34.5 62.5 59.5 87.5s54.167 44.667 87.5 59s69 21.5 107 21.5s73.667 -7.16699 107 -21.5s62.5 -34 87.5 -59s44.667 -54.167 59 -87.5s21.5 -69 21.5 -107zM676.998 371c0 40.667 -7.66699 79 -23 115s-36.333 67.333 -63 94s-58 47.834 -94 63.501
s-74.333 23.5 -115 23.5s-79 -7.83301 -115 -23.5s-67.5 -36.834 -94.5 -63.501s-48.333 -58 -64 -94s-23.5 -74.333 -23.5 -115s7.83301 -78.834 23.5 -114.501s37 -67 64 -94s58.5 -48.333 94.5 -64s74.333 -23.5 115 -23.5s79 7.83301 115 23.5s67.333 37 94 64
s47.667 58.333 63 94s23 73.834 23 114.501zM706.998 104h-26v-69h-19v69h-25v16h70v-16zM723.998 371c0 -47.333 -9 -91.666 -27 -132.999s-42.5 -77.666 -73.5 -108.999s-67.333 -56 -109 -74s-85.834 -27 -132.501 -27c-47.333 0 -91.666 9 -132.999 27
s-77.5 42.667 -108.5 74s-55.5 67.666 -73.5 108.999s-27 85.666 -27 132.999s9 91.833 27 133.5s42.5 78 73.5 109s67.167 55.5 108.5 73.5s85.666 27 132.999 27c46.667 0 90.834 -9 132.501 -27s78 -42.5 109 -73.5s55.5 -67.333 73.5 -109s27 -86.167 27 -133.5z
M795.998 35h-15v69l-17 -69h-16l-17 69v-69h-16v85h25l17 -66l14 66h25v-85z" />
    <glyph glyph-name="zcaron" unicode="&#x17e;" 
d="M537 242c-102.667 -26 -206.001 -26 -310.001 0c6.66699 -11.333 14.834 -23 24.501 -35s21 -23.333 34 -34s27.5 -19.334 43.5 -26.001s33.667 -10 53 -10c18.667 0 36 3.33301 52 10s30.5 15.334 43.5 26.001s24.5 22 34.5 34s18.333 23.667 25 35zM599.999 340
h-435.998l53 -84c55.333 -13.333 110.166 -19.833 164.499 -19.5s109.166 6.83301 164.499 19.5zM323.001 453c-8.66699 18 -15.6709 36.666 -21.0039 55.999s-13.666 36.666 -24.999 51.999c-2 2.66699 -6.16699 2.66699 -12.5 0s-13 -6.16699 -20 -10.5
s-13 -8.66602 -18 -12.999s-6.83301 -7.16602 -5.5 -8.49902l72 -90c0.666992 -1.33301 2.83398 -1.5 6.50098 -0.5s7.33398 2.33301 11.001 4s6.83398 3.5 9.50098 5.5s3.66699 3.66699 3 5zM418.997 370.999l-37 89l-36 -89h73zM541.997 528.999
c0.666992 1.33301 -1.33203 4.16699 -5.99902 8.5s-10.334 8.66602 -17.001 12.999s-13.167 7.83301 -19.5 10.5s-10.5 2.66699 -12.5 0c-12 -15.333 -20.833 -32.666 -26.5 -51.999s-12.167 -38 -19.5 -56c-1.33301 -1.33301 -0.666016 -3 2.00098 -5s6 -3.83301 10 -5.5
s7.66699 -3 11 -4s5.66602 -0.833008 6.99902 0.5zM656.998 371c0 -38 -7.16699 -73.667 -21.5 -107s-34 -62.5 -59 -87.5s-54.167 -44.667 -87.5 -59s-69 -21.5 -107 -21.5s-73.667 7.16699 -107 21.5s-62.5 34 -87.5 59s-44.833 54.167 -59.5 87.5s-22 69 -22 107
s7.33301 73.667 22 107s34.5 62.5 59.5 87.5s54.167 44.667 87.5 59s69 21.5 107 21.5s73.667 -7.16699 107 -21.5s62.5 -34 87.5 -59s44.667 -54.167 59 -87.5s21.5 -69 21.5 -107zM676.998 371c0 40.667 -7.66699 79 -23 115s-36.333 67.333 -63 94s-58 47.834 -94 63.501
s-74.333 23.5 -115 23.5s-79 -7.83301 -115 -23.5s-67.5 -36.834 -94.5 -63.501s-48.333 -58 -64 -94s-23.5 -74.333 -23.5 -115s7.83301 -78.834 23.5 -114.501s37 -67 64 -94s58.5 -48.333 94.5 -64s74.333 -23.5 115 -23.5s79 7.83301 115 23.5s67.333 37 94 64
s47.667 58.333 63 94s23 73.834 23 114.501zM706.998 104h-26v-69h-19v69h-25v16h70v-16zM723.998 371c0 -47.333 -9 -91.666 -27 -132.999s-42.5 -77.666 -73.5 -108.999s-67.333 -56 -109 -74s-85.834 -27 -132.501 -27c-47.333 0 -91.666 9 -132.999 27
s-77.5 42.667 -108.5 74s-55.5 67.666 -73.5 108.999s-27 85.666 -27 132.999s9 91.833 27 133.5s42.5 78 73.5 109s67.167 55.5 108.5 73.5s85.666 27 132.999 27c46.667 0 90.834 -9 132.501 -27s78 -42.5 109 -73.5s55.5 -67.333 73.5 -109s27 -86.167 27 -133.5z
M795.998 35h-15v69l-17 -69h-16l-17 69v-69h-16v85h25l17 -66l14 66h25v-85z" />
    <glyph glyph-name="uni00A0" unicode="&#xa0;" horiz-adv-x="500" 
 />
    <glyph glyph-name="exclamdown" unicode="&#xa1;" horiz-adv-x="201" 
d="M20 -170h161l-36 535h-91zM22 488c0 21.333 7.66699 39.5 23 54.5s33.666 22.5 54.999 22.5s39.666 -7.5 54.999 -22.5s23 -33.167 23 -54.5s-7.66699 -39.666 -23 -54.999s-33.666 -23 -54.999 -23s-39.666 7.66699 -54.999 23s-23 33.666 -23 54.999z" />
    <glyph glyph-name="cent" unicode="&#xa2;" horiz-adv-x="305" 
d="M101 135c-49.333 0 -74 25 -74 75v307c0 50 24.667 75 74 75h27v135h69v-135h68l25 -135h-131c-8 0 -12 -4.33301 -12 -13v-161c0 -8.66699 4 -13 12 -13h131l-25 -135h-68v-135h-69v135h-27z" />
    <glyph glyph-name="sterling" unicode="&#xa3;" horiz-adv-x="394" 
d="M56 635c0 32 9 55.333 27 70s38.667 22 62 22h197l25 -135h-151c-9.33301 0 -14 -5 -14 -15v-168h146l-23 -102h-123v-172h177l-26 -135h-321v135h24v172h-36l13 102h23v226v0z" />
    <glyph glyph-name="currency" unicode="&#xa4;" horiz-adv-x="454" 
d="M170 363c0 -34 3.16699 -60.5 9.5 -79.5s22.166 -28.5 47.499 -28.5c24.667 0 40.167 9.5 46.5 28.5s9.5 45.5 9.5 79.5s-3.16699 60.667 -9.5 80s-21.833 29 -46.5 29c-25.333 0 -41.166 -9.66699 -47.499 -29s-9.5 -46 -9.5 -80zM392 363c0 -22 -1.33301 -44 -4 -66
s-7.66699 -43.667 -15 -65l51 -47l-57 -59l-52 47c-16 -6 -30.5 -10 -43.5 -12s-27.833 -3 -44.5 -3s-31.5 1 -44.5 3s-27.5 6 -43.5 12l-52 -47l-57 59l50 47c-6.66699 21.333 -11.334 43 -14.001 65s-4 44 -4 66c0 22.667 1.33301 44.834 4 66.501
s7.33398 43.167 14.001 64.5l-50 47l57 59l52 -46c16 5.33301 30.5 9 43.5 11s27.833 3 44.5 3s31.5 -1 44.5 -3s27.5 -5.66699 43.5 -11l52 46l57 -59l-51 -47c7.33301 -21.333 12.333 -42.833 15 -64.5s4 -43.834 4 -66.501z" />
    <glyph glyph-name="yen" unicode="&#xa5;" horiz-adv-x="492" 
d="M73 192h99v37h-111l13 89h82l-146 409h153l83 -282l83 282h153l-146 -409h98l-13 -89h-103v-37h115l-12 -89h-103v-103h-146v103h-111z" />
    <glyph glyph-name="brokenbar" unicode="&#xa6;" horiz-adv-x="205" 
d="M165 -229h-125v391h125v-391zM165 356h-125v391h125v-391z" />
    <glyph glyph-name="section" unicode="&#xa7;" horiz-adv-x="418" 
d="M273 333c0 20 -4.33301 37 -13 51s-18.667 25.333 -30 34h-49c-15.333 0 -24.833 -2.33301 -28.5 -7s-5.5 -11.667 -5.5 -21v-29c0 -12.667 3.66699 -22.667 11 -30c2 -2.66699 5.33301 -6.66699 10 -12s8.66699 -9.33301 12 -12h76c7.33301 0 12 3 14 9s3 11.667 3 17z
M388 319c0 -10.667 -1.83301 -21.1631 -5.5 -31.4961s-9.66699 -19.666 -18 -27.999s-19.5 -15.166 -33.5 -20.499s-31 -8 -51 -8h-7c11.333 -13.333 20 -32.5 26 -57.5s9 -52.5 9 -82.5c0 -10.667 -1.5 -21.334 -4.5 -32.001s-8.33301 -20.334 -16 -29.001
s-18 -15.834 -31 -21.501s-29.833 -8.5 -50.5 -8.5h-154v99h120c7.33301 0 12 1.5 14 4.5s3 7.16699 3 12.5c0 21.333 -4 38.333 -12 51s-17.833 23.667 -29.5 33s-24.334 17.666 -38.001 24.999s-26.5 16.166 -38.5 26.499s-21.833 23.166 -29.5 38.499
s-11.5 35.333 -11.5 60v69c0 10.667 2.66699 21.167 8 31.5s12.833 19.5 22.5 27.5s21.667 14.5 36 19.5s30.5 7.5 48.5 7.5c-9.33301 8.66699 -17.166 18.667 -23.499 30s-9.5 23 -9.5 35v70c0 6.66699 1.5 14.667 4.5 24s8 18.5 15 27.5s16.5 16.833 28.5 23.5
s27.333 10.667 46 12h153v-89h-98c-14.667 0 -23.5 -2.83301 -26.5 -8.5s-4.5 -13.167 -4.5 -22.5v-22c0 -6 0.5 -11.333 1.5 -16s3.16699 -9.33398 6.5 -14.001c5.33301 -5.33301 11.333 -10.5 18 -15.5l21 -15.5c12 -7.33301 24.667 -14.666 38 -21.999s25.333 -18 36 -32
s19.5 -32.667 26.5 -56s10.5 -55 10.5 -95z" />
    <glyph glyph-name="dieresis" unicode="&#xa8;" horiz-adv-x="501" 
d="M78 864c0 20.667 7 38.334 21 53.001s31.667 22 53 22c20.667 0 38 -7.33301 52 -22s21 -32.334 21 -53.001s-7 -38.334 -21 -53.001s-31.333 -22 -52 -22c-21.333 0 -39 7.33301 -53 22s-21 32.334 -21 53.001zM276 864c0 20.667 7 38.334 21 53.001s31.333 22 52 22
s38.167 -7.33301 52.5 -22s21.5 -32.334 21.5 -53.001s-7.16699 -38.334 -21.5 -53.001s-31.833 -22 -52.5 -22s-38 7.33301 -52 22s-21 32.334 -21 53.001z" />
    <glyph glyph-name="copyright" unicode="&#xa9;" horiz-adv-x="800" 
d="M401 727c49.333 0 96.166 -9.16699 140.499 -27.5s83.166 -43.666 116.499 -75.999s59.833 -70.833 79.5 -115.5s29.5 -93.334 29.5 -146.001c0 -53.333 -9.83301 -102.5 -29.5 -147.5s-46.167 -83.833 -79.5 -116.5s-72.166 -58.167 -116.499 -76.5
s-91.166 -27.5 -140.499 -27.5c-50 0 -97.167 9.16699 -141.5 27.5s-83.333 43.833 -117 76.5s-60.334 71.5 -80.001 116.5s-29.5 94.167 -29.5 147.5c0 52.667 9.83301 101.334 29.5 146.001s46.334 83.167 80.001 115.5s72.667 57.666 117 75.999s91.5 27.5 141.5 27.5z
M401 665c-41.333 0 -80 -7.66699 -116 -23s-67.167 -36.5 -93.5 -63.5s-47 -59 -62 -96s-22.5 -77.167 -22.5 -120.5c0 -44 7.5 -84.667 22.5 -122s35.667 -69.5 62 -96.5s57.5 -48.167 93.5 -63.5s74.667 -23 116 -23c40.667 0 78.834 7.66699 114.501 23
s66.667 36.5 93 63.5s47 59.167 62 96.5s22.5 78 22.5 122c0 43.333 -7.5 83.5 -22.5 120.5s-35.667 69 -62 96s-57.333 48.167 -93 63.5s-73.834 23 -114.501 23zM592 293c-4.66699 -24 -12.499 -45.6699 -23.499 -65.0029s-24.333 -35.666 -40 -48.999
s-33.334 -23.666 -53.001 -30.999s-40.5 -11 -62.5 -11c-32.667 0 -62.167 5.83301 -88.5 17.5s-48.833 27.5 -67.5 47.5s-33.167 43.833 -43.5 71.5s-15.5 57.5 -15.5 89.5s4.83301 61.667 14.5 89s23.667 50.833 42 70.5s40.666 35.167 66.999 46.5s55.833 17 88.5 17
c22.667 0 44.334 -3.33301 65.001 -10s39 -16.5 55 -29.5s29.333 -28.833 40 -47.5s17.667 -40.334 21 -65.001h-65c-5.33301 26.667 -18.333 48.167 -39 64.5s-46 24.5 -76 24.5c-22.667 0 -42.667 -4.16699 -60 -12.5s-31.833 -19.666 -43.5 -33.999
s-20.5 -31.166 -26.5 -50.499s-9 -40 -9 -62s3.33301 -42.833 10 -62.5s16 -37 28 -52s26.667 -27 44 -36s37 -13.5 59 -13.5c30.667 0 56.167 8.5 76.5 25.5s32.5 39.5 36.5 67.5h66z" />
    <glyph glyph-name="ordfeminine" unicode="&#xaa;" horiz-adv-x="289" 
d="M126 647c-5.33301 0 -8 -2.66699 -8 -8v-178c0 -4.66699 2.66699 -7 8 -7h45v193h-45zM259 369h-87.999v24l-20 -24h-73c-14.667 0 -26.334 4 -35.001 12s-13 20 -13 36v260c0 33.333 16.667 50 50 50h179v-358z" />
    <glyph glyph-name="guillemotleft" unicode="&#xab;" horiz-adv-x="435" 
d="M306 471h119l-118 -198l118 -198h-119l-121 198zM132 471h122l-121 -198l121 -198h-122l-117 198z" />
    <glyph glyph-name="logicalnot" unicode="&#xac;" horiz-adv-x="438" 
d="M40 451h368v-256h-129v137h-249z" />
    <glyph glyph-name="uni00AD" unicode="&#xad;" horiz-adv-x="333" 
d="M40 411h263l-10 -119h-263z" />
    <glyph glyph-name="registered" unicode="&#xae;" horiz-adv-x="800" 
d="M401 727c49.333 0 96.166 -9.16699 140.499 -27.5s83.166 -43.666 116.499 -75.999s59.833 -70.833 79.5 -115.5s29.5 -93.334 29.5 -146.001c0 -53.333 -9.83301 -102.5 -29.5 -147.5s-46.167 -83.833 -79.5 -116.5s-72.166 -58.167 -116.499 -76.5
s-91.166 -27.5 -140.499 -27.5c-50 0 -97.167 9.16699 -141.5 27.5s-83.333 43.833 -117 76.5s-60.334 71.5 -80.001 116.5s-29.5 94.167 -29.5 147.5c0 52.667 9.83301 101.334 29.5 146.001s46.334 83.167 80.001 115.5s72.667 57.666 117 75.999s91.5 27.5 141.5 27.5z
M401 665c-41.333 0 -80 -7.66699 -116 -23s-67.167 -36.5 -93.5 -63.5s-47 -59 -62 -96s-22.5 -77.167 -22.5 -120.5c0 -44 7.5 -84.667 22.5 -122s35.667 -69.5 62 -96.5s57.5 -48.167 93.5 -63.5s74.667 -23 116 -23c40.667 0 78.834 7.66699 114.501 23
s66.667 36.5 93 63.5s47 59.167 62 96.5s22.5 78 22.5 122c0 43.333 -7.5 83.5 -22.5 120.5s-35.667 69 -62 96s-57.333 48.167 -93 63.5s-73.834 23 -114.501 23zM323 150h-62v423h159c48.667 0 85 -9.66699 109 -29s36 -50 36 -92c-1.33301 -38 -11.5 -65.833 -30.5 -83.5
s-44.167 -28.5 -75.5 -32.5l119 -186h-71l-111 184h-73v-184zM400 385c13.333 0 26.166 0.5 38.499 1.5s23.333 4 33 9s17.334 12.167 23.001 21.5s8.5 22.666 8.5 39.999c0 14 -2.66699 25.167 -8 33.5s-12.5 14.833 -21.5 19.5s-19 7.83398 -30 9.50098
s-21.833 2.5 -32.5 2.5h-88v-137h77z" />
    <glyph glyph-name="macron" unicode="&#xaf;" horiz-adv-x="431" 
d="M73 856h285l23 -92h-331z" />
    <glyph glyph-name="degree" unicode="&#xb0;" horiz-adv-x="312" 
d="M30 614c0 18 3.5 35 10.5 51s16.333 29.833 28 41.5s25.5 21 41.5 28s33 10.5 51 10.5s35 -3.5 51 -10.5s29.833 -16.333 41.5 -28s21 -25.5 28 -41.5s10.5 -33 10.5 -51s-3.5 -35 -10.5 -51s-16.333 -29.833 -28 -41.5s-25.5 -21 -41.5 -28s-33 -10.5 -51 -10.5
s-35 3.5 -51 10.5s-29.833 16.333 -41.5 28s-21 25.5 -28 41.5s-10.5 33 -10.5 51zM111 613c0 -14 4.66699 -25.667 14 -35s21 -14 35 -14s25.833 4.66699 35.5 14s14.5 21 14.5 35s-4.83301 25.833 -14.5 35.5s-21.5 14.5 -35.5 14.5s-25.667 -4.83301 -35 -14.5
s-14 -21.5 -14 -35.5z" />
    <glyph glyph-name="plusminus" unicode="&#xb1;" horiz-adv-x="477" 
d="M30 423h160v168h99v-168h158v-98h-158v-125h158v-99h-417v99h160v125h-160v98z" />
    <glyph glyph-name="twosuperior" unicode="&#xb2;" horiz-adv-x="263" 
d="M243 542c0 -12.667 -2 -22.5 -6 -29.5s-11.667 -14.167 -23 -21.5l-92 -73c-3.33301 -2.66699 -5 -6.66699 -5 -12v-76h117l-17 -90h-197v175c0 15.333 2.16699 28.333 6.5 39s12.833 20 25.5 28l91 70c4.66699 3.33301 7 7 7 11v65c0 6 -3 9 -9 9h-119l17 90h139
c43.333 0 65 -21.667 65 -65v-120z" />
    <glyph glyph-name="threesuperior" unicode="&#xb3;" horiz-adv-x="259" 
d="M38 240l-17.001 90.001h97c4.66699 0 8.16699 0.666992 10.5 2s3.5 5 3.5 11v79c0 4 -0.666992 7 -2 9s-4.66602 3 -9.99902 3h-75v84h73c9.33301 0 14 4.33301 14 13v94c0 5.33301 -1 8.66602 -3 9.99902s-5 2 -9 2h-100l17 90h125c43.333 0 65 -21.333 65 -64v-136
c0 -11.333 -2.33301 -20.833 -7 -28.5s-15 -12.167 -31 -13.5c16.667 0 27.5 -4.83301 32.5 -14.5s7.5 -21.167 7.5 -34.5v-131c0 -43.333 -21.667 -65 -65 -65h-126z" />
    <glyph glyph-name="acute" unicode="&#xb4;" horiz-adv-x="385" 
d="M156 790h-106l130 121h155z" />
    <glyph glyph-name="mu" unicode="&#xb5;" horiz-adv-x="405" 
d="M242 36c-3.33301 -12 -10.168 -21 -20.501 -27s-23.166 -9 -38.499 -9h-22v-192h-131v727h133v-403c0 -8 4 -12 12 -12h55c8 0 12 4 12 12v403h133v-535h-133v36z" />
    <glyph glyph-name="mu" unicode="&#x3bc;" horiz-adv-x="405" 
d="M242 36c-3.33301 -12 -10.168 -21 -20.501 -27s-23.166 -9 -38.499 -9h-22v-192h-131v727h133v-403c0 -8 4 -12 12 -12h55c8 0 12 4 12 12v403h133v-535h-133v36z" />
    <glyph glyph-name="paragraph" unicode="&#xb6;" horiz-adv-x="581" 
d="M551 596h-27.001v-596h-130v596h-76v-596h-126v259h-27c-27.333 0 -49.833 3.16699 -67.5 9.5s-31.5 14.5 -41.5 24.5s-16.833 21.333 -20.5 34s-5.5 25.667 -5.5 39v243c0 38 10.833 67.167 32.5 87.5s49.834 30.5 84.501 30.5h404v-131z" />
    <glyph glyph-name="periodcentered" unicode="&#xb7;" horiz-adv-x="216" 
d="M30 363c0 21.333 7.66699 39.666 23 54.999s33.666 23 54.999 23s39.666 -7.66699 54.999 -23s23 -33.666 23 -54.999s-7.66699 -39.5 -23 -54.5s-33.666 -22.5 -54.999 -22.5s-39.666 7.5 -54.999 22.5s-23 33.167 -23 54.5z" />
    <glyph glyph-name="cedilla" unicode="&#xb8;" horiz-adv-x="339" 
d="M65 -131c7.33301 -6.66699 17.667 -12.334 31 -17.001s26 -7 38 -7c12.667 0 23.667 2.83301 33 8.5s14 15.167 14 28.5c0 8.66699 -3.33301 16.167 -10 22.5s-14.667 9.5 -24 9.5c-6.66699 0 -13.167 -0.666992 -19.5 -2s-13.166 -3.66602 -20.499 -6.99902l-37 22
l59 86h67l-36 -58c8.66699 2 18 3 28 3c24 0 44.5 -6.5 61.5 -19.5s25.5 -32.167 25.5 -57.5c0 -16 -3.33301 -30 -10 -42s-15.334 -22 -26.001 -30s-23 -14 -37 -18s-28.333 -6 -43 -6c-20 -0.666992 -40.167 1.83301 -60.5 7.5s-38.5 14.167 -54.5 25.5z" />
    <glyph glyph-name="onesuperior" unicode="&#xb9;" horiz-adv-x="213" 
d="M57 727h103v-397h33v-90h-164v90h32v307h-41z" />
    <glyph glyph-name="ordmasculine" unicode="&#xba;" horiz-adv-x="289" 
d="M163 451c5.33301 0 8 2.33301 8 7v184c0 5.33301 -2.66699 8 -8 8h-37c-5.33301 0 -8 -2.66699 -8 -8v-184c0 -4.66699 2.66699 -7 8 -7h37zM30 677c0 33.333 16.667 50 50 50h130c32.667 0 49 -16.667 49 -50v-258c0 -33.333 -16.333 -50 -49 -50h-130
c-33.333 0 -50 16.667 -50 50v258z" />
    <glyph glyph-name="guillemotright" unicode="&#xbb;" horiz-adv-x="435" 
d="M255 273l-121 -198h-119l118 198l-118 198h119zM425 273l-117 -198h-122l121 198l-121 198h122z" />
    <glyph glyph-name="onequarter" unicode="&#xbc;" horiz-adv-x="751" 
d="M60 727h116v-444h37v-101h-184v101h36v343h-45zM514 742l-224 -756h-88l223 756h89zM549 545h152v-360h30v-86h-30v-99h-107v99h-166v123l121 303v20zM594 185v209l-62 -177v-32h62z" />
    <glyph glyph-name="onehalf" unicode="&#xbd;" horiz-adv-x="766" 
d="M741 338c0 -14 -2.33203 -25 -6.99902 -33s-13.334 -16.333 -26.001 -25l-102 -81c-4 -2.66699 -6 -7 -6 -13v-85h132l-20 -101h-220v196c0 17.333 2.5 31.833 7.5 43.5s14.167 22.167 27.5 31.5l103 78c4.66699 4 7 8 7 12v73c0 6.66699 -3.33301 10 -10 10h-133l19 101
h156c48 0 72 -24.333 72 -73v-134zM60.001 727h116v-444h37v-101h-184v101h36v343h-45zM514.001 742l-224 -756h-88l223 756h89z" />
    <glyph glyph-name="threequarters" unicode="&#xbe;" horiz-adv-x="783" 
d="M547 742l-221 -756h-88l220 756h89zM581 545h152v-360h30v-86h-30v-99h-107v99h-166v123l121 303v20zM626 185v209l-62 -177v-32h62zM39 182l-18.001 101.001h111c5.33301 0 9.16602 0.666992 11.499 2s3.5 5.33301 3.5 12v89c0 4 -0.666992 7.16699 -2 9.5
s-5 3.5 -11 3.5h-86v94h84c6 0 10 1 12 3s3 6 3 12v104c0 6 -1 9.83301 -3 11.5s-5 2.5 -9 2.5h-115l19 101h139c48.667 0 73 -23.667 73 -71v-152c0 -12.667 -2.66699 -23.5 -8 -32.5s-16.666 -14.167 -33.999 -15.5c18.667 0 30.834 -5.33301 36.501 -16
s8.5 -23.334 8.5 -38.001v-147c0 -48.667 -24.333 -73 -73 -73h-142z" />
    <glyph glyph-name="questiondown" unicode="&#xbf;" horiz-adv-x="364" 
d="M30 180c0 21.333 6.33301 38.666 19 51.999s32.667 20 60 20h77v113h120v-191c0 -11.333 -4 -21.166 -12 -29.499s-18 -12.5 -30 -12.5h-78c-6.66699 0 -10.667 -1 -12 -3s-2 -5.66699 -2 -11v-140c0 -8.66699 4.33301 -13 13 -13h169l-25 -135h-204
c-63.333 0 -95 31.667 -95 95v255zM322 488c0 -21.333 -7.66699 -39.666 -23 -54.999s-33.666 -23 -54.999 -23s-39.666 7.66699 -54.999 23s-23 33.666 -23 54.999s7.66699 39.5 23 54.5s33.666 22.5 54.999 22.5s39.666 -7.5 54.999 -22.5s23 -33.167 23 -54.5z" />
    <glyph glyph-name="Agrave" unicode="&#xc0;" horiz-adv-x="437" 
d="M268 90l13 -90h146l-131 727h-155l-131 -727h146l13 90h99zM219 464l33 -259h-67zM-12 885h155l130 -121h-106z" />
    <glyph glyph-name="Aacute" unicode="&#xc1;" horiz-adv-x="437" 
d="M169 90l-13 -90h-146l131 727h155l131 -727h-146l-13 90h-99zM185 205h67l-33 259zM273 762h-106l130 121h155z" />
    <glyph glyph-name="Acircumflex" unicode="&#xc2;" horiz-adv-x="437" 
d="M169 90l-13 -90h-146l131 727h155l131 -727h-146l-13 90h-99zM185 205h67l-33 259zM277 893l113 -131h-118l-54 72l-54 -72h-116l112 131h117z" />
    <glyph glyph-name="Atilde" unicode="&#xc3;" horiz-adv-x="437" 
d="M169 90l-13 -90h-146l131 727h155l131 -727h-146l-13 90h-99zM185 205h67l-33 259zM390 884c3.33301 -38 -2.83984 -68.667 -18.5068 -92s-42.5 -35 -80.5 -35c-15.333 0 -28.666 2.16699 -39.999 6.5s-22.166 9 -32.499 14s-20.666 9.66699 -30.999 14
s-21.833 6.5 -34.5 6.5c-24.667 0 -37 -14 -37 -42h-63c-1.33301 40 7.83398 71.333 27.501 94s45.5 34 77.5 34c14 0 27 -2.16699 39 -6.5s23.333 -9.33301 34 -15s20.834 -10.667 30.501 -15s18.834 -6.5 27.501 -6.5c11.333 0 20.833 3.83301 28.5 11.5
s10.834 18.167 9.50098 31.5h63z" />
    <glyph glyph-name="Adieresis" unicode="&#xc4;" horiz-adv-x="437" 
d="M169 90l-13 -90h-146l131 727h155l131 -727h-146l-13 90h-99zM185 205h67l-33 259zM47 828c0 20.667 7 38.334 21 53.001s31.667 22 53 22c20.667 0 38 -7.33301 52 -22s21 -32.334 21 -53.001s-7 -38.334 -21 -53.001s-31.333 -22 -52 -22c-21.333 0 -39 7.33301 -53 22
s-21 32.334 -21 53.001zM245 828c0 20.667 7 38.334 21 53.001s31.333 22 52 22s38.167 -7.33301 52.5 -22s21.5 -32.334 21.5 -53.001s-7.16699 -38.334 -21.5 -53.001s-31.833 -22 -52.5 -22s-38 7.33301 -52 22s-21 32.334 -21 53.001z" />
    <glyph glyph-name="Aring" unicode="&#xc5;" horiz-adv-x="437" 
d="M169 90l-13 -90h-146l131 727h155l131 -727h-146l-13 90h-99zM185 205h67l-33 259zM117 858c0 14 2.66699 27.333 8 40s12.666 23.667 21.999 33s20 16.666 32 21.999s25 8 39 8s27.333 -2.66699 40 -8s23.667 -12.666 33 -21.999s16.666 -20.333 21.999 -33s8 -26 8 -40
s-2.66699 -27 -8 -39s-12.666 -22.667 -21.999 -32s-20.333 -16.666 -33 -21.999s-26 -8 -40 -8s-27 2.66699 -39 8s-22.667 12.666 -32 21.999s-16.666 20 -21.999 32s-8 25 -8 39zM181 858c0 -10 3.66699 -18.667 11 -26s16 -11 26 -11c10.667 0 19.834 3.66699 27.501 11
s11.5 16 11.5 26c0 10.667 -3.83301 19.834 -11.5 27.501s-16.834 11.5 -27.501 11.5c-10 0 -18.667 -3.83301 -26 -11.5s-11 -16.834 -11 -27.501z" />
    <glyph glyph-name="AE" unicode="&#xc6;" horiz-adv-x="636" 
d="M195 90l-30 -90h-155l267 727h314l25 -135h-158v-174h120v-125h-120v-158h152l-25 -135h-272v90h-118zM232 205h81v259z" />
    <glyph glyph-name="Ccedilla" unicode="&#xc7;" horiz-adv-x="351" 
d="M105 -131c7.33301 -6.66699 17.666 -12.334 30.999 -17.001s26 -7 38 -7c12.667 0 23.667 2.83301 33 8.5s14 15.167 14 28.5c0 8.66699 -3.33301 16.167 -10 22.5s-14.667 9.5 -24 9.5c-6.66699 0 -13.167 -0.666992 -19.5 -2s-13.166 -3.66602 -20.499 -6.99902l-37 22
l50 73h-19c-41.333 -0 -70.166 8.33301 -86.499 25s-24.5 45 -24.5 85v528c0 28.667 8.5 50.667 25.5 66s37.833 23 62.5 23h188l25 -135h-139c-8.66699 0 -13 -4.66699 -13 -14v-429c0 -9.33301 4.33301 -14 13 -14h139l-26 -135h-77l-28 -45c8.66699 2 18 3 28 3
c24 0 44.5 -6.5 61.5 -19.5s25.5 -32.167 25.5 -57.5c0 -16 -3.33301 -30 -10 -42s-15.334 -22 -26.001 -30s-23 -14 -37 -18s-28.333 -6 -43 -6c-20 -0.666992 -40.167 1.83301 -60.5 7.5s-38.5 14.167 -54.5 25.5z" />
    <glyph glyph-name="Egrave" unicode="&#xc8;" horiz-adv-x="357" 
d="M30 727h282l25 -135h-158v-174h120v-125h-120v-158h152l-25 -135h-276v727zM-42 885h155l130 -121h-106z" />
    <glyph glyph-name="Eacute" unicode="&#xc9;" horiz-adv-x="357" 
d="M30 727h282l25 -135h-158v-174h120v-125h-120v-158h152l-25 -135h-276v727zM231 762h-106l130 121h155z" />
    <glyph glyph-name="Ecircumflex" unicode="&#xca;" horiz-adv-x="357" 
d="M30 727h282l25 -135h-158v-174h120v-125h-120v-158h152l-25 -135h-276v727zM237 893l113 -131h-118l-54 72l-54 -72h-116l112 131h117z" />
    <glyph glyph-name="Edieresis" unicode="&#xcb;" horiz-adv-x="357" 
d="M30 727h282l25 -135h-158v-174h120v-125h-120v-158h152l-25 -135h-276v727zM7 828c0 20.667 7 38.334 21 53.001s31.667 22 53 22c20.667 0 38 -7.33301 52 -22s21 -32.334 21 -53.001s-7 -38.334 -21 -53.001s-31.333 -22 -52 -22c-21.333 0 -39 7.33301 -53 22
s-21 32.334 -21 53.001zM205 828c0 20.667 7 38.334 21 53.001s31.333 22 52 22s38.167 -7.33301 52.5 -22s21.5 -32.334 21.5 -53.001s-7.16699 -38.334 -21.5 -53.001s-31.833 -22 -52.5 -22s-38 7.33301 -52 22s-21 32.334 -21 53.001z" />
    <glyph glyph-name="Igrave" unicode="&#xcc;" horiz-adv-x="205" 
d="M30 727h145v-727h-145v727zM-130 885h155l130 -121h-106z" />
    <glyph glyph-name="Iacute" unicode="&#xcd;" horiz-adv-x="205" 
d="M30 727h145v-727h-145v727zM156 762h-106l130 121h155z" />
    <glyph glyph-name="Icircumflex" unicode="&#xce;" horiz-adv-x="205" 
d="M30 727h145v-727h-145v727zM162 893l113 -131h-118l-54 72l-54 -72h-116l112 131h117z" />
    <glyph glyph-name="Idieresis" unicode="&#xcf;" horiz-adv-x="205" 
d="M30 727h145v-727h-145v727zM-69 828c0 20.667 7 38.334 21 53.001s31.667 22 53 22c20.667 0 38 -7.33301 52 -22s21 -32.334 21 -53.001s-7 -38.334 -21 -53.001s-31.333 -22 -52 -22c-21.333 0 -39 7.33301 -53 22s-21 32.334 -21 53.001zM129 828
c0 20.667 7 38.334 21 53.001s31.333 22 52 22s38.167 -7.33301 52.5 -22s21.5 -32.334 21.5 -53.001s-7.16699 -38.334 -21.5 -53.001s-31.833 -22 -52.5 -22s-38 7.33301 -52 22s-21 32.334 -21 53.001z" />
    <glyph glyph-name="Eth" unicode="&#xd0;" horiz-adv-x="445" 
d="M20 423h20v304h278c64.667 0 97 -32.333 97 -97v-533c0 -64.667 -32.333 -97 -97 -97h-278v303h-30zM184 600v-176.999h45l-10 -120h-35v-176h73c6 0 9.83301 1.16699 11.5 3.5s2.5 6.16602 2.5 11.499v444c0 9.33301 -4.33301 14 -13 14h-74z" />
    <glyph glyph-name="Ntilde" unicode="&#xd1;" horiz-adv-x="421" 
d="M30 727h138l74 -293v293h149v-727h-149l-78 303v-303h-134v727zM383 884c3.33301 -38 -2.83984 -68.667 -18.5068 -92s-42.5 -35 -80.5 -35c-15.333 0 -28.666 2.16699 -39.999 6.5s-22.166 9 -32.499 14s-20.666 9.66699 -30.999 14s-21.833 6.5 -34.5 6.5
c-24.667 0 -37 -14 -37 -42h-63c-1.33301 40 7.83398 71.333 27.501 94s45.5 34 77.5 34c14 0 27 -2.16699 39 -6.5s23.333 -9.33301 34 -15s20.834 -10.667 30.501 -15s18.834 -6.5 27.501 -6.5c11.333 0 20.833 3.83301 28.5 11.5s10.834 18.167 9.50098 31.5h63z" />
    <glyph glyph-name="Ograve" unicode="&#xd2;" horiz-adv-x="436" 
d="M246 600c8.66699 0 13 -4.66699 13 -14v-444c0 -5.33301 -0.833008 -9.16602 -2.5 -11.499s-5.5 -3.5 -11.5 -3.5h-55c-6 0 -9.83301 1.16699 -11.5 3.5s-2.5 6.16602 -2.5 11.499v444c0 9.33301 4.33301 14 13 14h57zM406 633c0 28.667 -7.66699 51.5 -23 68.5
s-40 25.5 -74 25.5h-182c-34 0 -58.667 -8.5 -74 -25.5s-23 -39.833 -23 -68.5v-530c0 -14 1.5 -27.167 4.5 -39.5s8.5 -23.166 16.5 -32.499s18.667 -16.833 32 -22.5s30 -8.5 50 -8.5h170c20 0 36.667 2.83301 50 8.5s24 13.167 32 22.5s13.5 20.166 16.5 32.499
s4.5 25.5 4.5 39.5v530zM-10 885h155l130 -121h-106z" />
    <glyph glyph-name="Oacute" unicode="&#xd3;" horiz-adv-x="436" 
d="M189 600c-8.66699 0 -13 -4.66699 -13 -14v-444c0 -5.33301 0.833008 -9.16602 2.5 -11.499s5.5 -3.5 11.5 -3.5h55c6 0 9.83301 1.16699 11.5 3.5s2.5 6.16602 2.5 11.499v444c0 9.33301 -4.33301 14 -13 14h-57zM406 103c0 -14 -1.5 -27.167 -4.5 -39.5
s-8.5 -23.166 -16.5 -32.499s-18.667 -16.833 -32 -22.5s-30 -8.5 -50 -8.5h-170c-20 0 -36.667 2.83301 -50 8.5s-24 13.167 -32 22.5s-13.5 20.166 -16.5 32.499s-4.5 25.5 -4.5 39.5v530c0 28.667 7.66699 51.5 23 68.5s40 25.5 74 25.5h182c34 0 58.667 -8.5 74 -25.5
s23 -39.833 23 -68.5v-530zM267 762h-106l130 121h155z" />
    <glyph glyph-name="Ocircumflex" unicode="&#xd4;" horiz-adv-x="436" 
d="M189 600c-8.66699 0 -13 -4.66699 -13 -14v-444c0 -5.33301 0.833008 -9.16602 2.5 -11.499s5.5 -3.5 11.5 -3.5h55c6 0 9.83301 1.16699 11.5 3.5s2.5 6.16602 2.5 11.499v444c0 9.33301 -4.33301 14 -13 14h-57zM406 103c0 -14 -1.5 -27.167 -4.5 -39.5
s-8.5 -23.166 -16.5 -32.499s-18.667 -16.833 -32 -22.5s-30 -8.5 -50 -8.5h-170c-20 0 -36.667 2.83301 -50 8.5s-24 13.167 -32 22.5s-13.5 20.166 -16.5 32.499s-4.5 25.5 -4.5 39.5v530c0 28.667 7.66699 51.5 23 68.5s40 25.5 74 25.5h182c34 0 58.667 -8.5 74 -25.5
s23 -39.833 23 -68.5v-530zM277 893l113 -131h-118l-54 72l-54 -72h-116l112 131h117z" />
    <glyph glyph-name="Otilde" unicode="&#xd5;" horiz-adv-x="436" 
d="M189 600c-8.66699 0 -13 -4.66699 -13 -14v-444c0 -5.33301 0.833008 -9.16602 2.5 -11.499s5.5 -3.5 11.5 -3.5h55c6 0 9.83301 1.16699 11.5 3.5s2.5 6.16602 2.5 11.499v444c0 9.33301 -4.33301 14 -13 14h-57zM406 103c0 -14 -1.5 -27.167 -4.5 -39.5
s-8.5 -23.166 -16.5 -32.499s-18.667 -16.833 -32 -22.5s-30 -8.5 -50 -8.5h-170c-20 0 -36.667 2.83301 -50 8.5s-24 13.167 -32 22.5s-13.5 20.166 -16.5 32.499s-4.5 25.5 -4.5 39.5v530c0 28.667 7.66699 51.5 23 68.5s40 25.5 74 25.5h182c34 0 58.667 -8.5 74 -25.5
s23 -39.833 23 -68.5v-530zM386 884c3.33301 -38 -2.83984 -68.667 -18.5068 -92s-42.5 -35 -80.5 -35c-15.333 0 -28.666 2.16699 -39.999 6.5s-22.166 9 -32.499 14s-20.666 9.66699 -30.999 14s-21.833 6.5 -34.5 6.5c-24.667 0 -37 -14 -37 -42h-63
c-1.33301 40 7.83398 71.333 27.501 94s45.5 34 77.5 34c14 0 27 -2.16699 39 -6.5s23.333 -9.33301 34 -15s20.834 -10.667 30.501 -15s18.834 -6.5 27.501 -6.5c11.333 0 20.833 3.83301 28.5 11.5s10.834 18.167 9.50098 31.5h63z" />
    <glyph glyph-name="Odieresis" unicode="&#xd6;" horiz-adv-x="436" 
d="M189 600c-8.66699 0 -13 -4.66699 -13 -14v-444c0 -5.33301 0.833008 -9.16602 2.5 -11.499s5.5 -3.5 11.5 -3.5h55c6 0 9.83301 1.16699 11.5 3.5s2.5 6.16602 2.5 11.499v444c0 9.33301 -4.33301 14 -13 14h-57zM406 103c0 -14 -1.5 -27.167 -4.5 -39.5
s-8.5 -23.166 -16.5 -32.499s-18.667 -16.833 -32 -22.5s-30 -8.5 -50 -8.5h-170c-20 0 -36.667 2.83301 -50 8.5s-24 13.167 -32 22.5s-13.5 20.166 -16.5 32.499s-4.5 25.5 -4.5 39.5v530c0 28.667 7.66699 51.5 23 68.5s40 25.5 74 25.5h182c34 0 58.667 -8.5 74 -25.5
s23 -39.833 23 -68.5v-530zM46 828c0 20.667 7 38.334 21 53.001s31.667 22 53 22c20.667 0 38 -7.33301 52 -22s21 -32.334 21 -53.001s-7 -38.334 -21 -53.001s-31.333 -22 -52 -22c-21.333 0 -39 7.33301 -53 22s-21 32.334 -21 53.001zM244 828
c0 20.667 7 38.334 21 53.001s31.333 22 52 22s38.167 -7.33301 52.5 -22s21.5 -32.334 21.5 -53.001s-7.16699 -38.334 -21.5 -53.001s-31.833 -22 -52.5 -22s-38 7.33301 -52 22s-21 32.334 -21 53.001z" />
    <glyph glyph-name="multiply" unicode="&#xd7;" 
d="M537 242c-102.667 -26 -206.001 -26 -310.001 0c6.66699 -11.333 14.834 -23 24.501 -35s21 -23.333 34 -34s27.5 -19.334 43.5 -26.001s33.667 -10 53 -10c18.667 0 36 3.33301 52 10s30.5 15.334 43.5 26.001s24.5 22 34.5 34s18.333 23.667 25 35zM599.999 340
h-435.998l53 -84c55.333 -13.333 110.166 -19.833 164.499 -19.5s109.166 6.83301 164.499 19.5zM323.001 453c-8.66699 18 -15.6709 36.666 -21.0039 55.999s-13.666 36.666 -24.999 51.999c-2 2.66699 -6.16699 2.66699 -12.5 0s-13 -6.16699 -20 -10.5
s-13 -8.66602 -18 -12.999s-6.83301 -7.16602 -5.5 -8.49902l72 -90c0.666992 -1.33301 2.83398 -1.5 6.50098 -0.5s7.33398 2.33301 11.001 4s6.83398 3.5 9.50098 5.5s3.66699 3.66699 3 5zM418.997 370.999l-37 89l-36 -89h73zM541.997 528.999
c0.666992 1.33301 -1.33203 4.16699 -5.99902 8.5s-10.334 8.66602 -17.001 12.999s-13.167 7.83301 -19.5 10.5s-10.5 2.66699 -12.5 0c-12 -15.333 -20.833 -32.666 -26.5 -51.999s-12.167 -38 -19.5 -56c-1.33301 -1.33301 -0.666016 -3 2.00098 -5s6 -3.83301 10 -5.5
s7.66699 -3 11 -4s5.66602 -0.833008 6.99902 0.5zM656.998 371c0 -38 -7.16699 -73.667 -21.5 -107s-34 -62.5 -59 -87.5s-54.167 -44.667 -87.5 -59s-69 -21.5 -107 -21.5s-73.667 7.16699 -107 21.5s-62.5 34 -87.5 59s-44.833 54.167 -59.5 87.5s-22 69 -22 107
s7.33301 73.667 22 107s34.5 62.5 59.5 87.5s54.167 44.667 87.5 59s69 21.5 107 21.5s73.667 -7.16699 107 -21.5s62.5 -34 87.5 -59s44.667 -54.167 59 -87.5s21.5 -69 21.5 -107zM676.998 371c0 40.667 -7.66699 79 -23 115s-36.333 67.333 -63 94s-58 47.834 -94 63.501
s-74.333 23.5 -115 23.5s-79 -7.83301 -115 -23.5s-67.5 -36.834 -94.5 -63.501s-48.333 -58 -64 -94s-23.5 -74.333 -23.5 -115s7.83301 -78.834 23.5 -114.501s37 -67 64 -94s58.5 -48.333 94.5 -64s74.333 -23.5 115 -23.5s79 7.83301 115 23.5s67.333 37 94 64
s47.667 58.333 63 94s23 73.834 23 114.501zM706.998 104h-26v-69h-19v69h-25v16h70v-16zM723.998 371c0 -47.333 -9 -91.666 -27 -132.999s-42.5 -77.666 -73.5 -108.999s-67.333 -56 -109 -74s-85.834 -27 -132.501 -27c-47.333 0 -91.666 9 -132.999 27
s-77.5 42.667 -108.5 74s-55.5 67.666 -73.5 108.999s-27 85.666 -27 132.999s9 91.833 27 133.5s42.5 78 73.5 109s67.167 55.5 108.5 73.5s85.666 27 132.999 27c46.667 0 90.834 -9 132.501 -27s78 -42.5 109 -73.5s55.5 -67.333 73.5 -109s27 -86.167 27 -133.5z
M795.998 35h-15v69l-17 -69h-16l-17 69v-69h-16v85h25l17 -66l14 66h25v-85z" />
    <glyph glyph-name="Oslash" unicode="&#xd8;" horiz-adv-x="436" 
d="M406 103c0 -14 -1.49902 -27.166 -4.49902 -39.499s-8.5 -23.166 -16.5 -32.499s-18.667 -16.833 -32 -22.5s-30 -8.5 -50 -8.5h-170c-17.333 0 -32 2 -44 6l-11 -26l-46 21l15 34c-6.66699 9.33301 -11.167 19.666 -13.5 30.999s-3.5 23.666 -3.5 36.999v530
c0 28.667 7.66699 51.5 23 68.5s40 25.5 74 25.5h182c17.333 0 31.666 -2.33301 42.999 -7l12 27l47 -21l-18 -39c8.66699 -14.667 13 -32.667 13 -54v-530zM187.001 600.001c-8.66699 0 -13 -4.66699 -13 -14v-277l87 227v50c0 9.33301 -4.33301 14 -13 14h-61z
M247.001 127.001c6 0 9.83301 1.16699 11.5 3.5s2.5 6.16602 2.5 11.499v258l-87 -226v-32c0 -5.33301 0.833008 -9.16602 2.5 -11.499s5.5 -3.5 11.5 -3.5h59z" />
    <glyph glyph-name="Ugrave" unicode="&#xd9;" horiz-adv-x="435" 
d="M295 0c41.333 0 70 8.16699 86 24.5s24 44.5 24 84.5v618h-148v-584c0 -5.33301 -0.833008 -9.33301 -2.5 -12s-5.5 -4 -11.5 -4h-51c-6 0 -9.83301 1.33301 -11.5 4s-2.5 6.66699 -2.5 12v584h-148v-618c0 -40 8 -68.167 24 -84.5s44.667 -24.5 86 -24.5h155zM-10 885
h155l130 -121h-106z" />
    <glyph glyph-name="Uacute" unicode="&#xda;" horiz-adv-x="435" 
d="M140 0c-41.333 0 -70 8.16699 -86 24.5s-24 44.5 -24 84.5v618h148v-584c0 -5.33301 0.833008 -9.33301 2.5 -12s5.5 -4 11.5 -4h51c6 0 9.83301 1.33301 11.5 4s2.5 6.66699 2.5 12v584h148v-618c0 -40 -8 -68.167 -24 -84.5s-44.667 -24.5 -86 -24.5h-155zM266 762
h-106l130 121h155z" />
    <glyph glyph-name="Ucircumflex" unicode="&#xdb;" horiz-adv-x="435" 
d="M140 0c-41.333 0 -70 8.16699 -86 24.5s-24 44.5 -24 84.5v618h148v-584c0 -5.33301 0.833008 -9.33301 2.5 -12s5.5 -4 11.5 -4h51c6 0 9.83301 1.33301 11.5 4s2.5 6.66699 2.5 12v584h148v-618c0 -40 -8 -68.167 -24 -84.5s-44.667 -24.5 -86 -24.5h-155zM277 893
l113 -131h-118l-54 72l-54 -72h-116l112 131h117z" />
    <glyph glyph-name="Udieresis" unicode="&#xdc;" horiz-adv-x="435" 
d="M140 0c-41.333 0 -70 8.16699 -86 24.5s-24 44.5 -24 84.5v618h148v-584c0 -5.33301 0.833008 -9.33301 2.5 -12s5.5 -4 11.5 -4h51c6 0 9.83301 1.33301 11.5 4s2.5 6.66699 2.5 12v584h148v-618c0 -40 -8 -68.167 -24 -84.5s-44.667 -24.5 -86 -24.5h-155zM46 828
c0 20.667 7 38.334 21 53.001s31.667 22 53 22c20.667 0 38 -7.33301 52 -22s21 -32.334 21 -53.001s-7 -38.334 -21 -53.001s-31.333 -22 -52 -22c-21.333 0 -39 7.33301 -53 22s-21 32.334 -21 53.001zM244 828c0 20.667 7 38.334 21 53.001s31.333 22 52 22
s38.167 -7.33301 52.5 -22s21.5 -32.334 21.5 -53.001s-7.16699 -38.334 -21.5 -53.001s-31.833 -22 -52.5 -22s-38 7.33301 -52 22s-21 32.334 -21 53.001z" />
    <glyph glyph-name="Yacute" unicode="&#xdd;" horiz-adv-x="451" 
d="M302 0h-153v184l-139 543h150l65 -344l66 344h150l-139 -543v-184zM277 762h-106l130 121h155z" />
    <glyph glyph-name="Thorn" unicode="&#xde;" horiz-adv-x="431" 
d="M174 510v-299.999h72c6 0 9.83301 1.16699 11.5 3.5s2.5 6.16602 2.5 11.499v271c0 9.33301 -4.33301 14 -13 14h-73zM401 184.001c0 -28.667 -7.83301 -51.499 -23.5 -68.499s-40.5 -25.5 -74.5 -25.5h-129v-90h-144v727h144v-90h129c34 0 58.833 -8.33301 74.5 -25
s23.5 -39.334 23.5 -68.001v-360z" />
    <glyph glyph-name="germandbls" unicode="&#xdf;" 
d="M537 242c-102.667 -26 -206.001 -26 -310.001 0c6.66699 -11.333 14.834 -23 24.501 -35s21 -23.333 34 -34s27.5 -19.334 43.5 -26.001s33.667 -10 53 -10c18.667 0 36 3.33301 52 10s30.5 15.334 43.5 26.001s24.5 22 34.5 34s18.333 23.667 25 35zM599.999 340
h-435.998l53 -84c55.333 -13.333 110.166 -19.833 164.499 -19.5s109.166 6.83301 164.499 19.5zM323.001 453c-8.66699 18 -15.6709 36.666 -21.0039 55.999s-13.666 36.666 -24.999 51.999c-2 2.66699 -6.16699 2.66699 -12.5 0s-13 -6.16699 -20 -10.5
s-13 -8.66602 -18 -12.999s-6.83301 -7.16602 -5.5 -8.49902l72 -90c0.666992 -1.33301 2.83398 -1.5 6.50098 -0.5s7.33398 2.33301 11.001 4s6.83398 3.5 9.50098 5.5s3.66699 3.66699 3 5zM418.997 370.999l-37 89l-36 -89h73zM541.997 528.999
c0.666992 1.33301 -1.33203 4.16699 -5.99902 8.5s-10.334 8.66602 -17.001 12.999s-13.167 7.83301 -19.5 10.5s-10.5 2.66699 -12.5 0c-12 -15.333 -20.833 -32.666 -26.5 -51.999s-12.167 -38 -19.5 -56c-1.33301 -1.33301 -0.666016 -3 2.00098 -5s6 -3.83301 10 -5.5
s7.66699 -3 11 -4s5.66602 -0.833008 6.99902 0.5zM656.998 371c0 -38 -7.16699 -73.667 -21.5 -107s-34 -62.5 -59 -87.5s-54.167 -44.667 -87.5 -59s-69 -21.5 -107 -21.5s-73.667 7.16699 -107 21.5s-62.5 34 -87.5 59s-44.833 54.167 -59.5 87.5s-22 69 -22 107
s7.33301 73.667 22 107s34.5 62.5 59.5 87.5s54.167 44.667 87.5 59s69 21.5 107 21.5s73.667 -7.16699 107 -21.5s62.5 -34 87.5 -59s44.667 -54.167 59 -87.5s21.5 -69 21.5 -107zM676.998 371c0 40.667 -7.66699 79 -23 115s-36.333 67.333 -63 94s-58 47.834 -94 63.501
s-74.333 23.5 -115 23.5s-79 -7.83301 -115 -23.5s-67.5 -36.834 -94.5 -63.501s-48.333 -58 -64 -94s-23.5 -74.333 -23.5 -115s7.83301 -78.834 23.5 -114.501s37 -67 64 -94s58.5 -48.333 94.5 -64s74.333 -23.5 115 -23.5s79 7.83301 115 23.5s67.333 37 94 64
s47.667 58.333 63 94s23 73.834 23 114.501zM706.998 104h-26v-69h-19v69h-25v16h70v-16zM723.998 371c0 -47.333 -9 -91.666 -27 -132.999s-42.5 -77.666 -73.5 -108.999s-67.333 -56 -109 -74s-85.834 -27 -132.501 -27c-47.333 0 -91.666 9 -132.999 27
s-77.5 42.667 -108.5 74s-55.5 67.666 -73.5 108.999s-27 85.666 -27 132.999s9 91.833 27 133.5s42.5 78 73.5 109s67.167 55.5 108.5 73.5s85.666 27 132.999 27c46.667 0 90.834 -9 132.501 -27s78 -42.5 109 -73.5s55.5 -67.333 73.5 -109s27 -86.167 27 -133.5z
M795.998 35h-15v69l-17 -69h-16l-17 69v-69h-16v85h25l17 -66l14 66h25v-85z" />
    <glyph glyph-name="agrave" unicode="&#xe0;" 
d="M537 242c-102.667 -26 -206.001 -26 -310.001 0c6.66699 -11.333 14.834 -23 24.501 -35s21 -23.333 34 -34s27.5 -19.334 43.5 -26.001s33.667 -10 53 -10c18.667 0 36 3.33301 52 10s30.5 15.334 43.5 26.001s24.5 22 34.5 34s18.333 23.667 25 35zM599.999 340
h-435.998l53 -84c55.333 -13.333 110.166 -19.833 164.499 -19.5s109.166 6.83301 164.499 19.5zM323.001 453c-8.66699 18 -15.6709 36.666 -21.0039 55.999s-13.666 36.666 -24.999 51.999c-2 2.66699 -6.16699 2.66699 -12.5 0s-13 -6.16699 -20 -10.5
s-13 -8.66602 -18 -12.999s-6.83301 -7.16602 -5.5 -8.49902l72 -90c0.666992 -1.33301 2.83398 -1.5 6.50098 -0.5s7.33398 2.33301 11.001 4s6.83398 3.5 9.50098 5.5s3.66699 3.66699 3 5zM418.997 370.999l-37 89l-36 -89h73zM541.997 528.999
c0.666992 1.33301 -1.33203 4.16699 -5.99902 8.5s-10.334 8.66602 -17.001 12.999s-13.167 7.83301 -19.5 10.5s-10.5 2.66699 -12.5 0c-12 -15.333 -20.833 -32.666 -26.5 -51.999s-12.167 -38 -19.5 -56c-1.33301 -1.33301 -0.666016 -3 2.00098 -5s6 -3.83301 10 -5.5
s7.66699 -3 11 -4s5.66602 -0.833008 6.99902 0.5zM656.998 371c0 -38 -7.16699 -73.667 -21.5 -107s-34 -62.5 -59 -87.5s-54.167 -44.667 -87.5 -59s-69 -21.5 -107 -21.5s-73.667 7.16699 -107 21.5s-62.5 34 -87.5 59s-44.833 54.167 -59.5 87.5s-22 69 -22 107
s7.33301 73.667 22 107s34.5 62.5 59.5 87.5s54.167 44.667 87.5 59s69 21.5 107 21.5s73.667 -7.16699 107 -21.5s62.5 -34 87.5 -59s44.667 -54.167 59 -87.5s21.5 -69 21.5 -107zM676.998 371c0 40.667 -7.66699 79 -23 115s-36.333 67.333 -63 94s-58 47.834 -94 63.501
s-74.333 23.5 -115 23.5s-79 -7.83301 -115 -23.5s-67.5 -36.834 -94.5 -63.501s-48.333 -58 -64 -94s-23.5 -74.333 -23.5 -115s7.83301 -78.834 23.5 -114.501s37 -67 64 -94s58.5 -48.333 94.5 -64s74.333 -23.5 115 -23.5s79 7.83301 115 23.5s67.333 37 94 64
s47.667 58.333 63 94s23 73.834 23 114.501zM706.998 104h-26v-69h-19v69h-25v16h70v-16zM723.998 371c0 -47.333 -9 -91.666 -27 -132.999s-42.5 -77.666 -73.5 -108.999s-67.333 -56 -109 -74s-85.834 -27 -132.501 -27c-47.333 0 -91.666 9 -132.999 27
s-77.5 42.667 -108.5 74s-55.5 67.666 -73.5 108.999s-27 85.666 -27 132.999s9 91.833 27 133.5s42.5 78 73.5 109s67.167 55.5 108.5 73.5s85.666 27 132.999 27c46.667 0 90.834 -9 132.501 -27s78 -42.5 109 -73.5s55.5 -67.333 73.5 -109s27 -86.167 27 -133.5z
M795.998 35h-15v69l-17 -69h-16l-17 69v-69h-16v85h25l17 -66l14 66h25v-85z" />
    <glyph glyph-name="aacute" unicode="&#xe1;" 
d="M537 242c-102.667 -26 -206.001 -26 -310.001 0c6.66699 -11.333 14.834 -23 24.501 -35s21 -23.333 34 -34s27.5 -19.334 43.5 -26.001s33.667 -10 53 -10c18.667 0 36 3.33301 52 10s30.5 15.334 43.5 26.001s24.5 22 34.5 34s18.333 23.667 25 35zM599.999 340
h-435.998l53 -84c55.333 -13.333 110.166 -19.833 164.499 -19.5s109.166 6.83301 164.499 19.5zM323.001 453c-8.66699 18 -15.6709 36.666 -21.0039 55.999s-13.666 36.666 -24.999 51.999c-2 2.66699 -6.16699 2.66699 -12.5 0s-13 -6.16699 -20 -10.5
s-13 -8.66602 -18 -12.999s-6.83301 -7.16602 -5.5 -8.49902l72 -90c0.666992 -1.33301 2.83398 -1.5 6.50098 -0.5s7.33398 2.33301 11.001 4s6.83398 3.5 9.50098 5.5s3.66699 3.66699 3 5zM418.997 370.999l-37 89l-36 -89h73zM541.997 528.999
c0.666992 1.33301 -1.33203 4.16699 -5.99902 8.5s-10.334 8.66602 -17.001 12.999s-13.167 7.83301 -19.5 10.5s-10.5 2.66699 -12.5 0c-12 -15.333 -20.833 -32.666 -26.5 -51.999s-12.167 -38 -19.5 -56c-1.33301 -1.33301 -0.666016 -3 2.00098 -5s6 -3.83301 10 -5.5
s7.66699 -3 11 -4s5.66602 -0.833008 6.99902 0.5zM656.998 371c0 -38 -7.16699 -73.667 -21.5 -107s-34 -62.5 -59 -87.5s-54.167 -44.667 -87.5 -59s-69 -21.5 -107 -21.5s-73.667 7.16699 -107 21.5s-62.5 34 -87.5 59s-44.833 54.167 -59.5 87.5s-22 69 -22 107
s7.33301 73.667 22 107s34.5 62.5 59.5 87.5s54.167 44.667 87.5 59s69 21.5 107 21.5s73.667 -7.16699 107 -21.5s62.5 -34 87.5 -59s44.667 -54.167 59 -87.5s21.5 -69 21.5 -107zM676.998 371c0 40.667 -7.66699 79 -23 115s-36.333 67.333 -63 94s-58 47.834 -94 63.501
s-74.333 23.5 -115 23.5s-79 -7.83301 -115 -23.5s-67.5 -36.834 -94.5 -63.501s-48.333 -58 -64 -94s-23.5 -74.333 -23.5 -115s7.83301 -78.834 23.5 -114.501s37 -67 64 -94s58.5 -48.333 94.5 -64s74.333 -23.5 115 -23.5s79 7.83301 115 23.5s67.333 37 94 64
s47.667 58.333 63 94s23 73.834 23 114.501zM706.998 104h-26v-69h-19v69h-25v16h70v-16zM723.998 371c0 -47.333 -9 -91.666 -27 -132.999s-42.5 -77.666 -73.5 -108.999s-67.333 -56 -109 -74s-85.834 -27 -132.501 -27c-47.333 0 -91.666 9 -132.999 27
s-77.5 42.667 -108.5 74s-55.5 67.666 -73.5 108.999s-27 85.666 -27 132.999s9 91.833 27 133.5s42.5 78 73.5 109s67.167 55.5 108.5 73.5s85.666 27 132.999 27c46.667 0 90.834 -9 132.501 -27s78 -42.5 109 -73.5s55.5 -67.333 73.5 -109s27 -86.167 27 -133.5z
M795.998 35h-15v69l-17 -69h-16l-17 69v-69h-16v85h25l17 -66l14 66h25v-85z" />
    <glyph glyph-name="acircumflex" unicode="&#xe2;" 
d="M537 242c-102.667 -26 -206.001 -26 -310.001 0c6.66699 -11.333 14.834 -23 24.501 -35s21 -23.333 34 -34s27.5 -19.334 43.5 -26.001s33.667 -10 53 -10c18.667 0 36 3.33301 52 10s30.5 15.334 43.5 26.001s24.5 22 34.5 34s18.333 23.667 25 35zM599.999 340
h-435.998l53 -84c55.333 -13.333 110.166 -19.833 164.499 -19.5s109.166 6.83301 164.499 19.5zM323.001 453c-8.66699 18 -15.6709 36.666 -21.0039 55.999s-13.666 36.666 -24.999 51.999c-2 2.66699 -6.16699 2.66699 -12.5 0s-13 -6.16699 -20 -10.5
s-13 -8.66602 -18 -12.999s-6.83301 -7.16602 -5.5 -8.49902l72 -90c0.666992 -1.33301 2.83398 -1.5 6.50098 -0.5s7.33398 2.33301 11.001 4s6.83398 3.5 9.50098 5.5s3.66699 3.66699 3 5zM418.997 370.999l-37 89l-36 -89h73zM541.997 528.999
c0.666992 1.33301 -1.33203 4.16699 -5.99902 8.5s-10.334 8.66602 -17.001 12.999s-13.167 7.83301 -19.5 10.5s-10.5 2.66699 -12.5 0c-12 -15.333 -20.833 -32.666 -26.5 -51.999s-12.167 -38 -19.5 -56c-1.33301 -1.33301 -0.666016 -3 2.00098 -5s6 -3.83301 10 -5.5
s7.66699 -3 11 -4s5.66602 -0.833008 6.99902 0.5zM656.998 371c0 -38 -7.16699 -73.667 -21.5 -107s-34 -62.5 -59 -87.5s-54.167 -44.667 -87.5 -59s-69 -21.5 -107 -21.5s-73.667 7.16699 -107 21.5s-62.5 34 -87.5 59s-44.833 54.167 -59.5 87.5s-22 69 -22 107
s7.33301 73.667 22 107s34.5 62.5 59.5 87.5s54.167 44.667 87.5 59s69 21.5 107 21.5s73.667 -7.16699 107 -21.5s62.5 -34 87.5 -59s44.667 -54.167 59 -87.5s21.5 -69 21.5 -107zM676.998 371c0 40.667 -7.66699 79 -23 115s-36.333 67.333 -63 94s-58 47.834 -94 63.501
s-74.333 23.5 -115 23.5s-79 -7.83301 -115 -23.5s-67.5 -36.834 -94.5 -63.501s-48.333 -58 -64 -94s-23.5 -74.333 -23.5 -115s7.83301 -78.834 23.5 -114.501s37 -67 64 -94s58.5 -48.333 94.5 -64s74.333 -23.5 115 -23.5s79 7.83301 115 23.5s67.333 37 94 64
s47.667 58.333 63 94s23 73.834 23 114.501zM706.998 104h-26v-69h-19v69h-25v16h70v-16zM723.998 371c0 -47.333 -9 -91.666 -27 -132.999s-42.5 -77.666 -73.5 -108.999s-67.333 -56 -109 -74s-85.834 -27 -132.501 -27c-47.333 0 -91.666 9 -132.999 27
s-77.5 42.667 -108.5 74s-55.5 67.666 -73.5 108.999s-27 85.666 -27 132.999s9 91.833 27 133.5s42.5 78 73.5 109s67.167 55.5 108.5 73.5s85.666 27 132.999 27c46.667 0 90.834 -9 132.501 -27s78 -42.5 109 -73.5s55.5 -67.333 73.5 -109s27 -86.167 27 -133.5z
M795.998 35h-15v69l-17 -69h-16l-17 69v-69h-16v85h25l17 -66l14 66h25v-85z" />
    <glyph glyph-name="atilde" unicode="&#xe3;" 
d="M537 242c-102.667 -26 -206.001 -26 -310.001 0c6.66699 -11.333 14.834 -23 24.501 -35s21 -23.333 34 -34s27.5 -19.334 43.5 -26.001s33.667 -10 53 -10c18.667 0 36 3.33301 52 10s30.5 15.334 43.5 26.001s24.5 22 34.5 34s18.333 23.667 25 35zM599.999 340
h-435.998l53 -84c55.333 -13.333 110.166 -19.833 164.499 -19.5s109.166 6.83301 164.499 19.5zM323.001 453c-8.66699 18 -15.6709 36.666 -21.0039 55.999s-13.666 36.666 -24.999 51.999c-2 2.66699 -6.16699 2.66699 -12.5 0s-13 -6.16699 -20 -10.5
s-13 -8.66602 -18 -12.999s-6.83301 -7.16602 -5.5 -8.49902l72 -90c0.666992 -1.33301 2.83398 -1.5 6.50098 -0.5s7.33398 2.33301 11.001 4s6.83398 3.5 9.50098 5.5s3.66699 3.66699 3 5zM418.997 370.999l-37 89l-36 -89h73zM541.997 528.999
c0.666992 1.33301 -1.33203 4.16699 -5.99902 8.5s-10.334 8.66602 -17.001 12.999s-13.167 7.83301 -19.5 10.5s-10.5 2.66699 -12.5 0c-12 -15.333 -20.833 -32.666 -26.5 -51.999s-12.167 -38 -19.5 -56c-1.33301 -1.33301 -0.666016 -3 2.00098 -5s6 -3.83301 10 -5.5
s7.66699 -3 11 -4s5.66602 -0.833008 6.99902 0.5zM656.998 371c0 -38 -7.16699 -73.667 -21.5 -107s-34 -62.5 -59 -87.5s-54.167 -44.667 -87.5 -59s-69 -21.5 -107 -21.5s-73.667 7.16699 -107 21.5s-62.5 34 -87.5 59s-44.833 54.167 -59.5 87.5s-22 69 -22 107
s7.33301 73.667 22 107s34.5 62.5 59.5 87.5s54.167 44.667 87.5 59s69 21.5 107 21.5s73.667 -7.16699 107 -21.5s62.5 -34 87.5 -59s44.667 -54.167 59 -87.5s21.5 -69 21.5 -107zM676.998 371c0 40.667 -7.66699 79 -23 115s-36.333 67.333 -63 94s-58 47.834 -94 63.501
s-74.333 23.5 -115 23.5s-79 -7.83301 -115 -23.5s-67.5 -36.834 -94.5 -63.501s-48.333 -58 -64 -94s-23.5 -74.333 -23.5 -115s7.83301 -78.834 23.5 -114.501s37 -67 64 -94s58.5 -48.333 94.5 -64s74.333 -23.5 115 -23.5s79 7.83301 115 23.5s67.333 37 94 64
s47.667 58.333 63 94s23 73.834 23 114.501zM706.998 104h-26v-69h-19v69h-25v16h70v-16zM723.998 371c0 -47.333 -9 -91.666 -27 -132.999s-42.5 -77.666 -73.5 -108.999s-67.333 -56 -109 -74s-85.834 -27 -132.501 -27c-47.333 0 -91.666 9 -132.999 27
s-77.5 42.667 -108.5 74s-55.5 67.666 -73.5 108.999s-27 85.666 -27 132.999s9 91.833 27 133.5s42.5 78 73.5 109s67.167 55.5 108.5 73.5s85.666 27 132.999 27c46.667 0 90.834 -9 132.501 -27s78 -42.5 109 -73.5s55.5 -67.333 73.5 -109s27 -86.167 27 -133.5z
M795.998 35h-15v69l-17 -69h-16l-17 69v-69h-16v85h25l17 -66l14 66h25v-85z" />
    <glyph glyph-name="adieresis" unicode="&#xe4;" 
d="M537 242c-102.667 -26 -206.001 -26 -310.001 0c6.66699 -11.333 14.834 -23 24.501 -35s21 -23.333 34 -34s27.5 -19.334 43.5 -26.001s33.667 -10 53 -10c18.667 0 36 3.33301 52 10s30.5 15.334 43.5 26.001s24.5 22 34.5 34s18.333 23.667 25 35zM599.999 340
h-435.998l53 -84c55.333 -13.333 110.166 -19.833 164.499 -19.5s109.166 6.83301 164.499 19.5zM323.001 453c-8.66699 18 -15.6709 36.666 -21.0039 55.999s-13.666 36.666 -24.999 51.999c-2 2.66699 -6.16699 2.66699 -12.5 0s-13 -6.16699 -20 -10.5
s-13 -8.66602 -18 -12.999s-6.83301 -7.16602 -5.5 -8.49902l72 -90c0.666992 -1.33301 2.83398 -1.5 6.50098 -0.5s7.33398 2.33301 11.001 4s6.83398 3.5 9.50098 5.5s3.66699 3.66699 3 5zM418.997 370.999l-37 89l-36 -89h73zM541.997 528.999
c0.666992 1.33301 -1.33203 4.16699 -5.99902 8.5s-10.334 8.66602 -17.001 12.999s-13.167 7.83301 -19.5 10.5s-10.5 2.66699 -12.5 0c-12 -15.333 -20.833 -32.666 -26.5 -51.999s-12.167 -38 -19.5 -56c-1.33301 -1.33301 -0.666016 -3 2.00098 -5s6 -3.83301 10 -5.5
s7.66699 -3 11 -4s5.66602 -0.833008 6.99902 0.5zM656.998 371c0 -38 -7.16699 -73.667 -21.5 -107s-34 -62.5 -59 -87.5s-54.167 -44.667 -87.5 -59s-69 -21.5 -107 -21.5s-73.667 7.16699 -107 21.5s-62.5 34 -87.5 59s-44.833 54.167 -59.5 87.5s-22 69 -22 107
s7.33301 73.667 22 107s34.5 62.5 59.5 87.5s54.167 44.667 87.5 59s69 21.5 107 21.5s73.667 -7.16699 107 -21.5s62.5 -34 87.5 -59s44.667 -54.167 59 -87.5s21.5 -69 21.5 -107zM676.998 371c0 40.667 -7.66699 79 -23 115s-36.333 67.333 -63 94s-58 47.834 -94 63.501
s-74.333 23.5 -115 23.5s-79 -7.83301 -115 -23.5s-67.5 -36.834 -94.5 -63.501s-48.333 -58 -64 -94s-23.5 -74.333 -23.5 -115s7.83301 -78.834 23.5 -114.501s37 -67 64 -94s58.5 -48.333 94.5 -64s74.333 -23.5 115 -23.5s79 7.83301 115 23.5s67.333 37 94 64
s47.667 58.333 63 94s23 73.834 23 114.501zM706.998 104h-26v-69h-19v69h-25v16h70v-16zM723.998 371c0 -47.333 -9 -91.666 -27 -132.999s-42.5 -77.666 -73.5 -108.999s-67.333 -56 -109 -74s-85.834 -27 -132.501 -27c-47.333 0 -91.666 9 -132.999 27
s-77.5 42.667 -108.5 74s-55.5 67.666 -73.5 108.999s-27 85.666 -27 132.999s9 91.833 27 133.5s42.5 78 73.5 109s67.167 55.5 108.5 73.5s85.666 27 132.999 27c46.667 0 90.834 -9 132.501 -27s78 -42.5 109 -73.5s55.5 -67.333 73.5 -109s27 -86.167 27 -133.5z
M795.998 35h-15v69l-17 -69h-16l-17 69v-69h-16v85h25l17 -66l14 66h25v-85z" />
    <glyph glyph-name="aring" unicode="&#xe5;" 
d="M537 242c-102.667 -26 -206.001 -26 -310.001 0c6.66699 -11.333 14.834 -23 24.501 -35s21 -23.333 34 -34s27.5 -19.334 43.5 -26.001s33.667 -10 53 -10c18.667 0 36 3.33301 52 10s30.5 15.334 43.5 26.001s24.5 22 34.5 34s18.333 23.667 25 35zM599.999 340
h-435.998l53 -84c55.333 -13.333 110.166 -19.833 164.499 -19.5s109.166 6.83301 164.499 19.5zM323.001 453c-8.66699 18 -15.6709 36.666 -21.0039 55.999s-13.666 36.666 -24.999 51.999c-2 2.66699 -6.16699 2.66699 -12.5 0s-13 -6.16699 -20 -10.5
s-13 -8.66602 -18 -12.999s-6.83301 -7.16602 -5.5 -8.49902l72 -90c0.666992 -1.33301 2.83398 -1.5 6.50098 -0.5s7.33398 2.33301 11.001 4s6.83398 3.5 9.50098 5.5s3.66699 3.66699 3 5zM418.997 370.999l-37 89l-36 -89h73zM541.997 528.999
c0.666992 1.33301 -1.33203 4.16699 -5.99902 8.5s-10.334 8.66602 -17.001 12.999s-13.167 7.83301 -19.5 10.5s-10.5 2.66699 -12.5 0c-12 -15.333 -20.833 -32.666 -26.5 -51.999s-12.167 -38 -19.5 -56c-1.33301 -1.33301 -0.666016 -3 2.00098 -5s6 -3.83301 10 -5.5
s7.66699 -3 11 -4s5.66602 -0.833008 6.99902 0.5zM656.998 371c0 -38 -7.16699 -73.667 -21.5 -107s-34 -62.5 -59 -87.5s-54.167 -44.667 -87.5 -59s-69 -21.5 -107 -21.5s-73.667 7.16699 -107 21.5s-62.5 34 -87.5 59s-44.833 54.167 -59.5 87.5s-22 69 -22 107
s7.33301 73.667 22 107s34.5 62.5 59.5 87.5s54.167 44.667 87.5 59s69 21.5 107 21.5s73.667 -7.16699 107 -21.5s62.5 -34 87.5 -59s44.667 -54.167 59 -87.5s21.5 -69 21.5 -107zM676.998 371c0 40.667 -7.66699 79 -23 115s-36.333 67.333 -63 94s-58 47.834 -94 63.501
s-74.333 23.5 -115 23.5s-79 -7.83301 -115 -23.5s-67.5 -36.834 -94.5 -63.501s-48.333 -58 -64 -94s-23.5 -74.333 -23.5 -115s7.83301 -78.834 23.5 -114.501s37 -67 64 -94s58.5 -48.333 94.5 -64s74.333 -23.5 115 -23.5s79 7.83301 115 23.5s67.333 37 94 64
s47.667 58.333 63 94s23 73.834 23 114.501zM706.998 104h-26v-69h-19v69h-25v16h70v-16zM723.998 371c0 -47.333 -9 -91.666 -27 -132.999s-42.5 -77.666 -73.5 -108.999s-67.333 -56 -109 -74s-85.834 -27 -132.501 -27c-47.333 0 -91.666 9 -132.999 27
s-77.5 42.667 -108.5 74s-55.5 67.666 -73.5 108.999s-27 85.666 -27 132.999s9 91.833 27 133.5s42.5 78 73.5 109s67.167 55.5 108.5 73.5s85.666 27 132.999 27c46.667 0 90.834 -9 132.501 -27s78 -42.5 109 -73.5s55.5 -67.333 73.5 -109s27 -86.167 27 -133.5z
M795.998 35h-15v69l-17 -69h-16l-17 69v-69h-16v85h25l17 -66l14 66h25v-85z" />
    <glyph glyph-name="ae" unicode="&#xe6;" 
d="M537 242c-102.667 -26 -206.001 -26 -310.001 0c6.66699 -11.333 14.834 -23 24.501 -35s21 -23.333 34 -34s27.5 -19.334 43.5 -26.001s33.667 -10 53 -10c18.667 0 36 3.33301 52 10s30.5 15.334 43.5 26.001s24.5 22 34.5 34s18.333 23.667 25 35zM599.999 340
h-435.998l53 -84c55.333 -13.333 110.166 -19.833 164.499 -19.5s109.166 6.83301 164.499 19.5zM323.001 453c-8.66699 18 -15.6709 36.666 -21.0039 55.999s-13.666 36.666 -24.999 51.999c-2 2.66699 -6.16699 2.66699 -12.5 0s-13 -6.16699 -20 -10.5
s-13 -8.66602 -18 -12.999s-6.83301 -7.16602 -5.5 -8.49902l72 -90c0.666992 -1.33301 2.83398 -1.5 6.50098 -0.5s7.33398 2.33301 11.001 4s6.83398 3.5 9.50098 5.5s3.66699 3.66699 3 5zM418.997 370.999l-37 89l-36 -89h73zM541.997 528.999
c0.666992 1.33301 -1.33203 4.16699 -5.99902 8.5s-10.334 8.66602 -17.001 12.999s-13.167 7.83301 -19.5 10.5s-10.5 2.66699 -12.5 0c-12 -15.333 -20.833 -32.666 -26.5 -51.999s-12.167 -38 -19.5 -56c-1.33301 -1.33301 -0.666016 -3 2.00098 -5s6 -3.83301 10 -5.5
s7.66699 -3 11 -4s5.66602 -0.833008 6.99902 0.5zM656.998 371c0 -38 -7.16699 -73.667 -21.5 -107s-34 -62.5 -59 -87.5s-54.167 -44.667 -87.5 -59s-69 -21.5 -107 -21.5s-73.667 7.16699 -107 21.5s-62.5 34 -87.5 59s-44.833 54.167 -59.5 87.5s-22 69 -22 107
s7.33301 73.667 22 107s34.5 62.5 59.5 87.5s54.167 44.667 87.5 59s69 21.5 107 21.5s73.667 -7.16699 107 -21.5s62.5 -34 87.5 -59s44.667 -54.167 59 -87.5s21.5 -69 21.5 -107zM676.998 371c0 40.667 -7.66699 79 -23 115s-36.333 67.333 -63 94s-58 47.834 -94 63.501
s-74.333 23.5 -115 23.5s-79 -7.83301 -115 -23.5s-67.5 -36.834 -94.5 -63.501s-48.333 -58 -64 -94s-23.5 -74.333 -23.5 -115s7.83301 -78.834 23.5 -114.501s37 -67 64 -94s58.5 -48.333 94.5 -64s74.333 -23.5 115 -23.5s79 7.83301 115 23.5s67.333 37 94 64
s47.667 58.333 63 94s23 73.834 23 114.501zM706.998 104h-26v-69h-19v69h-25v16h70v-16zM723.998 371c0 -47.333 -9 -91.666 -27 -132.999s-42.5 -77.666 -73.5 -108.999s-67.333 -56 -109 -74s-85.834 -27 -132.501 -27c-47.333 0 -91.666 9 -132.999 27
s-77.5 42.667 -108.5 74s-55.5 67.666 -73.5 108.999s-27 85.666 -27 132.999s9 91.833 27 133.5s42.5 78 73.5 109s67.167 55.5 108.5 73.5s85.666 27 132.999 27c46.667 0 90.834 -9 132.501 -27s78 -42.5 109 -73.5s55.5 -67.333 73.5 -109s27 -86.167 27 -133.5z
M795.998 35h-15v69l-17 -69h-16l-17 69v-69h-16v85h25l17 -66l14 66h25v-85z" />
    <glyph glyph-name="ccedilla" unicode="&#xe7;" 
d="M537 242c-102.667 -26 -206.001 -26 -310.001 0c6.66699 -11.333 14.834 -23 24.501 -35s21 -23.333 34 -34s27.5 -19.334 43.5 -26.001s33.667 -10 53 -10c18.667 0 36 3.33301 52 10s30.5 15.334 43.5 26.001s24.5 22 34.5 34s18.333 23.667 25 35zM599.999 340
h-435.998l53 -84c55.333 -13.333 110.166 -19.833 164.499 -19.5s109.166 6.83301 164.499 19.5zM323.001 453c-8.66699 18 -15.6709 36.666 -21.0039 55.999s-13.666 36.666 -24.999 51.999c-2 2.66699 -6.16699 2.66699 -12.5 0s-13 -6.16699 -20 -10.5
s-13 -8.66602 -18 -12.999s-6.83301 -7.16602 -5.5 -8.49902l72 -90c0.666992 -1.33301 2.83398 -1.5 6.50098 -0.5s7.33398 2.33301 11.001 4s6.83398 3.5 9.50098 5.5s3.66699 3.66699 3 5zM418.997 370.999l-37 89l-36 -89h73zM541.997 528.999
c0.666992 1.33301 -1.33203 4.16699 -5.99902 8.5s-10.334 8.66602 -17.001 12.999s-13.167 7.83301 -19.5 10.5s-10.5 2.66699 -12.5 0c-12 -15.333 -20.833 -32.666 -26.5 -51.999s-12.167 -38 -19.5 -56c-1.33301 -1.33301 -0.666016 -3 2.00098 -5s6 -3.83301 10 -5.5
s7.66699 -3 11 -4s5.66602 -0.833008 6.99902 0.5zM656.998 371c0 -38 -7.16699 -73.667 -21.5 -107s-34 -62.5 -59 -87.5s-54.167 -44.667 -87.5 -59s-69 -21.5 -107 -21.5s-73.667 7.16699 -107 21.5s-62.5 34 -87.5 59s-44.833 54.167 -59.5 87.5s-22 69 -22 107
s7.33301 73.667 22 107s34.5 62.5 59.5 87.5s54.167 44.667 87.5 59s69 21.5 107 21.5s73.667 -7.16699 107 -21.5s62.5 -34 87.5 -59s44.667 -54.167 59 -87.5s21.5 -69 21.5 -107zM676.998 371c0 40.667 -7.66699 79 -23 115s-36.333 67.333 -63 94s-58 47.834 -94 63.501
s-74.333 23.5 -115 23.5s-79 -7.83301 -115 -23.5s-67.5 -36.834 -94.5 -63.501s-48.333 -58 -64 -94s-23.5 -74.333 -23.5 -115s7.83301 -78.834 23.5 -114.501s37 -67 64 -94s58.5 -48.333 94.5 -64s74.333 -23.5 115 -23.5s79 7.83301 115 23.5s67.333 37 94 64
s47.667 58.333 63 94s23 73.834 23 114.501zM706.998 104h-26v-69h-19v69h-25v16h70v-16zM723.998 371c0 -47.333 -9 -91.666 -27 -132.999s-42.5 -77.666 -73.5 -108.999s-67.333 -56 -109 -74s-85.834 -27 -132.501 -27c-47.333 0 -91.666 9 -132.999 27
s-77.5 42.667 -108.5 74s-55.5 67.666 -73.5 108.999s-27 85.666 -27 132.999s9 91.833 27 133.5s42.5 78 73.5 109s67.167 55.5 108.5 73.5s85.666 27 132.999 27c46.667 0 90.834 -9 132.501 -27s78 -42.5 109 -73.5s55.5 -67.333 73.5 -109s27 -86.167 27 -133.5z
M795.998 35h-15v69l-17 -69h-16l-17 69v-69h-16v85h25l17 -66l14 66h25v-85z" />
    <glyph glyph-name="egrave" unicode="&#xe8;" 
d="M537 242c-102.667 -26 -206.001 -26 -310.001 0c6.66699 -11.333 14.834 -23 24.501 -35s21 -23.333 34 -34s27.5 -19.334 43.5 -26.001s33.667 -10 53 -10c18.667 0 36 3.33301 52 10s30.5 15.334 43.5 26.001s24.5 22 34.5 34s18.333 23.667 25 35zM599.999 340
h-435.998l53 -84c55.333 -13.333 110.166 -19.833 164.499 -19.5s109.166 6.83301 164.499 19.5zM323.001 453c-8.66699 18 -15.6709 36.666 -21.0039 55.999s-13.666 36.666 -24.999 51.999c-2 2.66699 -6.16699 2.66699 -12.5 0s-13 -6.16699 -20 -10.5
s-13 -8.66602 -18 -12.999s-6.83301 -7.16602 -5.5 -8.49902l72 -90c0.666992 -1.33301 2.83398 -1.5 6.50098 -0.5s7.33398 2.33301 11.001 4s6.83398 3.5 9.50098 5.5s3.66699 3.66699 3 5zM418.997 370.999l-37 89l-36 -89h73zM541.997 528.999
c0.666992 1.33301 -1.33203 4.16699 -5.99902 8.5s-10.334 8.66602 -17.001 12.999s-13.167 7.83301 -19.5 10.5s-10.5 2.66699 -12.5 0c-12 -15.333 -20.833 -32.666 -26.5 -51.999s-12.167 -38 -19.5 -56c-1.33301 -1.33301 -0.666016 -3 2.00098 -5s6 -3.83301 10 -5.5
s7.66699 -3 11 -4s5.66602 -0.833008 6.99902 0.5zM656.998 371c0 -38 -7.16699 -73.667 -21.5 -107s-34 -62.5 -59 -87.5s-54.167 -44.667 -87.5 -59s-69 -21.5 -107 -21.5s-73.667 7.16699 -107 21.5s-62.5 34 -87.5 59s-44.833 54.167 -59.5 87.5s-22 69 -22 107
s7.33301 73.667 22 107s34.5 62.5 59.5 87.5s54.167 44.667 87.5 59s69 21.5 107 21.5s73.667 -7.16699 107 -21.5s62.5 -34 87.5 -59s44.667 -54.167 59 -87.5s21.5 -69 21.5 -107zM676.998 371c0 40.667 -7.66699 79 -23 115s-36.333 67.333 -63 94s-58 47.834 -94 63.501
s-74.333 23.5 -115 23.5s-79 -7.83301 -115 -23.5s-67.5 -36.834 -94.5 -63.501s-48.333 -58 -64 -94s-23.5 -74.333 -23.5 -115s7.83301 -78.834 23.5 -114.501s37 -67 64 -94s58.5 -48.333 94.5 -64s74.333 -23.5 115 -23.5s79 7.83301 115 23.5s67.333 37 94 64
s47.667 58.333 63 94s23 73.834 23 114.501zM706.998 104h-26v-69h-19v69h-25v16h70v-16zM723.998 371c0 -47.333 -9 -91.666 -27 -132.999s-42.5 -77.666 -73.5 -108.999s-67.333 -56 -109 -74s-85.834 -27 -132.501 -27c-47.333 0 -91.666 9 -132.999 27
s-77.5 42.667 -108.5 74s-55.5 67.666 -73.5 108.999s-27 85.666 -27 132.999s9 91.833 27 133.5s42.5 78 73.5 109s67.167 55.5 108.5 73.5s85.666 27 132.999 27c46.667 0 90.834 -9 132.501 -27s78 -42.5 109 -73.5s55.5 -67.333 73.5 -109s27 -86.167 27 -133.5z
M795.998 35h-15v69l-17 -69h-16l-17 69v-69h-16v85h25l17 -66l14 66h25v-85z" />
    <glyph glyph-name="eacute" unicode="&#xe9;" 
d="M537 242c-102.667 -26 -206.001 -26 -310.001 0c6.66699 -11.333 14.834 -23 24.501 -35s21 -23.333 34 -34s27.5 -19.334 43.5 -26.001s33.667 -10 53 -10c18.667 0 36 3.33301 52 10s30.5 15.334 43.5 26.001s24.5 22 34.5 34s18.333 23.667 25 35zM599.999 340
h-435.998l53 -84c55.333 -13.333 110.166 -19.833 164.499 -19.5s109.166 6.83301 164.499 19.5zM323.001 453c-8.66699 18 -15.6709 36.666 -21.0039 55.999s-13.666 36.666 -24.999 51.999c-2 2.66699 -6.16699 2.66699 -12.5 0s-13 -6.16699 -20 -10.5
s-13 -8.66602 -18 -12.999s-6.83301 -7.16602 -5.5 -8.49902l72 -90c0.666992 -1.33301 2.83398 -1.5 6.50098 -0.5s7.33398 2.33301 11.001 4s6.83398 3.5 9.50098 5.5s3.66699 3.66699 3 5zM418.997 370.999l-37 89l-36 -89h73zM541.997 528.999
c0.666992 1.33301 -1.33203 4.16699 -5.99902 8.5s-10.334 8.66602 -17.001 12.999s-13.167 7.83301 -19.5 10.5s-10.5 2.66699 -12.5 0c-12 -15.333 -20.833 -32.666 -26.5 -51.999s-12.167 -38 -19.5 -56c-1.33301 -1.33301 -0.666016 -3 2.00098 -5s6 -3.83301 10 -5.5
s7.66699 -3 11 -4s5.66602 -0.833008 6.99902 0.5zM656.998 371c0 -38 -7.16699 -73.667 -21.5 -107s-34 -62.5 -59 -87.5s-54.167 -44.667 -87.5 -59s-69 -21.5 -107 -21.5s-73.667 7.16699 -107 21.5s-62.5 34 -87.5 59s-44.833 54.167 -59.5 87.5s-22 69 -22 107
s7.33301 73.667 22 107s34.5 62.5 59.5 87.5s54.167 44.667 87.5 59s69 21.5 107 21.5s73.667 -7.16699 107 -21.5s62.5 -34 87.5 -59s44.667 -54.167 59 -87.5s21.5 -69 21.5 -107zM676.998 371c0 40.667 -7.66699 79 -23 115s-36.333 67.333 -63 94s-58 47.834 -94 63.501
s-74.333 23.5 -115 23.5s-79 -7.83301 -115 -23.5s-67.5 -36.834 -94.5 -63.501s-48.333 -58 -64 -94s-23.5 -74.333 -23.5 -115s7.83301 -78.834 23.5 -114.501s37 -67 64 -94s58.5 -48.333 94.5 -64s74.333 -23.5 115 -23.5s79 7.83301 115 23.5s67.333 37 94 64
s47.667 58.333 63 94s23 73.834 23 114.501zM706.998 104h-26v-69h-19v69h-25v16h70v-16zM723.998 371c0 -47.333 -9 -91.666 -27 -132.999s-42.5 -77.666 -73.5 -108.999s-67.333 -56 -109 -74s-85.834 -27 -132.501 -27c-47.333 0 -91.666 9 -132.999 27
s-77.5 42.667 -108.5 74s-55.5 67.666 -73.5 108.999s-27 85.666 -27 132.999s9 91.833 27 133.5s42.5 78 73.5 109s67.167 55.5 108.5 73.5s85.666 27 132.999 27c46.667 0 90.834 -9 132.501 -27s78 -42.5 109 -73.5s55.5 -67.333 73.5 -109s27 -86.167 27 -133.5z
M795.998 35h-15v69l-17 -69h-16l-17 69v-69h-16v85h25l17 -66l14 66h25v-85z" />
    <glyph glyph-name="ecircumflex" unicode="&#xea;" 
d="M537 242c-102.667 -26 -206.001 -26 -310.001 0c6.66699 -11.333 14.834 -23 24.501 -35s21 -23.333 34 -34s27.5 -19.334 43.5 -26.001s33.667 -10 53 -10c18.667 0 36 3.33301 52 10s30.5 15.334 43.5 26.001s24.5 22 34.5 34s18.333 23.667 25 35zM599.999 340
h-435.998l53 -84c55.333 -13.333 110.166 -19.833 164.499 -19.5s109.166 6.83301 164.499 19.5zM323.001 453c-8.66699 18 -15.6709 36.666 -21.0039 55.999s-13.666 36.666 -24.999 51.999c-2 2.66699 -6.16699 2.66699 -12.5 0s-13 -6.16699 -20 -10.5
s-13 -8.66602 -18 -12.999s-6.83301 -7.16602 -5.5 -8.49902l72 -90c0.666992 -1.33301 2.83398 -1.5 6.50098 -0.5s7.33398 2.33301 11.001 4s6.83398 3.5 9.50098 5.5s3.66699 3.66699 3 5zM418.997 370.999l-37 89l-36 -89h73zM541.997 528.999
c0.666992 1.33301 -1.33203 4.16699 -5.99902 8.5s-10.334 8.66602 -17.001 12.999s-13.167 7.83301 -19.5 10.5s-10.5 2.66699 -12.5 0c-12 -15.333 -20.833 -32.666 -26.5 -51.999s-12.167 -38 -19.5 -56c-1.33301 -1.33301 -0.666016 -3 2.00098 -5s6 -3.83301 10 -5.5
s7.66699 -3 11 -4s5.66602 -0.833008 6.99902 0.5zM656.998 371c0 -38 -7.16699 -73.667 -21.5 -107s-34 -62.5 -59 -87.5s-54.167 -44.667 -87.5 -59s-69 -21.5 -107 -21.5s-73.667 7.16699 -107 21.5s-62.5 34 -87.5 59s-44.833 54.167 -59.5 87.5s-22 69 -22 107
s7.33301 73.667 22 107s34.5 62.5 59.5 87.5s54.167 44.667 87.5 59s69 21.5 107 21.5s73.667 -7.16699 107 -21.5s62.5 -34 87.5 -59s44.667 -54.167 59 -87.5s21.5 -69 21.5 -107zM676.998 371c0 40.667 -7.66699 79 -23 115s-36.333 67.333 -63 94s-58 47.834 -94 63.501
s-74.333 23.5 -115 23.5s-79 -7.83301 -115 -23.5s-67.5 -36.834 -94.5 -63.501s-48.333 -58 -64 -94s-23.5 -74.333 -23.5 -115s7.83301 -78.834 23.5 -114.501s37 -67 64 -94s58.5 -48.333 94.5 -64s74.333 -23.5 115 -23.5s79 7.83301 115 23.5s67.333 37 94 64
s47.667 58.333 63 94s23 73.834 23 114.501zM706.998 104h-26v-69h-19v69h-25v16h70v-16zM723.998 371c0 -47.333 -9 -91.666 -27 -132.999s-42.5 -77.666 -73.5 -108.999s-67.333 -56 -109 -74s-85.834 -27 -132.501 -27c-47.333 0 -91.666 9 -132.999 27
s-77.5 42.667 -108.5 74s-55.5 67.666 -73.5 108.999s-27 85.666 -27 132.999s9 91.833 27 133.5s42.5 78 73.5 109s67.167 55.5 108.5 73.5s85.666 27 132.999 27c46.667 0 90.834 -9 132.501 -27s78 -42.5 109 -73.5s55.5 -67.333 73.5 -109s27 -86.167 27 -133.5z
M795.998 35h-15v69l-17 -69h-16l-17 69v-69h-16v85h25l17 -66l14 66h25v-85z" />
    <glyph glyph-name="edieresis" unicode="&#xeb;" 
d="M537 242c-102.667 -26 -206.001 -26 -310.001 0c6.66699 -11.333 14.834 -23 24.501 -35s21 -23.333 34 -34s27.5 -19.334 43.5 -26.001s33.667 -10 53 -10c18.667 0 36 3.33301 52 10s30.5 15.334 43.5 26.001s24.5 22 34.5 34s18.333 23.667 25 35zM599.999 340
h-435.998l53 -84c55.333 -13.333 110.166 -19.833 164.499 -19.5s109.166 6.83301 164.499 19.5zM323.001 453c-8.66699 18 -15.6709 36.666 -21.0039 55.999s-13.666 36.666 -24.999 51.999c-2 2.66699 -6.16699 2.66699 -12.5 0s-13 -6.16699 -20 -10.5
s-13 -8.66602 -18 -12.999s-6.83301 -7.16602 -5.5 -8.49902l72 -90c0.666992 -1.33301 2.83398 -1.5 6.50098 -0.5s7.33398 2.33301 11.001 4s6.83398 3.5 9.50098 5.5s3.66699 3.66699 3 5zM418.997 370.999l-37 89l-36 -89h73zM541.997 528.999
c0.666992 1.33301 -1.33203 4.16699 -5.99902 8.5s-10.334 8.66602 -17.001 12.999s-13.167 7.83301 -19.5 10.5s-10.5 2.66699 -12.5 0c-12 -15.333 -20.833 -32.666 -26.5 -51.999s-12.167 -38 -19.5 -56c-1.33301 -1.33301 -0.666016 -3 2.00098 -5s6 -3.83301 10 -5.5
s7.66699 -3 11 -4s5.66602 -0.833008 6.99902 0.5zM656.998 371c0 -38 -7.16699 -73.667 -21.5 -107s-34 -62.5 -59 -87.5s-54.167 -44.667 -87.5 -59s-69 -21.5 -107 -21.5s-73.667 7.16699 -107 21.5s-62.5 34 -87.5 59s-44.833 54.167 -59.5 87.5s-22 69 -22 107
s7.33301 73.667 22 107s34.5 62.5 59.5 87.5s54.167 44.667 87.5 59s69 21.5 107 21.5s73.667 -7.16699 107 -21.5s62.5 -34 87.5 -59s44.667 -54.167 59 -87.5s21.5 -69 21.5 -107zM676.998 371c0 40.667 -7.66699 79 -23 115s-36.333 67.333 -63 94s-58 47.834 -94 63.501
s-74.333 23.5 -115 23.5s-79 -7.83301 -115 -23.5s-67.5 -36.834 -94.5 -63.501s-48.333 -58 -64 -94s-23.5 -74.333 -23.5 -115s7.83301 -78.834 23.5 -114.501s37 -67 64 -94s58.5 -48.333 94.5 -64s74.333 -23.5 115 -23.5s79 7.83301 115 23.5s67.333 37 94 64
s47.667 58.333 63 94s23 73.834 23 114.501zM706.998 104h-26v-69h-19v69h-25v16h70v-16zM723.998 371c0 -47.333 -9 -91.666 -27 -132.999s-42.5 -77.666 -73.5 -108.999s-67.333 -56 -109 -74s-85.834 -27 -132.501 -27c-47.333 0 -91.666 9 -132.999 27
s-77.5 42.667 -108.5 74s-55.5 67.666 -73.5 108.999s-27 85.666 -27 132.999s9 91.833 27 133.5s42.5 78 73.5 109s67.167 55.5 108.5 73.5s85.666 27 132.999 27c46.667 0 90.834 -9 132.501 -27s78 -42.5 109 -73.5s55.5 -67.333 73.5 -109s27 -86.167 27 -133.5z
M795.998 35h-15v69l-17 -69h-16l-17 69v-69h-16v85h25l17 -66l14 66h25v-85z" />
    <glyph glyph-name="igrave" unicode="&#xec;" 
d="M537 242c-102.667 -26 -206.001 -26 -310.001 0c6.66699 -11.333 14.834 -23 24.501 -35s21 -23.333 34 -34s27.5 -19.334 43.5 -26.001s33.667 -10 53 -10c18.667 0 36 3.33301 52 10s30.5 15.334 43.5 26.001s24.5 22 34.5 34s18.333 23.667 25 35zM599.999 340
h-435.998l53 -84c55.333 -13.333 110.166 -19.833 164.499 -19.5s109.166 6.83301 164.499 19.5zM323.001 453c-8.66699 18 -15.6709 36.666 -21.0039 55.999s-13.666 36.666 -24.999 51.999c-2 2.66699 -6.16699 2.66699 -12.5 0s-13 -6.16699 -20 -10.5
s-13 -8.66602 -18 -12.999s-6.83301 -7.16602 -5.5 -8.49902l72 -90c0.666992 -1.33301 2.83398 -1.5 6.50098 -0.5s7.33398 2.33301 11.001 4s6.83398 3.5 9.50098 5.5s3.66699 3.66699 3 5zM418.997 370.999l-37 89l-36 -89h73zM541.997 528.999
c0.666992 1.33301 -1.33203 4.16699 -5.99902 8.5s-10.334 8.66602 -17.001 12.999s-13.167 7.83301 -19.5 10.5s-10.5 2.66699 -12.5 0c-12 -15.333 -20.833 -32.666 -26.5 -51.999s-12.167 -38 -19.5 -56c-1.33301 -1.33301 -0.666016 -3 2.00098 -5s6 -3.83301 10 -5.5
s7.66699 -3 11 -4s5.66602 -0.833008 6.99902 0.5zM656.998 371c0 -38 -7.16699 -73.667 -21.5 -107s-34 -62.5 -59 -87.5s-54.167 -44.667 -87.5 -59s-69 -21.5 -107 -21.5s-73.667 7.16699 -107 21.5s-62.5 34 -87.5 59s-44.833 54.167 -59.5 87.5s-22 69 -22 107
s7.33301 73.667 22 107s34.5 62.5 59.5 87.5s54.167 44.667 87.5 59s69 21.5 107 21.5s73.667 -7.16699 107 -21.5s62.5 -34 87.5 -59s44.667 -54.167 59 -87.5s21.5 -69 21.5 -107zM676.998 371c0 40.667 -7.66699 79 -23 115s-36.333 67.333 -63 94s-58 47.834 -94 63.501
s-74.333 23.5 -115 23.5s-79 -7.83301 -115 -23.5s-67.5 -36.834 -94.5 -63.501s-48.333 -58 -64 -94s-23.5 -74.333 -23.5 -115s7.83301 -78.834 23.5 -114.501s37 -67 64 -94s58.5 -48.333 94.5 -64s74.333 -23.5 115 -23.5s79 7.83301 115 23.5s67.333 37 94 64
s47.667 58.333 63 94s23 73.834 23 114.501zM706.998 104h-26v-69h-19v69h-25v16h70v-16zM723.998 371c0 -47.333 -9 -91.666 -27 -132.999s-42.5 -77.666 -73.5 -108.999s-67.333 -56 -109 -74s-85.834 -27 -132.501 -27c-47.333 0 -91.666 9 -132.999 27
s-77.5 42.667 -108.5 74s-55.5 67.666 -73.5 108.999s-27 85.666 -27 132.999s9 91.833 27 133.5s42.5 78 73.5 109s67.167 55.5 108.5 73.5s85.666 27 132.999 27c46.667 0 90.834 -9 132.501 -27s78 -42.5 109 -73.5s55.5 -67.333 73.5 -109s27 -86.167 27 -133.5z
M795.998 35h-15v69l-17 -69h-16l-17 69v-69h-16v85h25l17 -66l14 66h25v-85z" />
    <glyph glyph-name="iacute" unicode="&#xed;" 
d="M537 242c-102.667 -26 -206.001 -26 -310.001 0c6.66699 -11.333 14.834 -23 24.501 -35s21 -23.333 34 -34s27.5 -19.334 43.5 -26.001s33.667 -10 53 -10c18.667 0 36 3.33301 52 10s30.5 15.334 43.5 26.001s24.5 22 34.5 34s18.333 23.667 25 35zM599.999 340
h-435.998l53 -84c55.333 -13.333 110.166 -19.833 164.499 -19.5s109.166 6.83301 164.499 19.5zM323.001 453c-8.66699 18 -15.6709 36.666 -21.0039 55.999s-13.666 36.666 -24.999 51.999c-2 2.66699 -6.16699 2.66699 -12.5 0s-13 -6.16699 -20 -10.5
s-13 -8.66602 -18 -12.999s-6.83301 -7.16602 -5.5 -8.49902l72 -90c0.666992 -1.33301 2.83398 -1.5 6.50098 -0.5s7.33398 2.33301 11.001 4s6.83398 3.5 9.50098 5.5s3.66699 3.66699 3 5zM418.997 370.999l-37 89l-36 -89h73zM541.997 528.999
c0.666992 1.33301 -1.33203 4.16699 -5.99902 8.5s-10.334 8.66602 -17.001 12.999s-13.167 7.83301 -19.5 10.5s-10.5 2.66699 -12.5 0c-12 -15.333 -20.833 -32.666 -26.5 -51.999s-12.167 -38 -19.5 -56c-1.33301 -1.33301 -0.666016 -3 2.00098 -5s6 -3.83301 10 -5.5
s7.66699 -3 11 -4s5.66602 -0.833008 6.99902 0.5zM656.998 371c0 -38 -7.16699 -73.667 -21.5 -107s-34 -62.5 -59 -87.5s-54.167 -44.667 -87.5 -59s-69 -21.5 -107 -21.5s-73.667 7.16699 -107 21.5s-62.5 34 -87.5 59s-44.833 54.167 -59.5 87.5s-22 69 -22 107
s7.33301 73.667 22 107s34.5 62.5 59.5 87.5s54.167 44.667 87.5 59s69 21.5 107 21.5s73.667 -7.16699 107 -21.5s62.5 -34 87.5 -59s44.667 -54.167 59 -87.5s21.5 -69 21.5 -107zM676.998 371c0 40.667 -7.66699 79 -23 115s-36.333 67.333 -63 94s-58 47.834 -94 63.501
s-74.333 23.5 -115 23.5s-79 -7.83301 -115 -23.5s-67.5 -36.834 -94.5 -63.501s-48.333 -58 -64 -94s-23.5 -74.333 -23.5 -115s7.83301 -78.834 23.5 -114.501s37 -67 64 -94s58.5 -48.333 94.5 -64s74.333 -23.5 115 -23.5s79 7.83301 115 23.5s67.333 37 94 64
s47.667 58.333 63 94s23 73.834 23 114.501zM706.998 104h-26v-69h-19v69h-25v16h70v-16zM723.998 371c0 -47.333 -9 -91.666 -27 -132.999s-42.5 -77.666 -73.5 -108.999s-67.333 -56 -109 -74s-85.834 -27 -132.501 -27c-47.333 0 -91.666 9 -132.999 27
s-77.5 42.667 -108.5 74s-55.5 67.666 -73.5 108.999s-27 85.666 -27 132.999s9 91.833 27 133.5s42.5 78 73.5 109s67.167 55.5 108.5 73.5s85.666 27 132.999 27c46.667 0 90.834 -9 132.501 -27s78 -42.5 109 -73.5s55.5 -67.333 73.5 -109s27 -86.167 27 -133.5z
M795.998 35h-15v69l-17 -69h-16l-17 69v-69h-16v85h25l17 -66l14 66h25v-85z" />
    <glyph glyph-name="icircumflex" unicode="&#xee;" 
d="M537 242c-102.667 -26 -206.001 -26 -310.001 0c6.66699 -11.333 14.834 -23 24.501 -35s21 -23.333 34 -34s27.5 -19.334 43.5 -26.001s33.667 -10 53 -10c18.667 0 36 3.33301 52 10s30.5 15.334 43.5 26.001s24.5 22 34.5 34s18.333 23.667 25 35zM599.999 340
h-435.998l53 -84c55.333 -13.333 110.166 -19.833 164.499 -19.5s109.166 6.83301 164.499 19.5zM323.001 453c-8.66699 18 -15.6709 36.666 -21.0039 55.999s-13.666 36.666 -24.999 51.999c-2 2.66699 -6.16699 2.66699 -12.5 0s-13 -6.16699 -20 -10.5
s-13 -8.66602 -18 -12.999s-6.83301 -7.16602 -5.5 -8.49902l72 -90c0.666992 -1.33301 2.83398 -1.5 6.50098 -0.5s7.33398 2.33301 11.001 4s6.83398 3.5 9.50098 5.5s3.66699 3.66699 3 5zM418.997 370.999l-37 89l-36 -89h73zM541.997 528.999
c0.666992 1.33301 -1.33203 4.16699 -5.99902 8.5s-10.334 8.66602 -17.001 12.999s-13.167 7.83301 -19.5 10.5s-10.5 2.66699 -12.5 0c-12 -15.333 -20.833 -32.666 -26.5 -51.999s-12.167 -38 -19.5 -56c-1.33301 -1.33301 -0.666016 -3 2.00098 -5s6 -3.83301 10 -5.5
s7.66699 -3 11 -4s5.66602 -0.833008 6.99902 0.5zM656.998 371c0 -38 -7.16699 -73.667 -21.5 -107s-34 -62.5 -59 -87.5s-54.167 -44.667 -87.5 -59s-69 -21.5 -107 -21.5s-73.667 7.16699 -107 21.5s-62.5 34 -87.5 59s-44.833 54.167 -59.5 87.5s-22 69 -22 107
s7.33301 73.667 22 107s34.5 62.5 59.5 87.5s54.167 44.667 87.5 59s69 21.5 107 21.5s73.667 -7.16699 107 -21.5s62.5 -34 87.5 -59s44.667 -54.167 59 -87.5s21.5 -69 21.5 -107zM676.998 371c0 40.667 -7.66699 79 -23 115s-36.333 67.333 -63 94s-58 47.834 -94 63.501
s-74.333 23.5 -115 23.5s-79 -7.83301 -115 -23.5s-67.5 -36.834 -94.5 -63.501s-48.333 -58 -64 -94s-23.5 -74.333 -23.5 -115s7.83301 -78.834 23.5 -114.501s37 -67 64 -94s58.5 -48.333 94.5 -64s74.333 -23.5 115 -23.5s79 7.83301 115 23.5s67.333 37 94 64
s47.667 58.333 63 94s23 73.834 23 114.501zM706.998 104h-26v-69h-19v69h-25v16h70v-16zM723.998 371c0 -47.333 -9 -91.666 -27 -132.999s-42.5 -77.666 -73.5 -108.999s-67.333 -56 -109 -74s-85.834 -27 -132.501 -27c-47.333 0 -91.666 9 -132.999 27
s-77.5 42.667 -108.5 74s-55.5 67.666 -73.5 108.999s-27 85.666 -27 132.999s9 91.833 27 133.5s42.5 78 73.5 109s67.167 55.5 108.5 73.5s85.666 27 132.999 27c46.667 0 90.834 -9 132.501 -27s78 -42.5 109 -73.5s55.5 -67.333 73.5 -109s27 -86.167 27 -133.5z
M795.998 35h-15v69l-17 -69h-16l-17 69v-69h-16v85h25l17 -66l14 66h25v-85z" />
    <glyph glyph-name="idieresis" unicode="&#xef;" 
d="M537 242c-102.667 -26 -206.001 -26 -310.001 0c6.66699 -11.333 14.834 -23 24.501 -35s21 -23.333 34 -34s27.5 -19.334 43.5 -26.001s33.667 -10 53 -10c18.667 0 36 3.33301 52 10s30.5 15.334 43.5 26.001s24.5 22 34.5 34s18.333 23.667 25 35zM599.999 340
h-435.998l53 -84c55.333 -13.333 110.166 -19.833 164.499 -19.5s109.166 6.83301 164.499 19.5zM323.001 453c-8.66699 18 -15.6709 36.666 -21.0039 55.999s-13.666 36.666 -24.999 51.999c-2 2.66699 -6.16699 2.66699 -12.5 0s-13 -6.16699 -20 -10.5
s-13 -8.66602 -18 -12.999s-6.83301 -7.16602 -5.5 -8.49902l72 -90c0.666992 -1.33301 2.83398 -1.5 6.50098 -0.5s7.33398 2.33301 11.001 4s6.83398 3.5 9.50098 5.5s3.66699 3.66699 3 5zM418.997 370.999l-37 89l-36 -89h73zM541.997 528.999
c0.666992 1.33301 -1.33203 4.16699 -5.99902 8.5s-10.334 8.66602 -17.001 12.999s-13.167 7.83301 -19.5 10.5s-10.5 2.66699 -12.5 0c-12 -15.333 -20.833 -32.666 -26.5 -51.999s-12.167 -38 -19.5 -56c-1.33301 -1.33301 -0.666016 -3 2.00098 -5s6 -3.83301 10 -5.5
s7.66699 -3 11 -4s5.66602 -0.833008 6.99902 0.5zM656.998 371c0 -38 -7.16699 -73.667 -21.5 -107s-34 -62.5 -59 -87.5s-54.167 -44.667 -87.5 -59s-69 -21.5 -107 -21.5s-73.667 7.16699 -107 21.5s-62.5 34 -87.5 59s-44.833 54.167 -59.5 87.5s-22 69 -22 107
s7.33301 73.667 22 107s34.5 62.5 59.5 87.5s54.167 44.667 87.5 59s69 21.5 107 21.5s73.667 -7.16699 107 -21.5s62.5 -34 87.5 -59s44.667 -54.167 59 -87.5s21.5 -69 21.5 -107zM676.998 371c0 40.667 -7.66699 79 -23 115s-36.333 67.333 -63 94s-58 47.834 -94 63.501
s-74.333 23.5 -115 23.5s-79 -7.83301 -115 -23.5s-67.5 -36.834 -94.5 -63.501s-48.333 -58 -64 -94s-23.5 -74.333 -23.5 -115s7.83301 -78.834 23.5 -114.501s37 -67 64 -94s58.5 -48.333 94.5 -64s74.333 -23.5 115 -23.5s79 7.83301 115 23.5s67.333 37 94 64
s47.667 58.333 63 94s23 73.834 23 114.501zM706.998 104h-26v-69h-19v69h-25v16h70v-16zM723.998 371c0 -47.333 -9 -91.666 -27 -132.999s-42.5 -77.666 -73.5 -108.999s-67.333 -56 -109 -74s-85.834 -27 -132.501 -27c-47.333 0 -91.666 9 -132.999 27
s-77.5 42.667 -108.5 74s-55.5 67.666 -73.5 108.999s-27 85.666 -27 132.999s9 91.833 27 133.5s42.5 78 73.5 109s67.167 55.5 108.5 73.5s85.666 27 132.999 27c46.667 0 90.834 -9 132.501 -27s78 -42.5 109 -73.5s55.5 -67.333 73.5 -109s27 -86.167 27 -133.5z
M795.998 35h-15v69l-17 -69h-16l-17 69v-69h-16v85h25l17 -66l14 66h25v-85z" />
    <glyph glyph-name="eth" unicode="&#xf0;" 
d="M537 242c-102.667 -26 -206.001 -26 -310.001 0c6.66699 -11.333 14.834 -23 24.501 -35s21 -23.333 34 -34s27.5 -19.334 43.5 -26.001s33.667 -10 53 -10c18.667 0 36 3.33301 52 10s30.5 15.334 43.5 26.001s24.5 22 34.5 34s18.333 23.667 25 35zM599.999 340
h-435.998l53 -84c55.333 -13.333 110.166 -19.833 164.499 -19.5s109.166 6.83301 164.499 19.5zM323.001 453c-8.66699 18 -15.6709 36.666 -21.0039 55.999s-13.666 36.666 -24.999 51.999c-2 2.66699 -6.16699 2.66699 -12.5 0s-13 -6.16699 -20 -10.5
s-13 -8.66602 -18 -12.999s-6.83301 -7.16602 -5.5 -8.49902l72 -90c0.666992 -1.33301 2.83398 -1.5 6.50098 -0.5s7.33398 2.33301 11.001 4s6.83398 3.5 9.50098 5.5s3.66699 3.66699 3 5zM418.997 370.999l-37 89l-36 -89h73zM541.997 528.999
c0.666992 1.33301 -1.33203 4.16699 -5.99902 8.5s-10.334 8.66602 -17.001 12.999s-13.167 7.83301 -19.5 10.5s-10.5 2.66699 -12.5 0c-12 -15.333 -20.833 -32.666 -26.5 -51.999s-12.167 -38 -19.5 -56c-1.33301 -1.33301 -0.666016 -3 2.00098 -5s6 -3.83301 10 -5.5
s7.66699 -3 11 -4s5.66602 -0.833008 6.99902 0.5zM656.998 371c0 -38 -7.16699 -73.667 -21.5 -107s-34 -62.5 -59 -87.5s-54.167 -44.667 -87.5 -59s-69 -21.5 -107 -21.5s-73.667 7.16699 -107 21.5s-62.5 34 -87.5 59s-44.833 54.167 -59.5 87.5s-22 69 -22 107
s7.33301 73.667 22 107s34.5 62.5 59.5 87.5s54.167 44.667 87.5 59s69 21.5 107 21.5s73.667 -7.16699 107 -21.5s62.5 -34 87.5 -59s44.667 -54.167 59 -87.5s21.5 -69 21.5 -107zM676.998 371c0 40.667 -7.66699 79 -23 115s-36.333 67.333 -63 94s-58 47.834 -94 63.501
s-74.333 23.5 -115 23.5s-79 -7.83301 -115 -23.5s-67.5 -36.834 -94.5 -63.501s-48.333 -58 -64 -94s-23.5 -74.333 -23.5 -115s7.83301 -78.834 23.5 -114.501s37 -67 64 -94s58.5 -48.333 94.5 -64s74.333 -23.5 115 -23.5s79 7.83301 115 23.5s67.333 37 94 64
s47.667 58.333 63 94s23 73.834 23 114.501zM706.998 104h-26v-69h-19v69h-25v16h70v-16zM723.998 371c0 -47.333 -9 -91.666 -27 -132.999s-42.5 -77.666 -73.5 -108.999s-67.333 -56 -109 -74s-85.834 -27 -132.501 -27c-47.333 0 -91.666 9 -132.999 27
s-77.5 42.667 -108.5 74s-55.5 67.666 -73.5 108.999s-27 85.666 -27 132.999s9 91.833 27 133.5s42.5 78 73.5 109s67.167 55.5 108.5 73.5s85.666 27 132.999 27c46.667 0 90.834 -9 132.501 -27s78 -42.5 109 -73.5s55.5 -67.333 73.5 -109s27 -86.167 27 -133.5z
M795.998 35h-15v69l-17 -69h-16l-17 69v-69h-16v85h25l17 -66l14 66h25v-85z" />
    <glyph glyph-name="ntilde" unicode="&#xf1;" 
d="M537 242c-102.667 -26 -206.001 -26 -310.001 0c6.66699 -11.333 14.834 -23 24.501 -35s21 -23.333 34 -34s27.5 -19.334 43.5 -26.001s33.667 -10 53 -10c18.667 0 36 3.33301 52 10s30.5 15.334 43.5 26.001s24.5 22 34.5 34s18.333 23.667 25 35zM599.999 340
h-435.998l53 -84c55.333 -13.333 110.166 -19.833 164.499 -19.5s109.166 6.83301 164.499 19.5zM323.001 453c-8.66699 18 -15.6709 36.666 -21.0039 55.999s-13.666 36.666 -24.999 51.999c-2 2.66699 -6.16699 2.66699 -12.5 0s-13 -6.16699 -20 -10.5
s-13 -8.66602 -18 -12.999s-6.83301 -7.16602 -5.5 -8.49902l72 -90c0.666992 -1.33301 2.83398 -1.5 6.50098 -0.5s7.33398 2.33301 11.001 4s6.83398 3.5 9.50098 5.5s3.66699 3.66699 3 5zM418.997 370.999l-37 89l-36 -89h73zM541.997 528.999
c0.666992 1.33301 -1.33203 4.16699 -5.99902 8.5s-10.334 8.66602 -17.001 12.999s-13.167 7.83301 -19.5 10.5s-10.5 2.66699 -12.5 0c-12 -15.333 -20.833 -32.666 -26.5 -51.999s-12.167 -38 -19.5 -56c-1.33301 -1.33301 -0.666016 -3 2.00098 -5s6 -3.83301 10 -5.5
s7.66699 -3 11 -4s5.66602 -0.833008 6.99902 0.5zM656.998 371c0 -38 -7.16699 -73.667 -21.5 -107s-34 -62.5 -59 -87.5s-54.167 -44.667 -87.5 -59s-69 -21.5 -107 -21.5s-73.667 7.16699 -107 21.5s-62.5 34 -87.5 59s-44.833 54.167 -59.5 87.5s-22 69 -22 107
s7.33301 73.667 22 107s34.5 62.5 59.5 87.5s54.167 44.667 87.5 59s69 21.5 107 21.5s73.667 -7.16699 107 -21.5s62.5 -34 87.5 -59s44.667 -54.167 59 -87.5s21.5 -69 21.5 -107zM676.998 371c0 40.667 -7.66699 79 -23 115s-36.333 67.333 -63 94s-58 47.834 -94 63.501
s-74.333 23.5 -115 23.5s-79 -7.83301 -115 -23.5s-67.5 -36.834 -94.5 -63.501s-48.333 -58 -64 -94s-23.5 -74.333 -23.5 -115s7.83301 -78.834 23.5 -114.501s37 -67 64 -94s58.5 -48.333 94.5 -64s74.333 -23.5 115 -23.5s79 7.83301 115 23.5s67.333 37 94 64
s47.667 58.333 63 94s23 73.834 23 114.501zM706.998 104h-26v-69h-19v69h-25v16h70v-16zM723.998 371c0 -47.333 -9 -91.666 -27 -132.999s-42.5 -77.666 -73.5 -108.999s-67.333 -56 -109 -74s-85.834 -27 -132.501 -27c-47.333 0 -91.666 9 -132.999 27
s-77.5 42.667 -108.5 74s-55.5 67.666 -73.5 108.999s-27 85.666 -27 132.999s9 91.833 27 133.5s42.5 78 73.5 109s67.167 55.5 108.5 73.5s85.666 27 132.999 27c46.667 0 90.834 -9 132.501 -27s78 -42.5 109 -73.5s55.5 -67.333 73.5 -109s27 -86.167 27 -133.5z
M795.998 35h-15v69l-17 -69h-16l-17 69v-69h-16v85h25l17 -66l14 66h25v-85z" />
    <glyph glyph-name="ograve" unicode="&#xf2;" 
d="M537 242c-102.667 -26 -206.001 -26 -310.001 0c6.66699 -11.333 14.834 -23 24.501 -35s21 -23.333 34 -34s27.5 -19.334 43.5 -26.001s33.667 -10 53 -10c18.667 0 36 3.33301 52 10s30.5 15.334 43.5 26.001s24.5 22 34.5 34s18.333 23.667 25 35zM599.999 340
h-435.998l53 -84c55.333 -13.333 110.166 -19.833 164.499 -19.5s109.166 6.83301 164.499 19.5zM323.001 453c-8.66699 18 -15.6709 36.666 -21.0039 55.999s-13.666 36.666 -24.999 51.999c-2 2.66699 -6.16699 2.66699 -12.5 0s-13 -6.16699 -20 -10.5
s-13 -8.66602 -18 -12.999s-6.83301 -7.16602 -5.5 -8.49902l72 -90c0.666992 -1.33301 2.83398 -1.5 6.50098 -0.5s7.33398 2.33301 11.001 4s6.83398 3.5 9.50098 5.5s3.66699 3.66699 3 5zM418.997 370.999l-37 89l-36 -89h73zM541.997 528.999
c0.666992 1.33301 -1.33203 4.16699 -5.99902 8.5s-10.334 8.66602 -17.001 12.999s-13.167 7.83301 -19.5 10.5s-10.5 2.66699 -12.5 0c-12 -15.333 -20.833 -32.666 -26.5 -51.999s-12.167 -38 -19.5 -56c-1.33301 -1.33301 -0.666016 -3 2.00098 -5s6 -3.83301 10 -5.5
s7.66699 -3 11 -4s5.66602 -0.833008 6.99902 0.5zM656.998 371c0 -38 -7.16699 -73.667 -21.5 -107s-34 -62.5 -59 -87.5s-54.167 -44.667 -87.5 -59s-69 -21.5 -107 -21.5s-73.667 7.16699 -107 21.5s-62.5 34 -87.5 59s-44.833 54.167 -59.5 87.5s-22 69 -22 107
s7.33301 73.667 22 107s34.5 62.5 59.5 87.5s54.167 44.667 87.5 59s69 21.5 107 21.5s73.667 -7.16699 107 -21.5s62.5 -34 87.5 -59s44.667 -54.167 59 -87.5s21.5 -69 21.5 -107zM676.998 371c0 40.667 -7.66699 79 -23 115s-36.333 67.333 -63 94s-58 47.834 -94 63.501
s-74.333 23.5 -115 23.5s-79 -7.83301 -115 -23.5s-67.5 -36.834 -94.5 -63.501s-48.333 -58 -64 -94s-23.5 -74.333 -23.5 -115s7.83301 -78.834 23.5 -114.501s37 -67 64 -94s58.5 -48.333 94.5 -64s74.333 -23.5 115 -23.5s79 7.83301 115 23.5s67.333 37 94 64
s47.667 58.333 63 94s23 73.834 23 114.501zM706.998 104h-26v-69h-19v69h-25v16h70v-16zM723.998 371c0 -47.333 -9 -91.666 -27 -132.999s-42.5 -77.666 -73.5 -108.999s-67.333 -56 -109 -74s-85.834 -27 -132.501 -27c-47.333 0 -91.666 9 -132.999 27
s-77.5 42.667 -108.5 74s-55.5 67.666 -73.5 108.999s-27 85.666 -27 132.999s9 91.833 27 133.5s42.5 78 73.5 109s67.167 55.5 108.5 73.5s85.666 27 132.999 27c46.667 0 90.834 -9 132.501 -27s78 -42.5 109 -73.5s55.5 -67.333 73.5 -109s27 -86.167 27 -133.5z
M795.998 35h-15v69l-17 -69h-16l-17 69v-69h-16v85h25l17 -66l14 66h25v-85z" />
    <glyph glyph-name="oacute" unicode="&#xf3;" 
d="M537 242c-102.667 -26 -206.001 -26 -310.001 0c6.66699 -11.333 14.834 -23 24.501 -35s21 -23.333 34 -34s27.5 -19.334 43.5 -26.001s33.667 -10 53 -10c18.667 0 36 3.33301 52 10s30.5 15.334 43.5 26.001s24.5 22 34.5 34s18.333 23.667 25 35zM599.999 340
h-435.998l53 -84c55.333 -13.333 110.166 -19.833 164.499 -19.5s109.166 6.83301 164.499 19.5zM323.001 453c-8.66699 18 -15.6709 36.666 -21.0039 55.999s-13.666 36.666 -24.999 51.999c-2 2.66699 -6.16699 2.66699 -12.5 0s-13 -6.16699 -20 -10.5
s-13 -8.66602 -18 -12.999s-6.83301 -7.16602 -5.5 -8.49902l72 -90c0.666992 -1.33301 2.83398 -1.5 6.50098 -0.5s7.33398 2.33301 11.001 4s6.83398 3.5 9.50098 5.5s3.66699 3.66699 3 5zM418.997 370.999l-37 89l-36 -89h73zM541.997 528.999
c0.666992 1.33301 -1.33203 4.16699 -5.99902 8.5s-10.334 8.66602 -17.001 12.999s-13.167 7.83301 -19.5 10.5s-10.5 2.66699 -12.5 0c-12 -15.333 -20.833 -32.666 -26.5 -51.999s-12.167 -38 -19.5 -56c-1.33301 -1.33301 -0.666016 -3 2.00098 -5s6 -3.83301 10 -5.5
s7.66699 -3 11 -4s5.66602 -0.833008 6.99902 0.5zM656.998 371c0 -38 -7.16699 -73.667 -21.5 -107s-34 -62.5 -59 -87.5s-54.167 -44.667 -87.5 -59s-69 -21.5 -107 -21.5s-73.667 7.16699 -107 21.5s-62.5 34 -87.5 59s-44.833 54.167 -59.5 87.5s-22 69 -22 107
s7.33301 73.667 22 107s34.5 62.5 59.5 87.5s54.167 44.667 87.5 59s69 21.5 107 21.5s73.667 -7.16699 107 -21.5s62.5 -34 87.5 -59s44.667 -54.167 59 -87.5s21.5 -69 21.5 -107zM676.998 371c0 40.667 -7.66699 79 -23 115s-36.333 67.333 -63 94s-58 47.834 -94 63.501
s-74.333 23.5 -115 23.5s-79 -7.83301 -115 -23.5s-67.5 -36.834 -94.5 -63.501s-48.333 -58 -64 -94s-23.5 -74.333 -23.5 -115s7.83301 -78.834 23.5 -114.501s37 -67 64 -94s58.5 -48.333 94.5 -64s74.333 -23.5 115 -23.5s79 7.83301 115 23.5s67.333 37 94 64
s47.667 58.333 63 94s23 73.834 23 114.501zM706.998 104h-26v-69h-19v69h-25v16h70v-16zM723.998 371c0 -47.333 -9 -91.666 -27 -132.999s-42.5 -77.666 -73.5 -108.999s-67.333 -56 -109 -74s-85.834 -27 -132.501 -27c-47.333 0 -91.666 9 -132.999 27
s-77.5 42.667 -108.5 74s-55.5 67.666 -73.5 108.999s-27 85.666 -27 132.999s9 91.833 27 133.5s42.5 78 73.5 109s67.167 55.5 108.5 73.5s85.666 27 132.999 27c46.667 0 90.834 -9 132.501 -27s78 -42.5 109 -73.5s55.5 -67.333 73.5 -109s27 -86.167 27 -133.5z
M795.998 35h-15v69l-17 -69h-16l-17 69v-69h-16v85h25l17 -66l14 66h25v-85z" />
    <glyph glyph-name="ocircumflex" unicode="&#xf4;" 
d="M537 242c-102.667 -26 -206.001 -26 -310.001 0c6.66699 -11.333 14.834 -23 24.501 -35s21 -23.333 34 -34s27.5 -19.334 43.5 -26.001s33.667 -10 53 -10c18.667 0 36 3.33301 52 10s30.5 15.334 43.5 26.001s24.5 22 34.5 34s18.333 23.667 25 35zM599.999 340
h-435.998l53 -84c55.333 -13.333 110.166 -19.833 164.499 -19.5s109.166 6.83301 164.499 19.5zM323.001 453c-8.66699 18 -15.6709 36.666 -21.0039 55.999s-13.666 36.666 -24.999 51.999c-2 2.66699 -6.16699 2.66699 -12.5 0s-13 -6.16699 -20 -10.5
s-13 -8.66602 -18 -12.999s-6.83301 -7.16602 -5.5 -8.49902l72 -90c0.666992 -1.33301 2.83398 -1.5 6.50098 -0.5s7.33398 2.33301 11.001 4s6.83398 3.5 9.50098 5.5s3.66699 3.66699 3 5zM418.997 370.999l-37 89l-36 -89h73zM541.997 528.999
c0.666992 1.33301 -1.33203 4.16699 -5.99902 8.5s-10.334 8.66602 -17.001 12.999s-13.167 7.83301 -19.5 10.5s-10.5 2.66699 -12.5 0c-12 -15.333 -20.833 -32.666 -26.5 -51.999s-12.167 -38 -19.5 -56c-1.33301 -1.33301 -0.666016 -3 2.00098 -5s6 -3.83301 10 -5.5
s7.66699 -3 11 -4s5.66602 -0.833008 6.99902 0.5zM656.998 371c0 -38 -7.16699 -73.667 -21.5 -107s-34 -62.5 -59 -87.5s-54.167 -44.667 -87.5 -59s-69 -21.5 -107 -21.5s-73.667 7.16699 -107 21.5s-62.5 34 -87.5 59s-44.833 54.167 -59.5 87.5s-22 69 -22 107
s7.33301 73.667 22 107s34.5 62.5 59.5 87.5s54.167 44.667 87.5 59s69 21.5 107 21.5s73.667 -7.16699 107 -21.5s62.5 -34 87.5 -59s44.667 -54.167 59 -87.5s21.5 -69 21.5 -107zM676.998 371c0 40.667 -7.66699 79 -23 115s-36.333 67.333 -63 94s-58 47.834 -94 63.501
s-74.333 23.5 -115 23.5s-79 -7.83301 -115 -23.5s-67.5 -36.834 -94.5 -63.501s-48.333 -58 -64 -94s-23.5 -74.333 -23.5 -115s7.83301 -78.834 23.5 -114.501s37 -67 64 -94s58.5 -48.333 94.5 -64s74.333 -23.5 115 -23.5s79 7.83301 115 23.5s67.333 37 94 64
s47.667 58.333 63 94s23 73.834 23 114.501zM706.998 104h-26v-69h-19v69h-25v16h70v-16zM723.998 371c0 -47.333 -9 -91.666 -27 -132.999s-42.5 -77.666 -73.5 -108.999s-67.333 -56 -109 -74s-85.834 -27 -132.501 -27c-47.333 0 -91.666 9 -132.999 27
s-77.5 42.667 -108.5 74s-55.5 67.666 -73.5 108.999s-27 85.666 -27 132.999s9 91.833 27 133.5s42.5 78 73.5 109s67.167 55.5 108.5 73.5s85.666 27 132.999 27c46.667 0 90.834 -9 132.501 -27s78 -42.5 109 -73.5s55.5 -67.333 73.5 -109s27 -86.167 27 -133.5z
M795.998 35h-15v69l-17 -69h-16l-17 69v-69h-16v85h25l17 -66l14 66h25v-85z" />
    <glyph glyph-name="otilde" unicode="&#xf5;" 
d="M537 242c-102.667 -26 -206.001 -26 -310.001 0c6.66699 -11.333 14.834 -23 24.501 -35s21 -23.333 34 -34s27.5 -19.334 43.5 -26.001s33.667 -10 53 -10c18.667 0 36 3.33301 52 10s30.5 15.334 43.5 26.001s24.5 22 34.5 34s18.333 23.667 25 35zM599.999 340
h-435.998l53 -84c55.333 -13.333 110.166 -19.833 164.499 -19.5s109.166 6.83301 164.499 19.5zM323.001 453c-8.66699 18 -15.6709 36.666 -21.0039 55.999s-13.666 36.666 -24.999 51.999c-2 2.66699 -6.16699 2.66699 -12.5 0s-13 -6.16699 -20 -10.5
s-13 -8.66602 -18 -12.999s-6.83301 -7.16602 -5.5 -8.49902l72 -90c0.666992 -1.33301 2.83398 -1.5 6.50098 -0.5s7.33398 2.33301 11.001 4s6.83398 3.5 9.50098 5.5s3.66699 3.66699 3 5zM418.997 370.999l-37 89l-36 -89h73zM541.997 528.999
c0.666992 1.33301 -1.33203 4.16699 -5.99902 8.5s-10.334 8.66602 -17.001 12.999s-13.167 7.83301 -19.5 10.5s-10.5 2.66699 -12.5 0c-12 -15.333 -20.833 -32.666 -26.5 -51.999s-12.167 -38 -19.5 -56c-1.33301 -1.33301 -0.666016 -3 2.00098 -5s6 -3.83301 10 -5.5
s7.66699 -3 11 -4s5.66602 -0.833008 6.99902 0.5zM656.998 371c0 -38 -7.16699 -73.667 -21.5 -107s-34 -62.5 -59 -87.5s-54.167 -44.667 -87.5 -59s-69 -21.5 -107 -21.5s-73.667 7.16699 -107 21.5s-62.5 34 -87.5 59s-44.833 54.167 -59.5 87.5s-22 69 -22 107
s7.33301 73.667 22 107s34.5 62.5 59.5 87.5s54.167 44.667 87.5 59s69 21.5 107 21.5s73.667 -7.16699 107 -21.5s62.5 -34 87.5 -59s44.667 -54.167 59 -87.5s21.5 -69 21.5 -107zM676.998 371c0 40.667 -7.66699 79 -23 115s-36.333 67.333 -63 94s-58 47.834 -94 63.501
s-74.333 23.5 -115 23.5s-79 -7.83301 -115 -23.5s-67.5 -36.834 -94.5 -63.501s-48.333 -58 -64 -94s-23.5 -74.333 -23.5 -115s7.83301 -78.834 23.5 -114.501s37 -67 64 -94s58.5 -48.333 94.5 -64s74.333 -23.5 115 -23.5s79 7.83301 115 23.5s67.333 37 94 64
s47.667 58.333 63 94s23 73.834 23 114.501zM706.998 104h-26v-69h-19v69h-25v16h70v-16zM723.998 371c0 -47.333 -9 -91.666 -27 -132.999s-42.5 -77.666 -73.5 -108.999s-67.333 -56 -109 -74s-85.834 -27 -132.501 -27c-47.333 0 -91.666 9 -132.999 27
s-77.5 42.667 -108.5 74s-55.5 67.666 -73.5 108.999s-27 85.666 -27 132.999s9 91.833 27 133.5s42.5 78 73.5 109s67.167 55.5 108.5 73.5s85.666 27 132.999 27c46.667 0 90.834 -9 132.501 -27s78 -42.5 109 -73.5s55.5 -67.333 73.5 -109s27 -86.167 27 -133.5z
M795.998 35h-15v69l-17 -69h-16l-17 69v-69h-16v85h25l17 -66l14 66h25v-85z" />
    <glyph glyph-name="odieresis" unicode="&#xf6;" 
d="M537 242c-102.667 -26 -206.001 -26 -310.001 0c6.66699 -11.333 14.834 -23 24.501 -35s21 -23.333 34 -34s27.5 -19.334 43.5 -26.001s33.667 -10 53 -10c18.667 0 36 3.33301 52 10s30.5 15.334 43.5 26.001s24.5 22 34.5 34s18.333 23.667 25 35zM599.999 340
h-435.998l53 -84c55.333 -13.333 110.166 -19.833 164.499 -19.5s109.166 6.83301 164.499 19.5zM323.001 453c-8.66699 18 -15.6709 36.666 -21.0039 55.999s-13.666 36.666 -24.999 51.999c-2 2.66699 -6.16699 2.66699 -12.5 0s-13 -6.16699 -20 -10.5
s-13 -8.66602 -18 -12.999s-6.83301 -7.16602 -5.5 -8.49902l72 -90c0.666992 -1.33301 2.83398 -1.5 6.50098 -0.5s7.33398 2.33301 11.001 4s6.83398 3.5 9.50098 5.5s3.66699 3.66699 3 5zM418.997 370.999l-37 89l-36 -89h73zM541.997 528.999
c0.666992 1.33301 -1.33203 4.16699 -5.99902 8.5s-10.334 8.66602 -17.001 12.999s-13.167 7.83301 -19.5 10.5s-10.5 2.66699 -12.5 0c-12 -15.333 -20.833 -32.666 -26.5 -51.999s-12.167 -38 -19.5 -56c-1.33301 -1.33301 -0.666016 -3 2.00098 -5s6 -3.83301 10 -5.5
s7.66699 -3 11 -4s5.66602 -0.833008 6.99902 0.5zM656.998 371c0 -38 -7.16699 -73.667 -21.5 -107s-34 -62.5 -59 -87.5s-54.167 -44.667 -87.5 -59s-69 -21.5 -107 -21.5s-73.667 7.16699 -107 21.5s-62.5 34 -87.5 59s-44.833 54.167 -59.5 87.5s-22 69 -22 107
s7.33301 73.667 22 107s34.5 62.5 59.5 87.5s54.167 44.667 87.5 59s69 21.5 107 21.5s73.667 -7.16699 107 -21.5s62.5 -34 87.5 -59s44.667 -54.167 59 -87.5s21.5 -69 21.5 -107zM676.998 371c0 40.667 -7.66699 79 -23 115s-36.333 67.333 -63 94s-58 47.834 -94 63.501
s-74.333 23.5 -115 23.5s-79 -7.83301 -115 -23.5s-67.5 -36.834 -94.5 -63.501s-48.333 -58 -64 -94s-23.5 -74.333 -23.5 -115s7.83301 -78.834 23.5 -114.501s37 -67 64 -94s58.5 -48.333 94.5 -64s74.333 -23.5 115 -23.5s79 7.83301 115 23.5s67.333 37 94 64
s47.667 58.333 63 94s23 73.834 23 114.501zM706.998 104h-26v-69h-19v69h-25v16h70v-16zM723.998 371c0 -47.333 -9 -91.666 -27 -132.999s-42.5 -77.666 -73.5 -108.999s-67.333 -56 -109 -74s-85.834 -27 -132.501 -27c-47.333 0 -91.666 9 -132.999 27
s-77.5 42.667 -108.5 74s-55.5 67.666 -73.5 108.999s-27 85.666 -27 132.999s9 91.833 27 133.5s42.5 78 73.5 109s67.167 55.5 108.5 73.5s85.666 27 132.999 27c46.667 0 90.834 -9 132.501 -27s78 -42.5 109 -73.5s55.5 -67.333 73.5 -109s27 -86.167 27 -133.5z
M795.998 35h-15v69l-17 -69h-16l-17 69v-69h-16v85h25l17 -66l14 66h25v-85z" />
    <glyph glyph-name="divide" unicode="&#xf7;" 
d="M537 242c-102.667 -26 -206.001 -26 -310.001 0c6.66699 -11.333 14.834 -23 24.501 -35s21 -23.333 34 -34s27.5 -19.334 43.5 -26.001s33.667 -10 53 -10c18.667 0 36 3.33301 52 10s30.5 15.334 43.5 26.001s24.5 22 34.5 34s18.333 23.667 25 35zM599.999 340
h-435.998l53 -84c55.333 -13.333 110.166 -19.833 164.499 -19.5s109.166 6.83301 164.499 19.5zM323.001 453c-8.66699 18 -15.6709 36.666 -21.0039 55.999s-13.666 36.666 -24.999 51.999c-2 2.66699 -6.16699 2.66699 -12.5 0s-13 -6.16699 -20 -10.5
s-13 -8.66602 -18 -12.999s-6.83301 -7.16602 -5.5 -8.49902l72 -90c0.666992 -1.33301 2.83398 -1.5 6.50098 -0.5s7.33398 2.33301 11.001 4s6.83398 3.5 9.50098 5.5s3.66699 3.66699 3 5zM418.997 370.999l-37 89l-36 -89h73zM541.997 528.999
c0.666992 1.33301 -1.33203 4.16699 -5.99902 8.5s-10.334 8.66602 -17.001 12.999s-13.167 7.83301 -19.5 10.5s-10.5 2.66699 -12.5 0c-12 -15.333 -20.833 -32.666 -26.5 -51.999s-12.167 -38 -19.5 -56c-1.33301 -1.33301 -0.666016 -3 2.00098 -5s6 -3.83301 10 -5.5
s7.66699 -3 11 -4s5.66602 -0.833008 6.99902 0.5zM656.998 371c0 -38 -7.16699 -73.667 -21.5 -107s-34 -62.5 -59 -87.5s-54.167 -44.667 -87.5 -59s-69 -21.5 -107 -21.5s-73.667 7.16699 -107 21.5s-62.5 34 -87.5 59s-44.833 54.167 -59.5 87.5s-22 69 -22 107
s7.33301 73.667 22 107s34.5 62.5 59.5 87.5s54.167 44.667 87.5 59s69 21.5 107 21.5s73.667 -7.16699 107 -21.5s62.5 -34 87.5 -59s44.667 -54.167 59 -87.5s21.5 -69 21.5 -107zM676.998 371c0 40.667 -7.66699 79 -23 115s-36.333 67.333 -63 94s-58 47.834 -94 63.501
s-74.333 23.5 -115 23.5s-79 -7.83301 -115 -23.5s-67.5 -36.834 -94.5 -63.501s-48.333 -58 -64 -94s-23.5 -74.333 -23.5 -115s7.83301 -78.834 23.5 -114.501s37 -67 64 -94s58.5 -48.333 94.5 -64s74.333 -23.5 115 -23.5s79 7.83301 115 23.5s67.333 37 94 64
s47.667 58.333 63 94s23 73.834 23 114.501zM706.998 104h-26v-69h-19v69h-25v16h70v-16zM723.998 371c0 -47.333 -9 -91.666 -27 -132.999s-42.5 -77.666 -73.5 -108.999s-67.333 -56 -109 -74s-85.834 -27 -132.501 -27c-47.333 0 -91.666 9 -132.999 27
s-77.5 42.667 -108.5 74s-55.5 67.666 -73.5 108.999s-27 85.666 -27 132.999s9 91.833 27 133.5s42.5 78 73.5 109s67.167 55.5 108.5 73.5s85.666 27 132.999 27c46.667 0 90.834 -9 132.501 -27s78 -42.5 109 -73.5s55.5 -67.333 73.5 -109s27 -86.167 27 -133.5z
M795.998 35h-15v69l-17 -69h-16l-17 69v-69h-16v85h25l17 -66l14 66h25v-85z" />
    <glyph glyph-name="oslash" unicode="&#xf8;" 
d="M537 242c-102.667 -26 -206.001 -26 -310.001 0c6.66699 -11.333 14.834 -23 24.501 -35s21 -23.333 34 -34s27.5 -19.334 43.5 -26.001s33.667 -10 53 -10c18.667 0 36 3.33301 52 10s30.5 15.334 43.5 26.001s24.5 22 34.5 34s18.333 23.667 25 35zM599.999 340
h-435.998l53 -84c55.333 -13.333 110.166 -19.833 164.499 -19.5s109.166 6.83301 164.499 19.5zM323.001 453c-8.66699 18 -15.6709 36.666 -21.0039 55.999s-13.666 36.666 -24.999 51.999c-2 2.66699 -6.16699 2.66699 -12.5 0s-13 -6.16699 -20 -10.5
s-13 -8.66602 -18 -12.999s-6.83301 -7.16602 -5.5 -8.49902l72 -90c0.666992 -1.33301 2.83398 -1.5 6.50098 -0.5s7.33398 2.33301 11.001 4s6.83398 3.5 9.50098 5.5s3.66699 3.66699 3 5zM418.997 370.999l-37 89l-36 -89h73zM541.997 528.999
c0.666992 1.33301 -1.33203 4.16699 -5.99902 8.5s-10.334 8.66602 -17.001 12.999s-13.167 7.83301 -19.5 10.5s-10.5 2.66699 -12.5 0c-12 -15.333 -20.833 -32.666 -26.5 -51.999s-12.167 -38 -19.5 -56c-1.33301 -1.33301 -0.666016 -3 2.00098 -5s6 -3.83301 10 -5.5
s7.66699 -3 11 -4s5.66602 -0.833008 6.99902 0.5zM656.998 371c0 -38 -7.16699 -73.667 -21.5 -107s-34 -62.5 -59 -87.5s-54.167 -44.667 -87.5 -59s-69 -21.5 -107 -21.5s-73.667 7.16699 -107 21.5s-62.5 34 -87.5 59s-44.833 54.167 -59.5 87.5s-22 69 -22 107
s7.33301 73.667 22 107s34.5 62.5 59.5 87.5s54.167 44.667 87.5 59s69 21.5 107 21.5s73.667 -7.16699 107 -21.5s62.5 -34 87.5 -59s44.667 -54.167 59 -87.5s21.5 -69 21.5 -107zM676.998 371c0 40.667 -7.66699 79 -23 115s-36.333 67.333 -63 94s-58 47.834 -94 63.501
s-74.333 23.5 -115 23.5s-79 -7.83301 -115 -23.5s-67.5 -36.834 -94.5 -63.501s-48.333 -58 -64 -94s-23.5 -74.333 -23.5 -115s7.83301 -78.834 23.5 -114.501s37 -67 64 -94s58.5 -48.333 94.5 -64s74.333 -23.5 115 -23.5s79 7.83301 115 23.5s67.333 37 94 64
s47.667 58.333 63 94s23 73.834 23 114.501zM706.998 104h-26v-69h-19v69h-25v16h70v-16zM723.998 371c0 -47.333 -9 -91.666 -27 -132.999s-42.5 -77.666 -73.5 -108.999s-67.333 -56 -109 -74s-85.834 -27 -132.501 -27c-47.333 0 -91.666 9 -132.999 27
s-77.5 42.667 -108.5 74s-55.5 67.666 -73.5 108.999s-27 85.666 -27 132.999s9 91.833 27 133.5s42.5 78 73.5 109s67.167 55.5 108.5 73.5s85.666 27 132.999 27c46.667 0 90.834 -9 132.501 -27s78 -42.5 109 -73.5s55.5 -67.333 73.5 -109s27 -86.167 27 -133.5z
M795.998 35h-15v69l-17 -69h-16l-17 69v-69h-16v85h25l17 -66l14 66h25v-85z" />
    <glyph glyph-name="ugrave" unicode="&#xf9;" 
d="M537 242c-102.667 -26 -206.001 -26 -310.001 0c6.66699 -11.333 14.834 -23 24.501 -35s21 -23.333 34 -34s27.5 -19.334 43.5 -26.001s33.667 -10 53 -10c18.667 0 36 3.33301 52 10s30.5 15.334 43.5 26.001s24.5 22 34.5 34s18.333 23.667 25 35zM599.999 340
h-435.998l53 -84c55.333 -13.333 110.166 -19.833 164.499 -19.5s109.166 6.83301 164.499 19.5zM323.001 453c-8.66699 18 -15.6709 36.666 -21.0039 55.999s-13.666 36.666 -24.999 51.999c-2 2.66699 -6.16699 2.66699 -12.5 0s-13 -6.16699 -20 -10.5
s-13 -8.66602 -18 -12.999s-6.83301 -7.16602 -5.5 -8.49902l72 -90c0.666992 -1.33301 2.83398 -1.5 6.50098 -0.5s7.33398 2.33301 11.001 4s6.83398 3.5 9.50098 5.5s3.66699 3.66699 3 5zM418.997 370.999l-37 89l-36 -89h73zM541.997 528.999
c0.666992 1.33301 -1.33203 4.16699 -5.99902 8.5s-10.334 8.66602 -17.001 12.999s-13.167 7.83301 -19.5 10.5s-10.5 2.66699 -12.5 0c-12 -15.333 -20.833 -32.666 -26.5 -51.999s-12.167 -38 -19.5 -56c-1.33301 -1.33301 -0.666016 -3 2.00098 -5s6 -3.83301 10 -5.5
s7.66699 -3 11 -4s5.66602 -0.833008 6.99902 0.5zM656.998 371c0 -38 -7.16699 -73.667 -21.5 -107s-34 -62.5 -59 -87.5s-54.167 -44.667 -87.5 -59s-69 -21.5 -107 -21.5s-73.667 7.16699 -107 21.5s-62.5 34 -87.5 59s-44.833 54.167 -59.5 87.5s-22 69 -22 107
s7.33301 73.667 22 107s34.5 62.5 59.5 87.5s54.167 44.667 87.5 59s69 21.5 107 21.5s73.667 -7.16699 107 -21.5s62.5 -34 87.5 -59s44.667 -54.167 59 -87.5s21.5 -69 21.5 -107zM676.998 371c0 40.667 -7.66699 79 -23 115s-36.333 67.333 -63 94s-58 47.834 -94 63.501
s-74.333 23.5 -115 23.5s-79 -7.83301 -115 -23.5s-67.5 -36.834 -94.5 -63.501s-48.333 -58 -64 -94s-23.5 -74.333 -23.5 -115s7.83301 -78.834 23.5 -114.501s37 -67 64 -94s58.5 -48.333 94.5 -64s74.333 -23.5 115 -23.5s79 7.83301 115 23.5s67.333 37 94 64
s47.667 58.333 63 94s23 73.834 23 114.501zM706.998 104h-26v-69h-19v69h-25v16h70v-16zM723.998 371c0 -47.333 -9 -91.666 -27 -132.999s-42.5 -77.666 -73.5 -108.999s-67.333 -56 -109 -74s-85.834 -27 -132.501 -27c-47.333 0 -91.666 9 -132.999 27
s-77.5 42.667 -108.5 74s-55.5 67.666 -73.5 108.999s-27 85.666 -27 132.999s9 91.833 27 133.5s42.5 78 73.5 109s67.167 55.5 108.5 73.5s85.666 27 132.999 27c46.667 0 90.834 -9 132.501 -27s78 -42.5 109 -73.5s55.5 -67.333 73.5 -109s27 -86.167 27 -133.5z
M795.998 35h-15v69l-17 -69h-16l-17 69v-69h-16v85h25l17 -66l14 66h25v-85z" />
    <glyph glyph-name="uacute" unicode="&#xfa;" 
d="M537 242c-102.667 -26 -206.001 -26 -310.001 0c6.66699 -11.333 14.834 -23 24.501 -35s21 -23.333 34 -34s27.5 -19.334 43.5 -26.001s33.667 -10 53 -10c18.667 0 36 3.33301 52 10s30.5 15.334 43.5 26.001s24.5 22 34.5 34s18.333 23.667 25 35zM599.999 340
h-435.998l53 -84c55.333 -13.333 110.166 -19.833 164.499 -19.5s109.166 6.83301 164.499 19.5zM323.001 453c-8.66699 18 -15.6709 36.666 -21.0039 55.999s-13.666 36.666 -24.999 51.999c-2 2.66699 -6.16699 2.66699 -12.5 0s-13 -6.16699 -20 -10.5
s-13 -8.66602 -18 -12.999s-6.83301 -7.16602 -5.5 -8.49902l72 -90c0.666992 -1.33301 2.83398 -1.5 6.50098 -0.5s7.33398 2.33301 11.001 4s6.83398 3.5 9.50098 5.5s3.66699 3.66699 3 5zM418.997 370.999l-37 89l-36 -89h73zM541.997 528.999
c0.666992 1.33301 -1.33203 4.16699 -5.99902 8.5s-10.334 8.66602 -17.001 12.999s-13.167 7.83301 -19.5 10.5s-10.5 2.66699 -12.5 0c-12 -15.333 -20.833 -32.666 -26.5 -51.999s-12.167 -38 -19.5 -56c-1.33301 -1.33301 -0.666016 -3 2.00098 -5s6 -3.83301 10 -5.5
s7.66699 -3 11 -4s5.66602 -0.833008 6.99902 0.5zM656.998 371c0 -38 -7.16699 -73.667 -21.5 -107s-34 -62.5 -59 -87.5s-54.167 -44.667 -87.5 -59s-69 -21.5 -107 -21.5s-73.667 7.16699 -107 21.5s-62.5 34 -87.5 59s-44.833 54.167 -59.5 87.5s-22 69 -22 107
s7.33301 73.667 22 107s34.5 62.5 59.5 87.5s54.167 44.667 87.5 59s69 21.5 107 21.5s73.667 -7.16699 107 -21.5s62.5 -34 87.5 -59s44.667 -54.167 59 -87.5s21.5 -69 21.5 -107zM676.998 371c0 40.667 -7.66699 79 -23 115s-36.333 67.333 -63 94s-58 47.834 -94 63.501
s-74.333 23.5 -115 23.5s-79 -7.83301 -115 -23.5s-67.5 -36.834 -94.5 -63.501s-48.333 -58 -64 -94s-23.5 -74.333 -23.5 -115s7.83301 -78.834 23.5 -114.501s37 -67 64 -94s58.5 -48.333 94.5 -64s74.333 -23.5 115 -23.5s79 7.83301 115 23.5s67.333 37 94 64
s47.667 58.333 63 94s23 73.834 23 114.501zM706.998 104h-26v-69h-19v69h-25v16h70v-16zM723.998 371c0 -47.333 -9 -91.666 -27 -132.999s-42.5 -77.666 -73.5 -108.999s-67.333 -56 -109 -74s-85.834 -27 -132.501 -27c-47.333 0 -91.666 9 -132.999 27
s-77.5 42.667 -108.5 74s-55.5 67.666 -73.5 108.999s-27 85.666 -27 132.999s9 91.833 27 133.5s42.5 78 73.5 109s67.167 55.5 108.5 73.5s85.666 27 132.999 27c46.667 0 90.834 -9 132.501 -27s78 -42.5 109 -73.5s55.5 -67.333 73.5 -109s27 -86.167 27 -133.5z
M795.998 35h-15v69l-17 -69h-16l-17 69v-69h-16v85h25l17 -66l14 66h25v-85z" />
    <glyph glyph-name="ucircumflex" unicode="&#xfb;" 
d="M537 242c-102.667 -26 -206.001 -26 -310.001 0c6.66699 -11.333 14.834 -23 24.501 -35s21 -23.333 34 -34s27.5 -19.334 43.5 -26.001s33.667 -10 53 -10c18.667 0 36 3.33301 52 10s30.5 15.334 43.5 26.001s24.5 22 34.5 34s18.333 23.667 25 35zM599.999 340
h-435.998l53 -84c55.333 -13.333 110.166 -19.833 164.499 -19.5s109.166 6.83301 164.499 19.5zM323.001 453c-8.66699 18 -15.6709 36.666 -21.0039 55.999s-13.666 36.666 -24.999 51.999c-2 2.66699 -6.16699 2.66699 -12.5 0s-13 -6.16699 -20 -10.5
s-13 -8.66602 -18 -12.999s-6.83301 -7.16602 -5.5 -8.49902l72 -90c0.666992 -1.33301 2.83398 -1.5 6.50098 -0.5s7.33398 2.33301 11.001 4s6.83398 3.5 9.50098 5.5s3.66699 3.66699 3 5zM418.997 370.999l-37 89l-36 -89h73zM541.997 528.999
c0.666992 1.33301 -1.33203 4.16699 -5.99902 8.5s-10.334 8.66602 -17.001 12.999s-13.167 7.83301 -19.5 10.5s-10.5 2.66699 -12.5 0c-12 -15.333 -20.833 -32.666 -26.5 -51.999s-12.167 -38 -19.5 -56c-1.33301 -1.33301 -0.666016 -3 2.00098 -5s6 -3.83301 10 -5.5
s7.66699 -3 11 -4s5.66602 -0.833008 6.99902 0.5zM656.998 371c0 -38 -7.16699 -73.667 -21.5 -107s-34 -62.5 -59 -87.5s-54.167 -44.667 -87.5 -59s-69 -21.5 -107 -21.5s-73.667 7.16699 -107 21.5s-62.5 34 -87.5 59s-44.833 54.167 -59.5 87.5s-22 69 -22 107
s7.33301 73.667 22 107s34.5 62.5 59.5 87.5s54.167 44.667 87.5 59s69 21.5 107 21.5s73.667 -7.16699 107 -21.5s62.5 -34 87.5 -59s44.667 -54.167 59 -87.5s21.5 -69 21.5 -107zM676.998 371c0 40.667 -7.66699 79 -23 115s-36.333 67.333 -63 94s-58 47.834 -94 63.501
s-74.333 23.5 -115 23.5s-79 -7.83301 -115 -23.5s-67.5 -36.834 -94.5 -63.501s-48.333 -58 -64 -94s-23.5 -74.333 -23.5 -115s7.83301 -78.834 23.5 -114.501s37 -67 64 -94s58.5 -48.333 94.5 -64s74.333 -23.5 115 -23.5s79 7.83301 115 23.5s67.333 37 94 64
s47.667 58.333 63 94s23 73.834 23 114.501zM706.998 104h-26v-69h-19v69h-25v16h70v-16zM723.998 371c0 -47.333 -9 -91.666 -27 -132.999s-42.5 -77.666 -73.5 -108.999s-67.333 -56 -109 -74s-85.834 -27 -132.501 -27c-47.333 0 -91.666 9 -132.999 27
s-77.5 42.667 -108.5 74s-55.5 67.666 -73.5 108.999s-27 85.666 -27 132.999s9 91.833 27 133.5s42.5 78 73.5 109s67.167 55.5 108.5 73.5s85.666 27 132.999 27c46.667 0 90.834 -9 132.501 -27s78 -42.5 109 -73.5s55.5 -67.333 73.5 -109s27 -86.167 27 -133.5z
M795.998 35h-15v69l-17 -69h-16l-17 69v-69h-16v85h25l17 -66l14 66h25v-85z" />
    <glyph glyph-name="udieresis" unicode="&#xfc;" 
d="M537 242c-102.667 -26 -206.001 -26 -310.001 0c6.66699 -11.333 14.834 -23 24.501 -35s21 -23.333 34 -34s27.5 -19.334 43.5 -26.001s33.667 -10 53 -10c18.667 0 36 3.33301 52 10s30.5 15.334 43.5 26.001s24.5 22 34.5 34s18.333 23.667 25 35zM599.999 340
h-435.998l53 -84c55.333 -13.333 110.166 -19.833 164.499 -19.5s109.166 6.83301 164.499 19.5zM323.001 453c-8.66699 18 -15.6709 36.666 -21.0039 55.999s-13.666 36.666 -24.999 51.999c-2 2.66699 -6.16699 2.66699 -12.5 0s-13 -6.16699 -20 -10.5
s-13 -8.66602 -18 -12.999s-6.83301 -7.16602 -5.5 -8.49902l72 -90c0.666992 -1.33301 2.83398 -1.5 6.50098 -0.5s7.33398 2.33301 11.001 4s6.83398 3.5 9.50098 5.5s3.66699 3.66699 3 5zM418.997 370.999l-37 89l-36 -89h73zM541.997 528.999
c0.666992 1.33301 -1.33203 4.16699 -5.99902 8.5s-10.334 8.66602 -17.001 12.999s-13.167 7.83301 -19.5 10.5s-10.5 2.66699 -12.5 0c-12 -15.333 -20.833 -32.666 -26.5 -51.999s-12.167 -38 -19.5 -56c-1.33301 -1.33301 -0.666016 -3 2.00098 -5s6 -3.83301 10 -5.5
s7.66699 -3 11 -4s5.66602 -0.833008 6.99902 0.5zM656.998 371c0 -38 -7.16699 -73.667 -21.5 -107s-34 -62.5 -59 -87.5s-54.167 -44.667 -87.5 -59s-69 -21.5 -107 -21.5s-73.667 7.16699 -107 21.5s-62.5 34 -87.5 59s-44.833 54.167 -59.5 87.5s-22 69 -22 107
s7.33301 73.667 22 107s34.5 62.5 59.5 87.5s54.167 44.667 87.5 59s69 21.5 107 21.5s73.667 -7.16699 107 -21.5s62.5 -34 87.5 -59s44.667 -54.167 59 -87.5s21.5 -69 21.5 -107zM676.998 371c0 40.667 -7.66699 79 -23 115s-36.333 67.333 -63 94s-58 47.834 -94 63.501
s-74.333 23.5 -115 23.5s-79 -7.83301 -115 -23.5s-67.5 -36.834 -94.5 -63.501s-48.333 -58 -64 -94s-23.5 -74.333 -23.5 -115s7.83301 -78.834 23.5 -114.501s37 -67 64 -94s58.5 -48.333 94.5 -64s74.333 -23.5 115 -23.5s79 7.83301 115 23.5s67.333 37 94 64
s47.667 58.333 63 94s23 73.834 23 114.501zM706.998 104h-26v-69h-19v69h-25v16h70v-16zM723.998 371c0 -47.333 -9 -91.666 -27 -132.999s-42.5 -77.666 -73.5 -108.999s-67.333 -56 -109 -74s-85.834 -27 -132.501 -27c-47.333 0 -91.666 9 -132.999 27
s-77.5 42.667 -108.5 74s-55.5 67.666 -73.5 108.999s-27 85.666 -27 132.999s9 91.833 27 133.5s42.5 78 73.5 109s67.167 55.5 108.5 73.5s85.666 27 132.999 27c46.667 0 90.834 -9 132.501 -27s78 -42.5 109 -73.5s55.5 -67.333 73.5 -109s27 -86.167 27 -133.5z
M795.998 35h-15v69l-17 -69h-16l-17 69v-69h-16v85h25l17 -66l14 66h25v-85z" />
    <glyph glyph-name="yacute" unicode="&#xfd;" 
d="M537 242c-102.667 -26 -206.001 -26 -310.001 0c6.66699 -11.333 14.834 -23 24.501 -35s21 -23.333 34 -34s27.5 -19.334 43.5 -26.001s33.667 -10 53 -10c18.667 0 36 3.33301 52 10s30.5 15.334 43.5 26.001s24.5 22 34.5 34s18.333 23.667 25 35zM599.999 340
h-435.998l53 -84c55.333 -13.333 110.166 -19.833 164.499 -19.5s109.166 6.83301 164.499 19.5zM323.001 453c-8.66699 18 -15.6709 36.666 -21.0039 55.999s-13.666 36.666 -24.999 51.999c-2 2.66699 -6.16699 2.66699 -12.5 0s-13 -6.16699 -20 -10.5
s-13 -8.66602 -18 -12.999s-6.83301 -7.16602 -5.5 -8.49902l72 -90c0.666992 -1.33301 2.83398 -1.5 6.50098 -0.5s7.33398 2.33301 11.001 4s6.83398 3.5 9.50098 5.5s3.66699 3.66699 3 5zM418.997 370.999l-37 89l-36 -89h73zM541.997 528.999
c0.666992 1.33301 -1.33203 4.16699 -5.99902 8.5s-10.334 8.66602 -17.001 12.999s-13.167 7.83301 -19.5 10.5s-10.5 2.66699 -12.5 0c-12 -15.333 -20.833 -32.666 -26.5 -51.999s-12.167 -38 -19.5 -56c-1.33301 -1.33301 -0.666016 -3 2.00098 -5s6 -3.83301 10 -5.5
s7.66699 -3 11 -4s5.66602 -0.833008 6.99902 0.5zM656.998 371c0 -38 -7.16699 -73.667 -21.5 -107s-34 -62.5 -59 -87.5s-54.167 -44.667 -87.5 -59s-69 -21.5 -107 -21.5s-73.667 7.16699 -107 21.5s-62.5 34 -87.5 59s-44.833 54.167 -59.5 87.5s-22 69 -22 107
s7.33301 73.667 22 107s34.5 62.5 59.5 87.5s54.167 44.667 87.5 59s69 21.5 107 21.5s73.667 -7.16699 107 -21.5s62.5 -34 87.5 -59s44.667 -54.167 59 -87.5s21.5 -69 21.5 -107zM676.998 371c0 40.667 -7.66699 79 -23 115s-36.333 67.333 -63 94s-58 47.834 -94 63.501
s-74.333 23.5 -115 23.5s-79 -7.83301 -115 -23.5s-67.5 -36.834 -94.5 -63.501s-48.333 -58 -64 -94s-23.5 -74.333 -23.5 -115s7.83301 -78.834 23.5 -114.501s37 -67 64 -94s58.5 -48.333 94.5 -64s74.333 -23.5 115 -23.5s79 7.83301 115 23.5s67.333 37 94 64
s47.667 58.333 63 94s23 73.834 23 114.501zM706.998 104h-26v-69h-19v69h-25v16h70v-16zM723.998 371c0 -47.333 -9 -91.666 -27 -132.999s-42.5 -77.666 -73.5 -108.999s-67.333 -56 -109 -74s-85.834 -27 -132.501 -27c-47.333 0 -91.666 9 -132.999 27
s-77.5 42.667 -108.5 74s-55.5 67.666 -73.5 108.999s-27 85.666 -27 132.999s9 91.833 27 133.5s42.5 78 73.5 109s67.167 55.5 108.5 73.5s85.666 27 132.999 27c46.667 0 90.834 -9 132.501 -27s78 -42.5 109 -73.5s55.5 -67.333 73.5 -109s27 -86.167 27 -133.5z
M795.998 35h-15v69l-17 -69h-16l-17 69v-69h-16v85h25l17 -66l14 66h25v-85z" />
    <glyph glyph-name="thorn" unicode="&#xfe;" 
d="M537 242c-102.667 -26 -206.001 -26 -310.001 0c6.66699 -11.333 14.834 -23 24.501 -35s21 -23.333 34 -34s27.5 -19.334 43.5 -26.001s33.667 -10 53 -10c18.667 0 36 3.33301 52 10s30.5 15.334 43.5 26.001s24.5 22 34.5 34s18.333 23.667 25 35zM599.999 340
h-435.998l53 -84c55.333 -13.333 110.166 -19.833 164.499 -19.5s109.166 6.83301 164.499 19.5zM323.001 453c-8.66699 18 -15.6709 36.666 -21.0039 55.999s-13.666 36.666 -24.999 51.999c-2 2.66699 -6.16699 2.66699 -12.5 0s-13 -6.16699 -20 -10.5
s-13 -8.66602 -18 -12.999s-6.83301 -7.16602 -5.5 -8.49902l72 -90c0.666992 -1.33301 2.83398 -1.5 6.50098 -0.5s7.33398 2.33301 11.001 4s6.83398 3.5 9.50098 5.5s3.66699 3.66699 3 5zM418.997 370.999l-37 89l-36 -89h73zM541.997 528.999
c0.666992 1.33301 -1.33203 4.16699 -5.99902 8.5s-10.334 8.66602 -17.001 12.999s-13.167 7.83301 -19.5 10.5s-10.5 2.66699 -12.5 0c-12 -15.333 -20.833 -32.666 -26.5 -51.999s-12.167 -38 -19.5 -56c-1.33301 -1.33301 -0.666016 -3 2.00098 -5s6 -3.83301 10 -5.5
s7.66699 -3 11 -4s5.66602 -0.833008 6.99902 0.5zM656.998 371c0 -38 -7.16699 -73.667 -21.5 -107s-34 -62.5 -59 -87.5s-54.167 -44.667 -87.5 -59s-69 -21.5 -107 -21.5s-73.667 7.16699 -107 21.5s-62.5 34 -87.5 59s-44.833 54.167 -59.5 87.5s-22 69 -22 107
s7.33301 73.667 22 107s34.5 62.5 59.5 87.5s54.167 44.667 87.5 59s69 21.5 107 21.5s73.667 -7.16699 107 -21.5s62.5 -34 87.5 -59s44.667 -54.167 59 -87.5s21.5 -69 21.5 -107zM676.998 371c0 40.667 -7.66699 79 -23 115s-36.333 67.333 -63 94s-58 47.834 -94 63.501
s-74.333 23.5 -115 23.5s-79 -7.83301 -115 -23.5s-67.5 -36.834 -94.5 -63.501s-48.333 -58 -64 -94s-23.5 -74.333 -23.5 -115s7.83301 -78.834 23.5 -114.501s37 -67 64 -94s58.5 -48.333 94.5 -64s74.333 -23.5 115 -23.5s79 7.83301 115 23.5s67.333 37 94 64
s47.667 58.333 63 94s23 73.834 23 114.501zM706.998 104h-26v-69h-19v69h-25v16h70v-16zM723.998 371c0 -47.333 -9 -91.666 -27 -132.999s-42.5 -77.666 -73.5 -108.999s-67.333 -56 -109 -74s-85.834 -27 -132.501 -27c-47.333 0 -91.666 9 -132.999 27
s-77.5 42.667 -108.5 74s-55.5 67.666 -73.5 108.999s-27 85.666 -27 132.999s9 91.833 27 133.5s42.5 78 73.5 109s67.167 55.5 108.5 73.5s85.666 27 132.999 27c46.667 0 90.834 -9 132.501 -27s78 -42.5 109 -73.5s55.5 -67.333 73.5 -109s27 -86.167 27 -133.5z
M795.998 35h-15v69l-17 -69h-16l-17 69v-69h-16v85h25l17 -66l14 66h25v-85z" />
    <glyph glyph-name="ydieresis" unicode="&#xff;" 
d="M537 242c-102.667 -26 -206.001 -26 -310.001 0c6.66699 -11.333 14.834 -23 24.501 -35s21 -23.333 34 -34s27.5 -19.334 43.5 -26.001s33.667 -10 53 -10c18.667 0 36 3.33301 52 10s30.5 15.334 43.5 26.001s24.5 22 34.5 34s18.333 23.667 25 35zM599.999 340
h-435.998l53 -84c55.333 -13.333 110.166 -19.833 164.499 -19.5s109.166 6.83301 164.499 19.5zM323.001 453c-8.66699 18 -15.6709 36.666 -21.0039 55.999s-13.666 36.666 -24.999 51.999c-2 2.66699 -6.16699 2.66699 -12.5 0s-13 -6.16699 -20 -10.5
s-13 -8.66602 -18 -12.999s-6.83301 -7.16602 -5.5 -8.49902l72 -90c0.666992 -1.33301 2.83398 -1.5 6.50098 -0.5s7.33398 2.33301 11.001 4s6.83398 3.5 9.50098 5.5s3.66699 3.66699 3 5zM418.997 370.999l-37 89l-36 -89h73zM541.997 528.999
c0.666992 1.33301 -1.33203 4.16699 -5.99902 8.5s-10.334 8.66602 -17.001 12.999s-13.167 7.83301 -19.5 10.5s-10.5 2.66699 -12.5 0c-12 -15.333 -20.833 -32.666 -26.5 -51.999s-12.167 -38 -19.5 -56c-1.33301 -1.33301 -0.666016 -3 2.00098 -5s6 -3.83301 10 -5.5
s7.66699 -3 11 -4s5.66602 -0.833008 6.99902 0.5zM656.998 371c0 -38 -7.16699 -73.667 -21.5 -107s-34 -62.5 -59 -87.5s-54.167 -44.667 -87.5 -59s-69 -21.5 -107 -21.5s-73.667 7.16699 -107 21.5s-62.5 34 -87.5 59s-44.833 54.167 -59.5 87.5s-22 69 -22 107
s7.33301 73.667 22 107s34.5 62.5 59.5 87.5s54.167 44.667 87.5 59s69 21.5 107 21.5s73.667 -7.16699 107 -21.5s62.5 -34 87.5 -59s44.667 -54.167 59 -87.5s21.5 -69 21.5 -107zM676.998 371c0 40.667 -7.66699 79 -23 115s-36.333 67.333 -63 94s-58 47.834 -94 63.501
s-74.333 23.5 -115 23.5s-79 -7.83301 -115 -23.5s-67.5 -36.834 -94.5 -63.501s-48.333 -58 -64 -94s-23.5 -74.333 -23.5 -115s7.83301 -78.834 23.5 -114.501s37 -67 64 -94s58.5 -48.333 94.5 -64s74.333 -23.5 115 -23.5s79 7.83301 115 23.5s67.333 37 94 64
s47.667 58.333 63 94s23 73.834 23 114.501zM706.998 104h-26v-69h-19v69h-25v16h70v-16zM723.998 371c0 -47.333 -9 -91.666 -27 -132.999s-42.5 -77.666 -73.5 -108.999s-67.333 -56 -109 -74s-85.834 -27 -132.501 -27c-47.333 0 -91.666 9 -132.999 27
s-77.5 42.667 -108.5 74s-55.5 67.666 -73.5 108.999s-27 85.666 -27 132.999s9 91.833 27 133.5s42.5 78 73.5 109s67.167 55.5 108.5 73.5s85.666 27 132.999 27c46.667 0 90.834 -9 132.501 -27s78 -42.5 109 -73.5s55.5 -67.333 73.5 -109s27 -86.167 27 -133.5z
M795.998 35h-15v69l-17 -69h-16l-17 69v-69h-16v85h25l17 -66l14 66h25v-85z" />
    <glyph glyph-name="OE" unicode="&#x152;" horiz-adv-x="587" 
d="M542 727l25 -134.999h-158v-174h120v-125h-120v-158h152l-25 -135h-403c-20 0 -36.667 2.83301 -50 8.5s-24 13.167 -32 22.5s-13.5 20.166 -16.5 32.499s-4.5 25.5 -4.5 39.5v530c0 28.667 7.66699 51.5 23 68.5s40 25.5 74 25.5h415zM189 592.001
c-8.66699 0 -13 -4.66797 -13 -14.001v-428c0 -5.33301 0.833008 -9.16602 2.5 -11.499s5.5 -3.5 11.5 -3.5h69v457h-70z" />
    <glyph glyph-name="oe" unicode="&#x153;" 
d="M537 242c-102.667 -26 -206.001 -26 -310.001 0c6.66699 -11.333 14.834 -23 24.501 -35s21 -23.333 34 -34s27.5 -19.334 43.5 -26.001s33.667 -10 53 -10c18.667 0 36 3.33301 52 10s30.5 15.334 43.5 26.001s24.5 22 34.5 34s18.333 23.667 25 35zM599.999 340
h-435.998l53 -84c55.333 -13.333 110.166 -19.833 164.499 -19.5s109.166 6.83301 164.499 19.5zM323.001 453c-8.66699 18 -15.6709 36.666 -21.0039 55.999s-13.666 36.666 -24.999 51.999c-2 2.66699 -6.16699 2.66699 -12.5 0s-13 -6.16699 -20 -10.5
s-13 -8.66602 -18 -12.999s-6.83301 -7.16602 -5.5 -8.49902l72 -90c0.666992 -1.33301 2.83398 -1.5 6.50098 -0.5s7.33398 2.33301 11.001 4s6.83398 3.5 9.50098 5.5s3.66699 3.66699 3 5zM418.997 370.999l-37 89l-36 -89h73zM541.997 528.999
c0.666992 1.33301 -1.33203 4.16699 -5.99902 8.5s-10.334 8.66602 -17.001 12.999s-13.167 7.83301 -19.5 10.5s-10.5 2.66699 -12.5 0c-12 -15.333 -20.833 -32.666 -26.5 -51.999s-12.167 -38 -19.5 -56c-1.33301 -1.33301 -0.666016 -3 2.00098 -5s6 -3.83301 10 -5.5
s7.66699 -3 11 -4s5.66602 -0.833008 6.99902 0.5zM656.998 371c0 -38 -7.16699 -73.667 -21.5 -107s-34 -62.5 -59 -87.5s-54.167 -44.667 -87.5 -59s-69 -21.5 -107 -21.5s-73.667 7.16699 -107 21.5s-62.5 34 -87.5 59s-44.833 54.167 -59.5 87.5s-22 69 -22 107
s7.33301 73.667 22 107s34.5 62.5 59.5 87.5s54.167 44.667 87.5 59s69 21.5 107 21.5s73.667 -7.16699 107 -21.5s62.5 -34 87.5 -59s44.667 -54.167 59 -87.5s21.5 -69 21.5 -107zM676.998 371c0 40.667 -7.66699 79 -23 115s-36.333 67.333 -63 94s-58 47.834 -94 63.501
s-74.333 23.5 -115 23.5s-79 -7.83301 -115 -23.5s-67.5 -36.834 -94.5 -63.501s-48.333 -58 -64 -94s-23.5 -74.333 -23.5 -115s7.83301 -78.834 23.5 -114.501s37 -67 64 -94s58.5 -48.333 94.5 -64s74.333 -23.5 115 -23.5s79 7.83301 115 23.5s67.333 37 94 64
s47.667 58.333 63 94s23 73.834 23 114.501zM706.998 104h-26v-69h-19v69h-25v16h70v-16zM723.998 371c0 -47.333 -9 -91.666 -27 -132.999s-42.5 -77.666 -73.5 -108.999s-67.333 -56 -109 -74s-85.834 -27 -132.501 -27c-47.333 0 -91.666 9 -132.999 27
s-77.5 42.667 -108.5 74s-55.5 67.666 -73.5 108.999s-27 85.666 -27 132.999s9 91.833 27 133.5s42.5 78 73.5 109s67.167 55.5 108.5 73.5s85.666 27 132.999 27c46.667 0 90.834 -9 132.501 -27s78 -42.5 109 -73.5s55.5 -67.333 73.5 -109s27 -86.167 27 -133.5z
M795.998 35h-15v69l-17 -69h-16l-17 69v-69h-16v85h25l17 -66l14 66h25v-85z" />
    <glyph glyph-name="Scaron" unicode="&#x160;" horiz-adv-x="386" 
d="M259 0c64.667 0 96.9971 32.333 96.9971 97v252c0 27.333 -6.16699 46.5 -18.5 57.5s-30.166 16.5 -53.499 16.5h-91c-7.33301 0 -12.833 1.33301 -16.5 4s-5.5 7.66699 -5.5 15v134c0 10.667 6 16 18 16h164l-25 135h-201c-34 0 -58.667 -8.5 -74 -25.5
s-23 -39.833 -23 -68.5v-248c0 -18 2.16699 -32.333 6.5 -43s10.333 -19 18 -25s16.334 -9.83301 26.001 -11.5s19.834 -2.5 30.501 -2.5h75c10 0 17 -1 21 -3s6 -8 6 -18v-132c0 -10 -5.66699 -15 -17 -15h-156l26 -135h193zM138.997 762l-112 131h116l54 -72l54 72h118
l-113 -131h-117z" />
    <glyph glyph-name="scaron" unicode="&#x161;" 
d="M537 242c-102.667 -26 -206.001 -26 -310.001 0c6.66699 -11.333 14.834 -23 24.501 -35s21 -23.333 34 -34s27.5 -19.334 43.5 -26.001s33.667 -10 53 -10c18.667 0 36 3.33301 52 10s30.5 15.334 43.5 26.001s24.5 22 34.5 34s18.333 23.667 25 35zM599.999 340
h-435.998l53 -84c55.333 -13.333 110.166 -19.833 164.499 -19.5s109.166 6.83301 164.499 19.5zM323.001 453c-8.66699 18 -15.6709 36.666 -21.0039 55.999s-13.666 36.666 -24.999 51.999c-2 2.66699 -6.16699 2.66699 -12.5 0s-13 -6.16699 -20 -10.5
s-13 -8.66602 -18 -12.999s-6.83301 -7.16602 -5.5 -8.49902l72 -90c0.666992 -1.33301 2.83398 -1.5 6.50098 -0.5s7.33398 2.33301 11.001 4s6.83398 3.5 9.50098 5.5s3.66699 3.66699 3 5zM418.997 370.999l-37 89l-36 -89h73zM541.997 528.999
c0.666992 1.33301 -1.33203 4.16699 -5.99902 8.5s-10.334 8.66602 -17.001 12.999s-13.167 7.83301 -19.5 10.5s-10.5 2.66699 -12.5 0c-12 -15.333 -20.833 -32.666 -26.5 -51.999s-12.167 -38 -19.5 -56c-1.33301 -1.33301 -0.666016 -3 2.00098 -5s6 -3.83301 10 -5.5
s7.66699 -3 11 -4s5.66602 -0.833008 6.99902 0.5zM656.998 371c0 -38 -7.16699 -73.667 -21.5 -107s-34 -62.5 -59 -87.5s-54.167 -44.667 -87.5 -59s-69 -21.5 -107 -21.5s-73.667 7.16699 -107 21.5s-62.5 34 -87.5 59s-44.833 54.167 -59.5 87.5s-22 69 -22 107
s7.33301 73.667 22 107s34.5 62.5 59.5 87.5s54.167 44.667 87.5 59s69 21.5 107 21.5s73.667 -7.16699 107 -21.5s62.5 -34 87.5 -59s44.667 -54.167 59 -87.5s21.5 -69 21.5 -107zM676.998 371c0 40.667 -7.66699 79 -23 115s-36.333 67.333 -63 94s-58 47.834 -94 63.501
s-74.333 23.5 -115 23.5s-79 -7.83301 -115 -23.5s-67.5 -36.834 -94.5 -63.501s-48.333 -58 -64 -94s-23.5 -74.333 -23.5 -115s7.83301 -78.834 23.5 -114.501s37 -67 64 -94s58.5 -48.333 94.5 -64s74.333 -23.5 115 -23.5s79 7.83301 115 23.5s67.333 37 94 64
s47.667 58.333 63 94s23 73.834 23 114.501zM706.998 104h-26v-69h-19v69h-25v16h70v-16zM723.998 371c0 -47.333 -9 -91.666 -27 -132.999s-42.5 -77.666 -73.5 -108.999s-67.333 -56 -109 -74s-85.834 -27 -132.501 -27c-47.333 0 -91.666 9 -132.999 27
s-77.5 42.667 -108.5 74s-55.5 67.666 -73.5 108.999s-27 85.666 -27 132.999s9 91.833 27 133.5s42.5 78 73.5 109s67.167 55.5 108.5 73.5s85.666 27 132.999 27c46.667 0 90.834 -9 132.501 -27s78 -42.5 109 -73.5s55.5 -67.333 73.5 -109s27 -86.167 27 -133.5z
M795.998 35h-15v69l-17 -69h-16l-17 69v-69h-16v85h25l17 -66l14 66h25v-85z" />
    <glyph glyph-name="Ydieresis" unicode="&#x178;" horiz-adv-x="451" 
d="M302 0h-153v184l-139 541h150l65 -342l66 342h150l-139 -541v-184zM53 828c0 20.667 7 38.334 21 53.001s31.667 22 53 22c20.667 0 38 -7.33301 52 -22s21 -32.334 21 -53.001s-7 -38.334 -21 -53.001s-31.333 -22 -52 -22c-21.333 0 -39 7.33301 -53 22
s-21 32.334 -21 53.001zM251 828c0 20.667 7 38.334 21 53.001s31.333 22 52 22s38.167 -7.33301 52.5 -22s21.5 -32.334 21.5 -53.001s-7.16699 -38.334 -21.5 -53.001s-31.833 -22 -52.5 -22s-38 7.33301 -52 22s-21 32.334 -21 53.001z" />
    <glyph glyph-name="florin" unicode="&#x192;" horiz-adv-x="495" 
d="M413 592c-12 0 -21.166 -3.16699 -27.499 -9.5s-10.833 -14.833 -13.5 -25.5l-23 -89h89l-34 -84h-80l-88 -356c-7.33301 -28.667 -17 -50.5 -29 -65.5s-26.167 -25.5 -42.5 -31.5s-35 -9 -56 -9s-44.167 0.666992 -69.5 2l-39 72c13.333 0 25.166 -0.166992 35.499 -0.5
s19.333 0.666992 27 3s14.167 6.83301 19.5 13.5s10 17 14 31l90 341h-44l28 84h36l46 183c7.33301 29.333 21 49.333 41 60s40.333 16 61 16h96l25 -135h-62z" />
    <glyph glyph-name="circumflex" unicode="&#x2c6;" horiz-adv-x="463" 
d="M290 917l113 -131h-118l-54 72l-54 -72h-116l112 131h117z" />
    <glyph glyph-name="tilde" unicode="&#x2dc;" horiz-adv-x="463" 
d="M400 922c3.33301 -38 -2.83984 -68.667 -18.5068 -92s-42.5 -35 -80.5 -35c-15.333 0 -28.666 2.16699 -39.999 6.5s-22.166 9 -32.499 14s-20.666 9.66699 -30.999 14s-21.833 6.5 -34.5 6.5c-24.667 0 -37 -14 -37 -42h-63c-1.33301 40 7.83398 71.333 27.501 94
s45.5 34 77.5 34c14 0 27 -2.16699 39 -6.5s23.333 -9.33301 34 -15s20.834 -10.667 30.501 -15s18.834 -6.5 27.501 -6.5c11.333 0 20.833 3.83301 28.5 11.5s10.834 18.167 9.50098 31.5h63z" />
    <glyph glyph-name="Alpha" unicode="&#x391;" horiz-adv-x="437" 
d="M169 90l-13 -90h-146l131 727h155l131 -727h-146l-13 90h-99zM185 205h67l-33 259z" />
    <glyph glyph-name="Beta" unicode="&#x392;" horiz-adv-x="436" 
d="M174 600l0.000976562 -192h68c5.33301 0 9.66602 1.5 12.999 4.5s5 7.83301 5 14.5v159c0 9.33301 -4.33301 14 -13 14h-73zM262.001 277c0 8 -2 13.501 -6 16.501s-9.33301 4.5 -16 4.5h-66v-171h73c6 0 10 1.16699 12 3.5s3 6.16602 3 11.499v135zM399.001 438.001
c0 -18 -3.5 -33.5 -10.5 -46.5s-20.167 -22.167 -39.5 -27.5c20 -1.33301 34.5 -8.33301 43.5 -21s13.5 -27 13.5 -43v-188c0 -40 -8.33301 -68.667 -25 -86s-46 -26 -88 -26h-263v727h272c64.667 0 97 -32.333 97 -97v-192z" />
    <glyph glyph-name="Gamma" unicode="&#x393;" horiz-adv-x="352" 
d="M30 727h282l25 -135h-158v-592h-149v727z" />
    <glyph glyph-name="Delta" unicode="&#x394;" horiz-adv-x="440" 
d="M263 135l-43 321l-43 -321h86zM430 0h-420l136 727h148z" />
    <glyph glyph-name="Delta" unicode="&#x2206;" horiz-adv-x="440" 
d="M263 135l-43 321l-43 -321h86zM430 0h-420l136 727h148z" />
    <glyph glyph-name="Epsilon" unicode="&#x395;" horiz-adv-x="357" 
d="M30 727h282l25 -135h-158v-174h120v-125h-120v-158h152l-25 -135h-276v727z" />
    <glyph glyph-name="Zeta" unicode="&#x396;" horiz-adv-x="371" 
d="M205 135h136l-25 -135h-306l163 592h-151l25 135h314z" />
    <glyph glyph-name="Eta" unicode="&#x397;" horiz-adv-x="435" 
d="M405 0h-148v290h-79v-290h-148v727h148v-312h79v312h148v-727z" />
    <glyph glyph-name="Theta" unicode="&#x398;" horiz-adv-x="436" 
d="M174 143c0 -5.33301 1 -9.33301 3 -12s6 -4 12 -4h59c9.33301 0 14 5.33301 14 16v162h-88v-162zM262 585c0 10 -4.66699 15 -14 15h-60c-9.33301 0 -14 -5 -14 -15v-163h88v163zM406 103c0 -14 -1.5 -27.167 -4.5 -39.5s-8.5 -23.166 -16.5 -32.499
s-18.667 -16.833 -32 -22.5s-30 -8.5 -50 -8.5h-170c-20 0 -36.667 2.83301 -50 8.5s-24 13.167 -32 22.5s-13.5 20.166 -16.5 32.499s-4.5 25.5 -4.5 39.5v530c0 28.667 7.66699 51.5 23 68.5s40 25.5 74 25.5h182c34 0 58.667 -8.5 74 -25.5s23 -39.833 23 -68.5v-530z
" />
    <glyph glyph-name="Iota" unicode="&#x399;" horiz-adv-x="209" 
d="M32 727h145v-727h-145v727z" />
    <glyph glyph-name="Kappa" unicode="&#x39a;" horiz-adv-x="434" 
d="M178 414h22l74 313h150l-87 -336l86 -391h-159l-57 299h-29v-299h-148v727h148v-313v0z" />
    <glyph glyph-name="Lambda" unicode="&#x39b;" horiz-adv-x="436" 
d="M218 436l-58 -436h-150l130 727h156l130 -727h-150z" />
    <glyph glyph-name="Mu" unicode="&#x39c;" horiz-adv-x="525" 
d="M171 342v-342h-141v727h153l79 -308l79 308h154v-727h-141v342l-92 -290z" />
    <glyph glyph-name="Nu" unicode="&#x39d;" horiz-adv-x="421" 
d="M30 727h138l74 -293v293h149v-727h-149l-78 303v-303h-134v727z" />
    <glyph glyph-name="Xi" unicode="&#x39e;" horiz-adv-x="386" 
d="M341 592h-296l-25 135h346zM75 293h236v125h-236v-125zM45 135h296l25 -135h-346z" />
    <glyph glyph-name="Omicron" unicode="&#x39f;" horiz-adv-x="436" 
d="M189 600c-8.66699 0 -13 -4.66699 -13 -14v-444c0 -5.33301 0.833008 -9.16602 2.5 -11.499s5.5 -3.5 11.5 -3.5h55c6 0 9.83301 1.16699 11.5 3.5s2.5 6.16602 2.5 11.499v444c0 9.33301 -4.33301 14 -13 14h-57zM406 103c0 -14 -1.5 -27.167 -4.5 -39.5
s-8.5 -23.166 -16.5 -32.499s-18.667 -16.833 -32 -22.5s-30 -8.5 -50 -8.5h-170c-20 0 -36.667 2.83301 -50 8.5s-24 13.167 -32 22.5s-13.5 20.166 -16.5 32.499s-4.5 25.5 -4.5 39.5v530c0 28.667 7.66699 51.5 23 68.5s40 25.5 74 25.5h182c34 0 58.667 -8.5 74 -25.5
s23 -39.833 23 -68.5v-530z" />
    <glyph glyph-name="Pi" unicode="&#x3a0;" horiz-adv-x="435" 
d="M405 0h-148v592h-79v-592h-148v727h375v-727z" />
    <glyph glyph-name="Rho" unicode="&#x3a1;" horiz-adv-x="428" 
d="M174 600v-286.999h72c6 0 9.83301 1.16699 11.5 3.5s2.5 6.16602 2.5 11.499v258c0 9.33301 -4.33301 14 -13 14h-73zM401 287.001c0 -28.667 -7.83301 -51.499 -23.5 -68.499s-40.5 -25.5 -74.5 -25.5h-129v-193h-144v727h273c34 0 58.833 -8.33301 74.5 -25
s23.5 -39.334 23.5 -68.001v-347z" />
    <glyph glyph-name="Sigma" unicode="&#x3a3;" horiz-adv-x="382" 
d="M334 0h-324l116 363l-112 364h328l25 -135h-156l78 -229l-77 -228h147z" />
    <glyph glyph-name="Tau" unicode="&#x3a4;" horiz-adv-x="362" 
d="M316 727l36 -135h-97v-592h-148v592h-97l38 135h268z" />
    <glyph glyph-name="Upsilon" unicode="&#x3a5;" horiz-adv-x="451" 
d="M302 0h-153v184l-139 543h150l65 -344l66 344h150l-139 -543v-184z" />
    <glyph glyph-name="Phi" unicode="&#x3a6;" horiz-adv-x="564" 
d="M229 0h-98c-31.333 -0 -55.5 7.83301 -72.5 23.5s-25.5 39.5 -25.5 71.5v537c0 32 8.5 55.833 25.5 71.5s41.167 23.5 72.5 23.5h98v30h108v-30h96c31.333 0 55.5 -7.83301 72.5 -23.5s25.5 -39.5 25.5 -71.5v-537c0 -32 -8.5 -55.833 -25.5 -71.5
s-41.167 -23.5 -72.5 -23.5h-96v-30h-108v30zM391 584c0 5.33301 -0.833008 9.16699 -2.5 11.5s-5.5 3.5 -11.5 3.5h-40v-471h41c8.66699 0 13 4.66699 13 14v442zM175 143.001c0 -5.33301 0.833008 -9.16699 2.5 -11.5s5.5 -3.5 11.5 -3.5h40v471h-41
c-8.66699 0 -13 -4.66699 -13 -14v-442z" />
    <glyph glyph-name="Chi" unicode="&#x3a7;" horiz-adv-x="425" 
d="M312 378l103 -378h-147l-56 255l-55 -255h-147l103 378l-99 349h144l54 -257l56 257h143z" />
    <glyph glyph-name="Psi" unicode="&#x3a8;" horiz-adv-x="633" 
d="M248 0v135h-106c-40 0 -68.667 8.33301 -86 25s-26 45 -26 85v482h143v-450c0 -5.33301 0.833008 -9.33301 2.5 -12s5.5 -4 11.5 -4h61v466h137v-466h61c6 0 9.83301 1.33301 11.5 4s2.5 6.66699 2.5 12v450h143v-482c0 -40 -8.66699 -68.333 -26 -85s-46 -25 -86 -25
h-106v-135h-137z" />
    <glyph glyph-name="Omega" unicode="&#x3a9;" horiz-adv-x="477" 
d="M349 727c30.667 0 54.498 -7.83301 71.498 -23.5s25.5 -39.5 25.5 -71.5v-339c0 -21.333 -0.666992 -39.333 -2 -54s-4.66602 -26.834 -9.99902 -36.501s-13.5 -17.334 -24.5 -23.001s-26.5 -9.5 -46.5 -11.5v-33h94l-24 -135h-168v236c11.333 0 19 1.83301 23 5.5
s6 11.167 6 22.5v310c0 12.667 -0.666992 20.167 -2 22.5s-8 3.5 -20 3.5h-67c-12 0 -18.667 -1.16699 -20 -3.5s-2 -9.83301 -2 -22.5v-310c0 -11.333 2 -18.833 6 -22.5s11.667 -5.5 23 -5.5v-236h-168l-24 135h94v33c-20 2 -35.5 5.83301 -46.5 11.5
s-19.167 13.334 -24.5 23.001s-8.66602 21.834 -9.99902 36.501s-2 32.667 -2 54v339c0 32 8.5 55.833 25.5 71.5s40.833 23.5 71.5 23.5h221z" />
    <glyph glyph-name="Omega" unicode="&#x2126;" horiz-adv-x="477" 
d="M349 727c30.667 0 54.498 -7.83301 71.498 -23.5s25.5 -39.5 25.5 -71.5v-339c0 -21.333 -0.666992 -39.333 -2 -54s-4.66602 -26.834 -9.99902 -36.501s-13.5 -17.334 -24.5 -23.001s-26.5 -9.5 -46.5 -11.5v-33h94l-24 -135h-168v236c11.333 0 19 1.83301 23 5.5
s6 11.167 6 22.5v310c0 12.667 -0.666992 20.167 -2 22.5s-8 3.5 -20 3.5h-67c-12 0 -18.667 -1.16699 -20 -3.5s-2 -9.83301 -2 -22.5v-310c0 -11.333 2 -18.833 6 -22.5s11.667 -5.5 23 -5.5v-236h-168l-24 135h94v33c-20 2 -35.5 5.83301 -46.5 11.5
s-19.167 13.334 -24.5 23.001s-8.66602 21.834 -9.99902 36.501s-2 32.667 -2 54v339c0 32 8.5 55.833 25.5 71.5s40.833 23.5 71.5 23.5h221z" />
    <glyph glyph-name="afii10023" unicode="&#x401;" horiz-adv-x="357" 
d="M30 727h282l25 -135h-158v-174h120v-125h-120v-158h152l-25 -135h-276v727zM7 828c0 20.667 7 38.334 21 53.001s31.667 22 53 22c20.667 0 38 -7.33301 52 -22s21 -32.334 21 -53.001s-7 -38.334 -21 -53.001s-31.333 -22 -52 -22c-21.333 0 -39 7.33301 -53 22
s-21 32.334 -21 53.001zM205 828c0 20.667 7 38.334 21 53.001s31.333 22 52 22s38.167 -7.33301 52.5 -22s21.5 -32.334 21.5 -53.001s-7.16699 -38.334 -21.5 -53.001s-31.833 -22 -52.5 -22s-38 7.33301 -52 22s-21 32.334 -21 53.001z" />
    <glyph glyph-name="afii10017" unicode="&#x410;" horiz-adv-x="437" 
d="M169 90l-13 -90h-146l131 727h155l131 -727h-146l-13 90h-99zM185 205h67l-33 259z" />
    <glyph glyph-name="afii10018" unicode="&#x411;" horiz-adv-x="431" 
d="M247 127c8.66699 0 13 4.66797 13 14.001v168c0 5.33301 -0.833008 9.16602 -2.5 11.499s-5.5 3.5 -11.5 3.5h-72v-197h73zM30 727.001l323 0.000976562l25 -135h-204v-148h129c34 0 58.833 -8.5 74.5 -25.5s23.5 -39.833 23.5 -68.5v-257
c0 -28.667 -7.83301 -51.334 -23.5 -68.001s-40.5 -25 -74.5 -25h-273v727z" />
    <glyph glyph-name="afii10019" unicode="&#x412;" horiz-adv-x="436" 
d="M174 600l0.000976562 -192h68c5.33301 0 9.66602 1.5 12.999 4.5s5 7.83301 5 14.5v159c0 9.33301 -4.33301 14 -13 14h-73zM262.001 277c0 8 -2 13.501 -6 16.501s-9.33301 4.5 -16 4.5h-66v-171h73c6 0 10 1.16699 12 3.5s3 6.16602 3 11.499v135zM399.001 438.001
c0 -18 -3.5 -33.5 -10.5 -46.5s-20.167 -22.167 -39.5 -27.5c20 -1.33301 34.5 -8.33301 43.5 -21s13.5 -27 13.5 -43v-188c0 -40 -8.33301 -68.667 -25 -86s-46 -26 -88 -26h-263v727h272c64.667 0 97 -32.333 97 -97v-192z" />
    <glyph glyph-name="afii10020" unicode="&#x413;" horiz-adv-x="347" 
d="M30 727h272l25 -135h-148v-592h-149v727z" />
    <glyph glyph-name="afii10021" unicode="&#x414;" horiz-adv-x="537" 
d="M329 135l0.000976562 457h-70l-4 -115c-1.33301 -39.333 -3.33301 -78.5 -6 -117.5s-6.33398 -77.5 -11.001 -115.5s-10.667 -74.333 -18 -109h109zM155.001 -107l-135 -24.998v267h39c4 4 9.33301 23 16 57s13.167 78.167 19.5 132.5s11.833 116.166 16.5 185.499
s7 141.666 7 216.999h359v-592h40v-242l-135 -25v132h-227v-107z" />
    <glyph glyph-name="afii10022" unicode="&#x415;" horiz-adv-x="357" 
d="M30 727h282l25 -135h-158v-174h120v-125h-120v-158h152l-25 -135h-276v727z" />
    <glyph glyph-name="afii10024" unicode="&#x416;" horiz-adv-x="730" 
d="M292 727h145.996v-313h20l93 292c4.66699 14 15.334 21 32.001 21h107l25 -135h-51c-5.33301 0 -8.66602 -2.33301 -9.99902 -7l-58 -193l114 -392h-161l-81 302h-30v-302h-146v302h-30l-81 -302h-161l114 392l-58 193c-1.33301 4.66699 -4.66602 7 -9.99902 7h-51
l25 135h107c16.667 0 27.334 -7 32.001 -21l93 -292h20v313z" />
    <glyph glyph-name="afii10025" unicode="&#x417;" horiz-adv-x="362" 
d="M46 0l-25.001 135h145c6.66699 0 11.667 0.833008 15 2.5s5 6.83398 5 15.501v119c0 5.33301 -1 9.66602 -3 12.999s-7 5 -15 5h-111v125h109c8 0 13.333 1.33301 16 4s4 8 4 16v139c0 7.33301 -1.5 12.166 -4.5 14.499s-7.16699 3.5 -12.5 3.5h-149l25 135h186
c64.667 0 97 -31.667 97 -95v-203c0 -16.667 -3.5 -31 -10.5 -43s-22.167 -19 -45.5 -21c24.667 0 40.834 -7.16699 48.501 -21.5s11.5 -31.166 11.5 -50.499v-196c0 -64.667 -32.333 -97 -97 -97h-189z" />
    <glyph glyph-name="afii10026" unicode="&#x418;" horiz-adv-x="445" 
d="M178 280l89 417v30h148v-727h-148v446l-89 -416v-30h-148v727h148v-447z" />
    <glyph glyph-name="afii10027" unicode="&#x419;" horiz-adv-x="445" 
d="M178 280l89 417v30h148v-727h-148v446l-89 -416v-30h-148v727h148v-447zM382 893c-1.33301 -29.333 -6.49902 -53 -15.499 -71s-20.833 -31.833 -35.5 -41.5s-31.334 -16.167 -50.001 -19.5s-38 -5 -58 -5s-39.333 1.66699 -58 5s-35.334 9.83301 -50.001 19.5
s-26.667 23.5 -36 41.5s-14.333 41.667 -15 71h88c0 -16 1.83301 -28.833 5.5 -38.5s8.83398 -17 15.501 -22s14.167 -8.16699 22.5 -9.5s17.5 -2 27.5 -2c10.667 0 20.334 0.666992 29.001 2s16.167 4.5 22.5 9.5s11.166 12.333 14.499 22s5 22.5 5 38.5h88z" />
    <glyph glyph-name="afii10028" unicode="&#x41a;" horiz-adv-x="465" 
d="M178 414h19.998l93 292c4.66699 14 15.334 21 32.001 21h107l25 -135h-51c-5.33301 0 -8.66602 -2.33301 -9.99902 -7l-58 -193l114 -392h-161l-81 302h-30v-302h-148v727h148v-313z" />
    <glyph glyph-name="afii10029" unicode="&#x41b;" horiz-adv-x="484" 
d="M454 0h-148v592h-79v-592h-192l-25 135h69v592h375v-727z" />
    <glyph glyph-name="afii10030" unicode="&#x41c;" horiz-adv-x="525" 
d="M171 342v-342h-141v727h153l79 -308l79 308h154v-727h-141v342l-92 -290z" />
    <glyph glyph-name="afii10031" unicode="&#x41d;" horiz-adv-x="435" 
d="M405 0h-148v290h-79v-290h-148v727h148v-312h79v312h148v-727z" />
    <glyph glyph-name="afii10032" unicode="&#x41e;" horiz-adv-x="436" 
d="M189 600c-8.66699 0 -13 -4.66699 -13 -14v-444c0 -5.33301 0.833008 -9.16602 2.5 -11.499s5.5 -3.5 11.5 -3.5h55c6 0 9.83301 1.16699 11.5 3.5s2.5 6.16602 2.5 11.499v444c0 9.33301 -4.33301 14 -13 14h-57zM406 103c0 -14 -1.5 -27.167 -4.5 -39.5
s-8.5 -23.166 -16.5 -32.499s-18.667 -16.833 -32 -22.5s-30 -8.5 -50 -8.5h-170c-20 0 -36.667 2.83301 -50 8.5s-24 13.167 -32 22.5s-13.5 20.166 -16.5 32.499s-4.5 25.5 -4.5 39.5v530c0 28.667 7.66699 51.5 23 68.5s40 25.5 74 25.5h182c34 0 58.667 -8.5 74 -25.5
s23 -39.833 23 -68.5v-530z" />
    <glyph glyph-name="afii10033" unicode="&#x41f;" horiz-adv-x="435" 
d="M405 0h-148v592h-79v-592h-148v727h375v-727z" />
    <glyph glyph-name="afii10034" unicode="&#x420;" horiz-adv-x="428" 
d="M174 600v-286.999h72c6 0 9.83301 1.16699 11.5 3.5s2.5 6.16602 2.5 11.499v258c0 9.33301 -4.33301 14 -13 14h-73zM401 287.001c0 -28.667 -7.83301 -51.499 -23.5 -68.499s-40.5 -25.5 -74.5 -25.5h-129v-193h-144v727h273c34 0 58.833 -8.33301 74.5 -25
s23.5 -39.334 23.5 -68.001v-347z" />
    <glyph glyph-name="afii10035" unicode="&#x421;" horiz-adv-x="351" 
d="M141 0c-41.333 0 -70.167 8.33301 -86.5 25s-24.5 45 -24.5 85v528c0 28.667 8.5 50.667 25.5 66s37.833 23 62.5 23h188l25 -135h-139c-8.66699 0 -13 -4.66699 -13 -14v-429c0 -9.33301 4.33301 -14 13 -14h139l-26 -135h-164z" />
    <glyph glyph-name="afii10036" unicode="&#x422;" horiz-adv-x="362" 
d="M316 727l36 -135h-97v-592h-148v592h-97l38 135h268z" />
    <glyph glyph-name="afii10037" unicode="&#x423;" horiz-adv-x="475" 
d="M320 727l145 0.000976562l-155 -639c-3.33301 -14 -7.33301 -26.333 -12 -37s-11 -19.834 -19 -27.501s-18.167 -13.5 -30.5 -17.5s-27.5 -6 -45.5 -6h-114l-25 135h98c16.667 0 22 8.33301 16 25l-168 567h154l88 -367z" />
    <glyph glyph-name="afii10038" unicode="&#x424;" horiz-adv-x="584" 
d="M229 60h-101c-31.333 0 -55.5 7.83301 -72.5 23.5s-25.5 39.5 -25.5 71.5v417c0 32 8.5 55.833 25.5 71.5s41.167 23.5 72.5 23.5h101v60h128v-60h99c31.333 0 55.5 -7.83301 72.5 -23.5s25.5 -39.5 25.5 -71.5v-417c0 -32 -8.5 -55.833 -25.5 -71.5
s-41.167 -23.5 -72.5 -23.5h-99v-60h-128v60zM414 524c0 5.33301 -0.833008 9.16699 -2.5 11.5s-5.5 3.5 -11.5 3.5h-43v-351h44c8.66699 0 13 4.66699 13 14v322zM172 203.001c0 -5.33301 0.833008 -9.16699 2.5 -11.5s5.5 -3.5 11.5 -3.5h43v351h-44
c-8.66699 0 -13 -4.66699 -13 -14v-322z" />
    <glyph glyph-name="afii10039" unicode="&#x425;" horiz-adv-x="425" 
d="M312 378l103 -378h-147l-56 255l-55 -255h-147l103 378l-99 349h144l54 -257l56 257h143z" />
    <glyph glyph-name="afii10040" unicode="&#x426;" horiz-adv-x="475" 
d="M405 135h40v-242l-135 -25v132h-280v727h148v-592h79v592h148v-592z" />
    <glyph glyph-name="afii10041" unicode="&#x427;" horiz-adv-x="445" 
d="M267 727h148v-727h-148v292h-127c-41.333 0 -70 8.16699 -86 24.5s-24 44.5 -24 84.5v326h148v-292c0 -5.33301 0.833008 -9.33301 2.5 -12s5.5 -4 11.5 -4h75v308z" />
    <glyph glyph-name="afii10042" unicode="&#x428;" horiz-adv-x="662" 
d="M632 0h-602v727h148v-592h79v592h148v-592h79v592h148v-727z" />
    <glyph glyph-name="afii10043" unicode="&#x429;" horiz-adv-x="697" 
d="M632 135h40v-242l-135 -25v132h-507v727h148v-592h79v592h148v-592h79v592h148v-592z" />
    <glyph glyph-name="afii10044" unicode="&#x42a;" horiz-adv-x="535" 
d="M275 444l132 0.000976562c34 0 58.833 -8.5 74.5 -25.5s23.5 -39.833 23.5 -68.5v-257c0 -28.667 -7.83301 -51.334 -23.5 -68.001s-40.5 -25 -74.5 -25h-280v592h-117l38 135h227v-283zM350 127.001c8.66699 0 13 4.66797 13 14.001v168
c0 5.33301 -0.833008 9.16602 -2.5 11.499s-5.5 3.5 -11.5 3.5h-74v-197h75z" />
    <glyph glyph-name="afii10045" unicode="&#x42b;" horiz-adv-x="644" 
d="M614 0h-148v727h148v-727zM178 727l-148 -0.000976562v-727h280c34 0 58.833 8.33301 74.5 25s23.5 39.334 23.5 68.001v257c0 28.667 -7.83301 51.5 -23.5 68.5s-40.5 25.5 -74.5 25.5h-132v283zM178 126.999v196.999h74c6 0 9.83301 -1.16699 11.5 -3.5
s2.5 -6.16602 2.5 -11.499v-168c0 -9.33301 -4.33301 -14 -13 -14h-75z" />
    <glyph glyph-name="afii10046" unicode="&#x42c;" horiz-adv-x="438" 
d="M178 444l132 0.000976562c34 0 58.833 -8.5 74.5 -25.5s23.5 -39.833 23.5 -68.5v-257c0 -28.667 -7.83301 -51.334 -23.5 -68.001s-40.5 -25 -74.5 -25h-280v727h148v-283zM253 127.001c8.66699 0 13 4.66797 13 14.001v168c0 5.33301 -0.833008 9.16602 -2.5 11.499
s-5.5 3.5 -11.5 3.5h-74v-197h75z" />
    <glyph glyph-name="afii10047" unicode="&#x42d;" horiz-adv-x="351" 
d="M172 293h-120.001v125h120v160c0 9.33301 -4.33301 14 -13 14h-139l25 135h188c24.667 0 45.5 -7.66699 62.5 -23s25.5 -37.333 25.5 -66v-528c0 -40 -8.16699 -68.333 -24.5 -85s-45.166 -25 -86.499 -25h-164l-26 135h139c8.66699 0 13 4.66699 13 14v144z" />
    <glyph glyph-name="afii10048" unicode="&#x42e;" horiz-adv-x="660" 
d="M630 103c0 -14 -1.5 -27.167 -4.5 -39.5s-8.5 -23.166 -16.5 -32.499s-18.667 -16.833 -32 -22.5s-30 -8.5 -50 -8.5h-170c-20 0 -36.667 2.83301 -50 8.5s-24 13.167 -32 22.5s-13.5 20.166 -16.5 32.499s-4.5 25.5 -4.5 39.5v197h-79v-300h-145v727h145v-301h79v207
c0 28.667 7.66699 51.5 23 68.5s40 25.5 74 25.5h182c34 0 58.667 -8.5 74 -25.5s23 -39.833 23 -68.5v-530zM413 600c-8.66699 0 -13 -4.66699 -13 -14v-444c0 -5.33301 0.833008 -9.16602 2.5 -11.499s5.5 -3.5 11.5 -3.5h55c6 0 9.83301 1.16699 11.5 3.5
s2.5 6.16602 2.5 11.499v444c0 9.33301 -4.33301 14 -13 14h-57z" />
    <glyph glyph-name="afii10049" unicode="&#x42f;" horiz-adv-x="433" 
d="M30 630c0 64.667 32.333 96.999 97 96.999h276v-727h-142v229h-19c-13.333 0 -22.5 -5.16699 -27.5 -15.5s-8.83301 -21.166 -11.5 -32.499l-44 -181h-148l47 183c2.66699 11.333 7 22 13 32s14.667 17 26 21c-18 0 -33.667 5.5 -47 16.5s-20 25.833 -20 44.5v333z
M187 599.999c-9.33301 0 -14 -5 -14 -15v-222c0 -10 4.66699 -15 14 -15h74v252h-74z" />
    <glyph glyph-name="endash" unicode="&#x2013;" horiz-adv-x="483" 
d="M40 411h413l-10 -119h-413z" />
    <glyph glyph-name="emdash" unicode="&#x2014;" horiz-adv-x="633" 
d="M40 411h563l-10 -119h-563z" />
    <glyph glyph-name="quoteleft" unicode="&#x2018;" horiz-adv-x="198" 
d="M183 460h-90l-78 285h121z" />
    <glyph glyph-name="quoteright" unicode="&#x2019;" horiz-adv-x="198" 
d="M62 745h121l-78 -285h-90z" />
    <glyph glyph-name="quotesinglbase" unicode="&#x201a;" horiz-adv-x="198" 
d="M62 145h121l-78 -285h-90z" />
    <glyph glyph-name="quotedblleft" unicode="&#x201c;" horiz-adv-x="359" 
d="M336 460h-92l-56 285h124zM182 460h-93l-69 285h123z" />
    <glyph glyph-name="quotedblright" unicode="&#x201d;" horiz-adv-x="359" 
d="M47 745h124l-56 -285h-92zM216 745h123l-69 -285h-93z" />
    <glyph glyph-name="quotedblbase" unicode="&#x201e;" horiz-adv-x="356" 
d="M46 145h121l-54 -285h-88zM216 145h122l-72 -285h-92z" />
    <glyph glyph-name="dagger" unicode="&#x2020;" horiz-adv-x="478" 
d="M448 509c0 -20 -7.00098 -37.333 -21.001 -52s-31.333 -22 -52 -22c-14.667 0 -28 4.33301 -40 13s-21.333 19.334 -28 32.001c-12 -0.666992 -20.167 -8.5 -24.5 -23.5s-4.5 -31.333 -0.5 -49s12.5 -33.834 25.5 -48.501s31.167 -22 54.5 -22c-11.333 0 -22 -6 -32 -18
s-19 -27.667 -27 -47s-15.167 -41.333 -21.5 -66s-11.833 -50 -16.5 -76c-12 -60.667 -21 -129.334 -27 -206.001c-6 76.667 -14.667 145.334 -26 206.001c-4.66699 26 -10.167 51.333 -16.5 76s-13.333 46.667 -21 66s-16.167 35 -25.5 47s-19.666 18 -30.999 18
c14.667 0 27.334 3.5 38.001 10.5s19.334 15.667 26.001 26s11.334 21.5 14.001 33.5s3.33398 23.333 2.00098 34s-4.33301 19.667 -9 27s-11 11.333 -19 12c-6 -12.667 -14.833 -23.334 -26.5 -32.001s-25.167 -13 -40.5 -13c-20.667 0 -38 7.33301 -52 22s-21 32 -21 52
s7 37.5 21 52.5s31.333 22.5 52 22.5c15.333 0 29.833 -5.16699 43.5 -15.5s22.167 -23.166 25.5 -38.499c13.333 2 23 8.16699 29 18.5s8.33301 27.166 7 50.499c-12.667 6.66699 -22.834 16 -30.501 28s-11.5 25.667 -11.5 41c0 20 7.16699 37 21.5 51
s31.166 21 50.499 21c20 0 37.333 -7 52 -21s22 -31 22 -51c0 -15.333 -4 -29 -12 -41s-18 -21.333 -30 -28c-2 -23.333 0.333008 -40.166 7 -50.499s16.667 -16.833 30 -19.5c3.33301 15.333 11.666 28.333 24.999 39s27.666 16 42.999 16c20.667 0 38 -7.5 52 -22.5
s21 -32.5 21 -52.5z" />
    <glyph glyph-name="daggerdbl" unicode="&#x2021;" horiz-adv-x="478" 
d="M448 205c0 -20 -7 -37.5 -21 -52.5s-31.333 -22.5 -52 -22.5c-15.333 0 -29.666 5.33301 -42.999 16s-21.666 23.667 -24.999 39c-13.333 -2.66699 -23.333 -9.16699 -30 -19.5s-9 -27.166 -7 -50.499c12 -6.66699 22 -16 30 -28s12 -25.667 12 -41
c0 -20 -7.33301 -37 -22 -51s-32 -21 -52 -21c-19.333 0 -36.166 7 -50.499 21s-21.5 31 -21.5 51c0 15.333 3.83301 29 11.5 41s17.834 21.333 30.501 28c1.33301 23.333 -1 40.166 -7 50.499s-15.667 16.5 -29 18.5c-3.33301 -15.333 -11.833 -28.166 -25.5 -38.499
s-28.167 -15.5 -43.5 -15.5c-20.667 0 -38 7.5 -52 22.5s-21 32.5 -21 52.5s7 37.333 21 52s31.333 22 52 22c15.333 0 28.833 -4.33301 40.5 -13s20.5 -19.334 26.5 -32.001c12 0.666992 20.333 7.5 25 20.5s5 27.167 1 42.5s-12.333 29.166 -25 41.499
s-30.334 18.5 -53.001 18.5c22.667 0 40.334 6.16699 53.001 18.5s21 26.166 25 41.499s3.66699 29.333 -1 42s-13 19.667 -25 21c-6 -12.667 -14.833 -23.334 -26.5 -32.001s-25.167 -13 -40.5 -13c-20.667 0 -38 7.33301 -52 22s-21 32 -21 52s7 37.5 21 52.5
s31.333 22.5 52 22.5c15.333 0 29.833 -5.16699 43.5 -15.5s22.167 -23.166 25.5 -38.499c13.333 2 23 8.16699 29 18.5s8.33301 27.166 7 50.499c-12.667 6.66699 -22.834 16 -30.501 28s-11.5 25.667 -11.5 41c0 20 7.16699 37 21.5 51s31.166 21 50.499 21
c20 0 37.333 -7 52 -21s22 -31 22 -51c0 -15.333 -4 -29 -12 -41s-18 -21.333 -30 -28c-2 -23.333 0.333008 -40.166 7 -50.499s16.667 -16.833 30 -19.5c3.33301 15.333 11.666 28.333 24.999 39s27.666 16 42.999 16c20.667 0 38 -7.5 52 -22.5s21 -32.5 21 -52.5
s-7 -37.333 -21 -52s-31.333 -22 -52 -22c-14.667 0 -28 4.33301 -40 13s-21.333 19.334 -28 32.001c-12 -0.666992 -20.167 -7.5 -24.5 -20.5s-4.5 -27 -0.5 -42s12.5 -28.833 25.5 -41.5s31.167 -19 54.5 -19c-23.333 0 -41.5 -6.33301 -54.5 -19s-21.5 -26.5 -25.5 -41.5
s-3.83301 -29 0.5 -42s12.5 -19.833 24.5 -20.5c6.66699 12.667 16 23.334 28 32.001s25.333 13 40 13c20.667 0 38 -7.33301 52 -22s21 -32 21 -52z" />
    <glyph glyph-name="bullet" unicode="&#x2022;" horiz-adv-x="408" 
d="M30 332c0 24.667 4.5 47.667 13.5 69s21.333 40 37 56s34.167 28.5 55.5 37.5s44 13.5 68 13.5s46.5 -4.5 67.5 -13.5s39.5 -21.5 55.5 -37.5s28.5 -34.667 37.5 -56s13.5 -44.333 13.5 -69c0 -24 -4.5 -46.667 -13.5 -68s-21.5 -40 -37.5 -56s-34.5 -28.667 -55.5 -38
s-43.5 -14 -67.5 -14s-46.667 4.66699 -68 14s-39.833 22 -55.5 38s-28 34.667 -37 56s-13.5 44 -13.5 68z" />
    <glyph glyph-name="ellipsis" unicode="&#x2026;" horiz-adv-x="688" 
d="M50 67c0 21.333 7.66699 39.666 23 54.999s33.666 23 54.999 23s39.666 -7.66699 54.999 -23s23 -33.666 23 -54.999s-7.66699 -39.5 -23 -54.5s-33.666 -22.5 -54.999 -22.5s-39.666 7.5 -54.999 22.5s-23 33.167 -23 54.5zM266 67c0 21.333 7.66699 39.666 23 54.999
s33.666 23 54.999 23s39.666 -7.66699 54.999 -23s23 -33.666 23 -54.999s-7.66699 -39.5 -23 -54.5s-33.666 -22.5 -54.999 -22.5s-39.666 7.5 -54.999 22.5s-23 33.167 -23 54.5zM482 67c0 21.333 7.66699 39.666 23 54.999s33.666 23 54.999 23
s39.666 -7.66699 54.999 -23s23 -33.666 23 -54.999s-7.66699 -39.5 -23 -54.5s-33.666 -22.5 -54.999 -22.5s-39.666 7.5 -54.999 22.5s-23 33.167 -23 54.5z" />
    <glyph glyph-name="perthousand" unicode="&#x2030;" horiz-adv-x="1005" 
d="M820 177c0 -18.667 0.333008 -33.834 1 -45.501s2 -20.667 4 -27s4.66699 -10.5 8 -12.5s7.66602 -3 12.999 -3c4.66699 0 8.83398 1 12.501 3s6.5 6.16699 8.5 12.5s3.5 15.333 4.5 27s1.5 26.834 1.5 45.501s-0.5 33.834 -1.5 45.501s-2.5 20.667 -4.5 27
s-4.83301 10.5 -8.5 12.5s-7.83398 3 -12.501 3c-5.33301 0 -9.66602 -1 -12.999 -3s-6 -6.16699 -8 -12.5s-3.33301 -15.333 -4 -27s-1 -26.834 -1 -45.501zM975 177c0 -39.333 -3 -71.166 -9 -95.499s-14.667 -43.333 -26 -57s-24.833 -23 -40.5 -28
s-33.5 -7.5 -53.5 -7.5s-37.833 2.5 -53.5 7.5s-29.167 14.333 -40.5 28s-20 32.667 -26 57s-9 56.166 -9 95.499c0 38.667 3 70.334 9 95.001s14.667 43.834 26 57.501s24.833 23 40.5 28s33.5 7.5 53.5 7.5s37.833 -2.5 53.5 -7.5s29.167 -14.333 40.5 -28
s20 -32.834 26 -57.501s9 -56.334 9 -95.001zM517 177c0 -18.667 0.333008 -33.834 1 -45.501s2 -20.667 4 -27s4.66699 -10.5 8 -12.5s7.66602 -3 12.999 -3c4.66699 0 8.83398 1 12.501 3s6.5 6.16699 8.5 12.5s3.5 15.333 4.5 27s1.5 26.834 1.5 45.501
s-0.5 33.834 -1.5 45.501s-2.5 20.667 -4.5 27s-4.83301 10.5 -8.5 12.5s-7.83398 3 -12.501 3c-5.33301 0 -9.66602 -1 -12.999 -3s-6 -6.16699 -8 -12.5s-3.33301 -15.333 -4 -27s-1 -26.834 -1 -45.501zM672 177c0 -39.333 -3 -71.166 -9 -95.499
s-14.667 -43.333 -26 -57s-24.833 -23 -40.5 -28s-33.5 -7.5 -53.5 -7.5s-37.833 2.5 -53.5 7.5s-29.167 14.333 -40.5 28s-20 32.667 -26 57s-9 56.166 -9 95.499c0 38.667 3 70.334 9 95.001s14.667 43.834 26 57.501s24.833 23 40.5 28s33.5 7.5 53.5 7.5
s37.833 -2.5 53.5 -7.5s29.167 -14.333 40.5 -28s20 -32.834 26 -57.501s9 -56.334 9 -95.001zM132 549c0 -18.667 0.5 -33.834 1.5 -45.501s2.5 -20.667 4.5 -27s4.66699 -10.5 8 -12.5s7.66602 -3 12.999 -3c4.66699 0 8.66699 1 12 3s6 6.16699 8 12.5s3.5 15.333 4.5 27
s1.5 26.834 1.5 45.501s-0.5 33.834 -1.5 45.501s-2.5 20.667 -4.5 27s-4.66699 10.5 -8 12.5s-7.33301 3 -12 3c-5.33301 0 -9.66602 -1 -12.999 -3s-6 -6.16699 -8 -12.5s-3.5 -15.333 -4.5 -27s-1.5 -26.834 -1.5 -45.501zM288 549c0 -39.333 -3 -71.166 -9 -95.499
s-14.667 -43.333 -26 -57s-24.833 -23 -40.5 -28s-33.5 -7.5 -53.5 -7.5s-37.833 2.5 -53.5 7.5s-29.167 14.333 -40.5 28s-20 32.667 -26 57s-9 56.166 -9 95.499c0 38.667 3 70.334 9 95.001s14.667 43.834 26 57.501s24.833 23 40.5 28s33.5 7.5 53.5 7.5
s37.833 -2.5 53.5 -7.5s29.167 -14.333 40.5 -28s20 -32.834 26 -57.501s9 -56.334 9 -95.001zM546 732l-284 -737h-108l287 737h105z" />
    <glyph glyph-name="guilsinglleft" unicode="&#x2039;" horiz-adv-x="264" 
d="M132 471h122l-121 -198l121 -198h-122l-117 198z" />
    <glyph glyph-name="guilsinglright" unicode="&#x203a;" horiz-adv-x="265" 
d="M255 273l-121 -198h-119l118 198l-118 198h119z" />
    <glyph glyph-name="Euro" unicode="&#x20ac;" horiz-adv-x="393" 
d="M373 135l-27.001 -135h-201c-41.333 -0 -70.166 8.33301 -86.499 25s-24.5 45 -24.5 85v124h-34v91h34v57h-34v92h34v164c0 28.667 8.5 50.667 25.5 66s37.833 23 62.5 23h224l27 -135h-180c-8.66699 0 -13 -4.66699 -13 -14v-104h183l-25 -92h-158v-57h148l-25 -91h-123
v-85c0 -9.33301 4.33301 -14 13 -14h180z" />
    <glyph glyph-name="trademark" unicode="&#x2122;" horiz-adv-x="582" 
d="M225 661h-55v-298h-85v298h-55l20 66h155zM552 363h-88v193l-57 -164l-63 164v-193h-82v364h88l57 -159l51 159h94v-364z" />
    <glyph glyph-name=".null" horiz-adv-x="0" 
 />
    <glyph glyph-name="nonmarkingreturn" horiz-adv-x="125" 
 />
    </font>
</defs>
</svg>
